<?xml version="1.0" encoding="iso-8859-1"?>
<!-- Generator: Adobe Illustrator 10.0.3, SVG Export Plug-In . SVG Version: 3.0.0 Build 77)  -->
<!DOCTYPE svg PUBLIC "-//W3C//DTD SVG 1.0//EN"    "http://www.w3.org/TR/2001/REC-SVG-20010904/DTD/svg10.dtd" [
	<!ENTITY ns_flows "http://ns.adobe.com/Flows/1.0/">
	<!ENTITY ns_svg "http://www.w3.org/2000/svg">
	<!ENTITY ns_xlink "http://www.w3.org/1999/xlink">
]>
<svg  xmlns="&ns_svg;" xmlns:xlink="&ns_xlink;" xmlns:a="http://ns.adobe.com/AdobeSVGViewerExtensions/3.0/"
	 width="947.09" height="1010.259" viewBox="0 0 947.09 1010.259"
	 style="overflow:visible;enable-background:new 0 0 947.09 1010.259" xml:space="preserve">
	<g id="Bottom">
	</g>
	<g id="Top">
		<g>
			<path style="fill:none;stroke:#000000;" d="M430.903,46.964l-322.5,222"/>
			<path style="fill:none;stroke:#000000;" d="M135.403,438.464l465-394.5"/>
			<path style="fill:none;stroke:#000000;" d="M168.403,681.464l601.5-601.5"/>
			<path style="fill:none;stroke:#000000;" d="M331.903,922.964l520.5-772.5"/>
			<path style="fill:none;stroke:#000000;" d="M703.903,937.964l220.5-643.5"/>
			<path style="fill:none;stroke:#000000;" d="M357.403,0.464l589.5,237"/>
			<path style="fill:none;stroke:#000000;" d="M198.403,25.964l733.5,463.5"/>
			<path style="fill:none;stroke:#000000;" d="M108.403,88.964l790.5,651"/>
			<path style="fill:none;stroke:#000000;" d="M24.403,193.964l744,775.5"/>
			<path style="fill:none;stroke:#000000;" d="M373.903,1009.964l-373.5-510"/>
		</g>
		<path style="fill:none;stroke:#000000;" d="M283.153,235.964l51-36l42,27"/>
		<path style="fill:none;stroke:#000000;" d="M382.153,315.464l57-48l84,52.5"/>
		<path style="fill:none;stroke:#000000;" d="M514.153,423.464l67.5-66l88.5,54"/>
		<path style="fill:none;stroke:#000000;" d="M650.653,535.964l64.5-94.5l123,78"/>
		<path style="fill:none;stroke:#000000;" d="M757.153,378.464l67.5-100.5"/>
		<path style="fill:none;stroke:#000000;" d="M634.153,300.464l72-70.5l69,27"/>
		<path style="fill:none;stroke:#000000;" d="M499.153,216.464l55.5-48l85.5,33"/>
		<path style="fill:none;stroke:#000000;" d="M401.653,153.464l42-30l37.5,15"/>
		<path style="fill:none;stroke:#000000;" d="M149.653,325.964l75-51l48,36"/>
		<path style="fill:none;stroke:#000000;" d="M247.153,429.464l81-69l85.5,69"/>
		<path style="fill:none;stroke:#000000;" d="M128.653,529.964l72-61.5l85.5,87"/>
		<path style="fill:none;stroke:#000000;" d="M374.653,561.464l90-88.5l105,84"/>
		<path style="fill:none;stroke:#000000;" d="M182.653,754.964l150-148.5l118.5,123"/>
		<path style="fill:none;stroke:#000000;" d="M383.653,933.464l108-162l175.5,180"/>
		<path style="fill:none;stroke:#000000;" d="M527.653,720.464l84-126l157.5,124.5"/>
		<path style="fill:none;stroke:#000000;" d="M201.403,468.464v-85.5"/>
		<path style="fill:none;stroke:#000000;" d="M223.903,276.464l3-88.5"/>
	</g>
</svg>
