<?xml version="1.0" encoding="UTF-8" standalone="no"?>
<!-- Generator: Adobe Illustrator 10, SVG Export Plug-In . SVG Version: 3.0.0 Build 76)  -->
<svg
   xmlns:dc="http://purl.org/dc/elements/1.1/"
   xmlns:cc="http://creativecommons.org/ns#"
   xmlns:rdf="http://www.w3.org/1999/02/22-rdf-syntax-ns#"
   xmlns:svg="http://www.w3.org/2000/svg"
   xmlns="http://www.w3.org/2000/svg"
   xmlns:xlink="http://www.w3.org/1999/xlink"
   xmlns:sodipodi="http://sodipodi.sourceforge.net/DTD/sodipodi-0.dtd"
   xmlns:inkscape="http://www.inkscape.org/namespaces/inkscape"
   width="366"
   height="251"
   viewBox="0 0 468.311 328.185"
   style="overflow:visible"
   xml:space="preserve"
   id="svg2"
   sodipodi:version="0.32"
   inkscape:version="0.46"
   sodipodi:docname="GridPreparatoryWork.svg"
   inkscape:output_extension="org.inkscape.output.svg.inkscape"
   version="1.0"><metadata
   id="metadata570"><rdf:RDF><cc:Work
       rdf:about=""><dc:format>image/svg+xml</dc:format><dc:type
         rdf:resource="http://purl.org/dc/dcmitype/StillImage" /></cc:Work></rdf:RDF></metadata><defs
   id="defs568"><inkscape:perspective
   sodipodi:type="inkscape:persp3d"
   inkscape:vp_x="0 : 164.0925 : 1"
   inkscape:vp_y="0 : 1000 : 0"
   inkscape:vp_z="468.311 : 164.0925 : 1"
   inkscape:persp3d-origin="234.1555 : 109.395 : 1"
   id="perspective572" />
		
		
	</defs><sodipodi:namedview
   inkscape:window-height="682"
   inkscape:window-width="991"
   inkscape:pageshadow="2"
   inkscape:pageopacity="0.0"
   guidetolerance="10.0"
   gridtolerance="10.0"
   objecttolerance="10.0"
   borderopacity="1.0"
   bordercolor="#666666"
   pagecolor="#ffffff"
   id="base"
   showgrid="false"
   inkscape:zoom="1.1552152"
   inkscape:cx="234.1555"
   inkscape:cy="164.0925"
   inkscape:window-x="0"
   inkscape:window-y="25"
   inkscape:current-layer="svg2" />
	<style
   type="text/css"
   id="style4">
	
		@font-face{font-family:'Helvetica';src:url(837FBB49.cef)}
		@font-face{font-family:'Times-Roman';src:url(50BBAFB6.cef)}
	
	</style>
	
<g
   transform="matrix(1.30751,0,0,1.30751,-25.055604,-1.7442283)"
   style="overflow:visible"
   id="g23">
			<g
   id="g25">
				<g
   id="g27">
					<g
   id="g29">
						<defs
   id="defs31">
							<path
   d="M 337.608,199.364 L 337.608,188.19 L 255.531,204.944 L 255.531,216.118 L 337.608,199.364 z"
   id="XMLID_1_" />
						</defs>
						<clipPath
   id="XMLID_2_">
							<use
   height="328.185"
   width="468.311"
   y="0"
   x="0"
   id="use35"
   xlink:href="#XMLID_1_" />
						</clipPath>
						<path
   id="path37"
   d="M 337.608,199.364 L 337.608,188.19 L 255.531,204.944 L 255.531,216.118 L 337.608,199.364 z"
   style="fill:#031d40;stroke:#093a80;stroke-linecap:round;stroke-linejoin:round" />
					</g>
					<g
   id="g39">
						<defs
   id="defs41">
							<path
   d="M 334.711,202.715 L 334.711,191.541 L 296.473,199.347 L 296.473,210.521 L 334.711,202.715 z"
   id="XMLID_3_" />
						</defs>
						<clipPath
   id="XMLID_4_">
							<use
   height="328.185"
   width="468.311"
   y="0"
   x="0"
   id="use45"
   xlink:href="#XMLID_3_" />
						</clipPath>
						<path
   id="path47"
   d="M 334.711,202.715 L 334.711,191.541 L 296.473,199.347 L 296.473,210.521 L 334.711,202.715 z"
   style="fill:#680012;stroke:#d40026;stroke-linecap:round;stroke-linejoin:round" />
					</g>
					<g
   id="g49">
						<defs
   id="defs51">
							<path
   d="M 332.008,206.027 L 332.008,194.852 L 321,197.1 L 321,208.274 L 332.008,206.027 z"
   id="XMLID_5_" />
						</defs>
						<clipPath
   id="XMLID_6_">
							<use
   height="328.185"
   width="468.311"
   y="0"
   x="0"
   id="use55"
   xlink:href="#XMLID_5_" />
						</clipPath>
						<path
   id="path57"
   d="M 332.008,206.027 L 332.008,194.852 L 321,197.1 L 321,208.274 L 332.008,206.027 z"
   style="fill:#032b4d;stroke:#095ba6;stroke-linecap:round;stroke-linejoin:round" />
					</g>
					<g
   id="g59">
						<defs
   id="defs61">
							<path
   d="M 381.35,235.08 L 381.35,223.905 L 337.609,188.19 L 337.609,199.364 L 381.35,235.08 z"
   id="XMLID_7_" />
						</defs>
						<clipPath
   id="XMLID_8_">
							<use
   height="328.185"
   width="468.311"
   y="0"
   x="0"
   id="use65"
   xlink:href="#XMLID_7_" />
						</clipPath>
						<path
   id="path67"
   d="M 381.35,235.08 L 381.35,223.905 L 337.609,188.19 L 337.609,199.364 L 381.35,235.08 z"
   style="fill:#010e1f;stroke:#093a80;stroke-linecap:round;stroke-linejoin:round" />
					</g>
					<g
   id="g69">
						<defs
   id="defs71">
							<path
   d="M 353.83,218.326 L 353.83,207.152 L 334.711,191.541 L 334.711,202.715 L 353.83,218.326 z"
   id="XMLID_9_" />
						</defs>
						<clipPath
   id="XMLID_10_">
							<use
   height="328.185"
   width="468.311"
   y="0"
   x="0"
   id="use75"
   xlink:href="#XMLID_9_" />
						</clipPath>
						<path
   id="path77"
   d="M 353.83,218.326 L 353.83,207.152 L 334.711,191.541 L 334.711,202.715 L 353.83,218.326 z"
   style="fill:#320009;stroke:#d40026;stroke-linecap:round;stroke-linejoin:round" />
					</g>
					<g
   id="g79">
						<defs
   id="defs81">
							<path
   d="M 337.512,210.521 L 337.512,199.347 L 332.008,194.853 L 332.008,206.028 L 337.512,210.521 z"
   id="XMLID_11_" />
						</defs>
						<clipPath
   id="XMLID_12_">
							<use
   height="328.185"
   width="468.311"
   y="0"
   x="0"
   id="use85"
   xlink:href="#XMLID_11_" />
						</clipPath>
						<path
   id="path87"
   d="M 337.512,210.521 L 337.512,199.347 L 332.008,194.853 L 332.008,206.028 L 337.512,210.521 z"
   style="fill:#011221;stroke:#095ba6;stroke-linecap:round;stroke-linejoin:round" />
					</g>
					<g
   id="g89">
						<defs
   id="defs91">
							<path
   d="M 315.592,209.377 L 315.592,198.203 L 304.584,200.45 L 304.584,211.624 L 315.592,209.377 z"
   id="XMLID_13_" />
						</defs>
						<clipPath
   id="XMLID_14_">
							<use
   height="328.185"
   width="468.311"
   y="0"
   x="0"
   id="use95"
   xlink:href="#XMLID_13_" />
						</clipPath>
						<path
   id="path97"
   d="M 315.592,209.377 L 315.592,198.203 L 304.584,200.45 L 304.584,211.624 L 315.592,209.377 z"
   style="fill:#032b4d;stroke:#095ba6;stroke-linecap:round;stroke-linejoin:round" />
					</g>
					<g
   id="g99">
						<defs
   id="defs101">
							<path
   d="M 326.504,212.768 L 326.504,201.594 L 337.512,199.347 L 337.512,210.521 L 326.504,212.768 z"
   id="XMLID_15_" />
						</defs>
						<clipPath
   id="XMLID_16_">
							<use
   height="328.185"
   width="468.311"
   y="0"
   x="0"
   id="use105"
   xlink:href="#XMLID_15_" />
						</clipPath>
						<path
   id="path107"
   d="M 326.504,212.768 L 326.504,201.594 L 337.512,199.347 L 337.512,210.521 L 326.504,212.768 z"
   style="fill:#032b4d;stroke:#095ba6;stroke-linecap:round;stroke-linejoin:round" />
					</g>
					<g
   id="g109">
						<defs
   id="defs111">
							<path
   d="M 321,208.273 L 321,197.1 L 326.504,201.594 L 326.504,212.768 L 321,208.273 z"
   id="XMLID_17_" />
						</defs>
						<clipPath
   id="XMLID_18_">
							<use
   height="328.185"
   width="468.311"
   y="0"
   x="0"
   id="use115"
   xlink:href="#XMLID_17_" />
						</clipPath>
						<path
   id="path117"
   d="M 321,208.273 L 321,197.1 L 326.504,201.594 L 326.504,212.768 L 321,208.273 z"
   style="fill:#011221;stroke:#095ba6;stroke-linecap:round;stroke-linejoin:round" />
					</g>
					<g
   id="g119">
						<defs
   id="defs121">
							<path
   d="M 321.096,213.872 L 321.096,202.697 L 315.592,198.203 L 315.592,209.377 L 321.096,213.872 z"
   id="XMLID_19_" />
						</defs>
						<clipPath
   id="XMLID_20_">
							<use
   height="328.185"
   width="468.311"
   y="0"
   x="0"
   id="use125"
   xlink:href="#XMLID_19_" />
						</clipPath>
						<path
   id="path127"
   d="M 321.096,213.872 L 321.096,202.697 L 315.592,198.203 L 315.592,209.377 L 321.096,213.872 z"
   style="fill:#011221;stroke:#095ba6;stroke-linecap:round;stroke-linejoin:round" />
					</g>
					<g
   id="g129">
						<defs
   id="defs131">
							<path
   d="M 304.584,211.624 L 304.584,200.45 L 310.088,204.944 L 310.088,216.118 L 304.584,211.624 z"
   id="XMLID_21_" />
						</defs>
						<clipPath
   id="XMLID_22_">
							<use
   height="328.185"
   width="468.311"
   y="0"
   x="0"
   id="use135"
   xlink:href="#XMLID_21_" />
						</clipPath>
						<path
   id="path137"
   d="M 304.584,211.624 L 304.584,200.45 L 310.088,204.944 L 310.088,216.118 L 304.584,211.624 z"
   style="fill:#011221;stroke:#095ba6;stroke-linecap:round;stroke-linejoin:round" />
					</g>
					<g
   id="g139">
						<defs
   id="defs141">
							<path
   d="M 310.088,216.118 L 310.088,204.944 L 321.096,202.697 L 321.096,213.872 L 310.088,216.118 z"
   id="XMLID_23_" />
						</defs>
						<clipPath
   id="XMLID_24_">
							<use
   height="328.185"
   width="468.311"
   y="0"
   x="0"
   id="use145"
   xlink:href="#XMLID_23_" />
						</clipPath>
						<path
   id="path147"
   d="M 310.088,216.118 L 310.088,204.944 L 321.096,202.697 L 321.096,213.872 L 310.088,216.118 z"
   style="fill:#032b4d;stroke:#095ba6;stroke-linecap:round;stroke-linejoin:round" />
					</g>
					<g
   id="g149">
						<defs
   id="defs151">
							<path
   d="M 323.8,216.079 L 323.8,204.905 L 312.791,207.152 L 312.791,218.326 L 323.8,216.079 z"
   id="XMLID_25_" />
						</defs>
						<clipPath
   id="XMLID_26_">
							<use
   height="328.185"
   width="468.311"
   y="0"
   x="0"
   id="use155"
   xlink:href="#XMLID_25_" />
						</clipPath>
						<path
   id="path157"
   d="M 323.8,216.079 L 323.8,204.905 L 312.791,207.152 L 312.791,218.326 L 323.8,216.079 z"
   style="fill:#032b4d;stroke:#095ba6;stroke-linecap:round;stroke-linejoin:round" />
					</g>
					<g
   id="g159">
						<defs
   id="defs161">
							<path
   d="M 329.304,220.573 L 329.304,209.398 L 323.8,204.905 L 323.8,216.079 L 329.304,220.573 z"
   id="XMLID_27_" />
						</defs>
						<clipPath
   id="XMLID_28_">
							<use
   height="328.185"
   width="468.311"
   y="0"
   x="0"
   id="use165"
   xlink:href="#XMLID_27_" />
						</clipPath>
						<path
   id="path167"
   d="M 329.304,220.573 L 329.304,209.398 L 323.8,204.905 L 323.8,216.079 L 329.304,220.573 z"
   style="fill:#011221;stroke:#095ba6;stroke-linecap:round;stroke-linejoin:round" />
					</g>
					<g
   id="g169">
						<defs
   id="defs171">
							<path
   d="M 318.296,222.819 L 318.296,211.645 L 329.304,209.398 L 329.304,220.573 L 318.296,222.819 z"
   id="XMLID_29_" />
						</defs>
						<clipPath
   id="XMLID_30_">
							<use
   height="328.185"
   width="468.311"
   y="0"
   x="0"
   id="use175"
   xlink:href="#XMLID_29_" />
						</clipPath>
						<path
   id="path177"
   d="M 318.296,222.819 L 318.296,211.645 L 329.304,209.398 L 329.304,220.573 L 318.296,222.819 z"
   style="fill:#032b4d;stroke:#095ba6;stroke-linecap:round;stroke-linejoin:round" />
					</g>
					<g
   id="g179">
						<defs
   id="defs181">
							<path
   d="M 312.791,218.326 L 312.791,207.152 L 318.296,211.645 L 318.296,222.819 L 312.791,218.326 z"
   id="XMLID_31_" />
						</defs>
						<clipPath
   id="XMLID_32_">
							<use
   height="328.185"
   width="468.311"
   y="0"
   x="0"
   id="use185"
   xlink:href="#XMLID_31_" />
						</clipPath>
						<path
   id="path187"
   d="M 312.791,218.326 L 312.791,207.152 L 318.296,211.645 L 318.296,222.819 L 312.791,218.326 z"
   style="fill:#011221;stroke:#095ba6;stroke-linecap:round;stroke-linejoin:round" />
					</g>
					<g
   id="g189">
						<defs
   id="defs191">
							<path
   d="M 315.592,226.131 L 315.592,214.957 L 353.83,207.152 L 353.83,218.326 L 315.592,226.131 z"
   id="XMLID_33_" />
						</defs>
						<clipPath
   id="XMLID_34_">
							<use
   height="328.185"
   width="468.311"
   y="0"
   x="0"
   id="use195"
   xlink:href="#XMLID_33_" />
						</clipPath>
						<path
   id="path197"
   d="M 315.592,226.131 L 315.592,214.957 L 353.83,207.152 L 353.83,218.326 L 315.592,226.131 z"
   style="fill:#680012;stroke:#d40026;stroke-linecap:round;stroke-linejoin:round" />
					</g>
					<g
   id="g199">
						<defs
   id="defs201">
							<path
   d="M 296.473,210.521 L 296.473,199.347 L 315.592,214.957 L 315.592,226.131 L 296.473,210.521 z"
   id="XMLID_35_" />
						</defs>
						<clipPath
   id="XMLID_36_">
							<use
   height="328.185"
   width="468.311"
   y="0"
   x="0"
   id="use205"
   xlink:href="#XMLID_35_" />
						</clipPath>
						<path
   id="path207"
   d="M 296.473,210.521 L 296.473,199.347 L 315.592,214.957 L 315.592,226.131 L 296.473,210.521 z"
   style="fill:#320009;stroke:#d40026;stroke-linecap:round;stroke-linejoin:round" />
					</g>
					<g
   id="g209">
						<defs
   id="defs211">
							<path
   d="M 255.531,216.118 L 255.531,204.944 L 299.272,240.659 L 299.272,251.834 L 255.531,216.118 z"
   id="XMLID_37_" />
						</defs>
						<clipPath
   id="XMLID_38_">
							<use
   height="328.185"
   width="468.311"
   y="0"
   x="0"
   id="use215"
   xlink:href="#XMLID_37_" />
						</clipPath>
						<path
   id="path217"
   d="M 255.531,216.118 L 255.531,204.944 L 299.272,240.659 L 299.272,251.834 L 255.531,216.118 z"
   style="fill:#010e1f;stroke:#093a80;stroke-linecap:round;stroke-linejoin:round" />
					</g>
					<g
   id="g219">
						<defs
   id="defs221">
							<path
   d="M 299.272,251.834 L 299.272,240.659 L 381.349,223.905 L 381.349,235.08 L 299.272,251.834 z"
   id="XMLID_39_" />
						</defs>
						<clipPath
   id="XMLID_40_">
							<use
   height="328.185"
   width="468.311"
   y="0"
   x="0"
   id="use225"
   xlink:href="#XMLID_39_" />
						</clipPath>
						<path
   id="path227"
   d="M 299.272,251.834 L 299.272,240.659 L 381.349,223.905 L 381.349,235.08 L 299.272,251.834 z"
   style="fill:#031d40;stroke:#093a80;stroke-linecap:round;stroke-linejoin:round" />
					</g>
				</g>
				<g
   id="g229">
					<path
   id="path231"
   d="M 175.186,179.208 L 175.186,251.292 L 242.815,251.292 L 242.815,179.208 L 175.186,179.208 z"
   style="fill:#093a80;stroke:#093a80" />
					<path
   id="path233"
   d="M 238.199,246.836 L 238.199,215.33 L 206.693,215.33 L 206.693,246.836 L 238.199,246.836 z"
   style="fill:#d40026;stroke:#d40026" />
					<path
   id="path235"
   d="M 220.219,242.381 L 220.219,233.311 L 211.149,233.311 L 211.149,242.381 L 220.219,242.381 z"
   style="fill:#095ba6;stroke:#095ba6" />
					<path
   id="path237"
   d="M 233.744,242.381 L 233.744,233.311 L 224.674,233.311 L 224.674,242.381 L 233.744,242.381 z"
   style="fill:#095ba6;stroke:#095ba6" />
					<path
   id="path239"
   d="M 220.219,228.855 L 220.219,219.785 L 211.149,219.785 L 211.149,228.855 L 220.219,228.855 z"
   style="fill:#095ba6;stroke:#095ba6" />
				</g>
			</g>
			<g
   id="g241">
				<g
   id="g243">
					<g
   id="g245">
						<defs
   id="defs247">
							<path
   d="M 319.316,52.444 L 319.316,41.118 L 236.119,58.1 L 236.119,69.426 L 319.316,52.444 z"
   id="XMLID_41_" />
						</defs>
						<clipPath
   id="XMLID_42_">
							<use
   height="328.185"
   width="468.311"
   y="0"
   x="0"
   id="use251"
   xlink:href="#XMLID_41_" />
						</clipPath>
						<path
   id="path253"
   d="M 319.316,52.444 L 319.316,41.118 L 236.119,58.1 L 236.119,69.426 L 319.316,52.444 z"
   style="fill:#031d40;stroke:#093a80;stroke-linecap:round;stroke-linejoin:round" />
					</g>
					<g
   id="g255">
						<defs
   id="defs257">
							<path
   d="M 280.458,105.629 L 363.655,88.648 L 319.316,52.445 L 236.119,69.427 L 280.458,105.629 z"
   id="XMLID_43_" />
						</defs>
						<clipPath
   id="XMLID_44_">
							<use
   height="328.185"
   width="468.311"
   y="0"
   x="0"
   id="use261"
   xlink:href="#XMLID_43_" />
						</clipPath>
						<path
   id="path263"
   d="M 280.458,105.629 L 363.655,88.648 L 319.316,52.445 L 236.119,69.427 L 280.458,105.629 z"
   style="fill:#010e1f;stroke:#093a80;stroke-linecap:round;stroke-linejoin:round" />
					</g>
					<g
   id="g265">
						<defs
   id="defs267">
							<path
   d="M 316.381,55.841 L 316.381,44.515 L 277.62,52.427 L 277.62,63.753 L 316.381,55.841 z"
   id="XMLID_45_" />
						</defs>
						<clipPath
   id="XMLID_46_">
							<use
   height="328.185"
   width="468.311"
   y="0"
   x="0"
   id="use271"
   xlink:href="#XMLID_45_" />
						</clipPath>
						<path
   id="path273"
   d="M 316.381,55.841 L 316.381,44.515 L 277.62,52.427 L 277.62,63.753 L 316.381,55.841 z"
   style="fill:#680012;stroke:#d40026;stroke-linecap:round;stroke-linejoin:round" />
					</g>
					<g
   id="g275">
						<defs
   id="defs277">
							<path
   d="M 297,62.594 L 285.842,64.872 L 291.421,69.427 L 302.579,67.15 L 297,62.594 z"
   id="XMLID_47_" />
						</defs>
						<clipPath
   id="XMLID_48_">
							<use
   height="328.185"
   width="468.311"
   y="0"
   x="0"
   id="use281"
   xlink:href="#XMLID_47_" />
						</clipPath>
						<path
   id="path283"
   d="M 297,62.594 L 285.842,64.872 L 291.421,69.427 L 302.579,67.15 L 297,62.594 z"
   style="fill:#011221;stroke:#095ba6;stroke-linecap:round;stroke-linejoin:round" />
					</g>
					<g
   id="g285">
						<defs
   id="defs287">
							<path
   d="M 316.381,55.841 L 277.62,63.753 L 297,79.577 L 335.76,71.665 L 316.381,55.841 z"
   id="XMLID_49_" />
						</defs>
						<clipPath
   id="XMLID_50_">
							<use
   height="328.185"
   width="468.311"
   y="0"
   x="0"
   id="use291"
   xlink:href="#XMLID_49_" />
						</clipPath>
						<path
   id="path293"
   d="M 316.381,55.841 L 277.62,63.753 L 297,79.577 L 335.76,71.665 L 316.381,55.841 z"
   style="fill:#320009;stroke:#d40026;stroke-linecap:round;stroke-linejoin:round" />
					</g>
					<g
   id="g295">
						<defs
   id="defs297">
							<path
   d="M 313.64,59.198 L 313.64,47.871 L 302.482,50.148 L 302.482,61.475 L 313.64,59.198 z"
   id="XMLID_51_" />
						</defs>
						<clipPath
   id="XMLID_52_">
							<use
   height="328.185"
   width="468.311"
   y="0"
   x="0"
   id="use301"
   xlink:href="#XMLID_51_" />
						</clipPath>
						<path
   id="path303"
   d="M 313.64,59.198 L 313.64,47.871 L 302.482,50.148 L 302.482,61.475 L 313.64,59.198 z"
   style="fill:#032b4d;stroke:#095ba6;stroke-linecap:round;stroke-linejoin:round" />
					</g>
					<g
   id="g305">
						<defs
   id="defs307">
							<path
   d="M 363.655,88.647 L 363.655,77.32 L 319.316,41.118 L 319.316,52.444 L 363.655,88.647 z"
   id="XMLID_53_" />
						</defs>
						<clipPath
   id="XMLID_54_">
							<use
   height="328.185"
   width="468.311"
   y="0"
   x="0"
   id="use311"
   xlink:href="#XMLID_53_" />
						</clipPath>
						<path
   id="path313"
   d="M 363.655,88.647 L 363.655,77.32 L 319.316,41.118 L 319.316,52.444 L 363.655,88.647 z"
   style="fill:#010e1f;stroke:#093a80;stroke-linecap:round;stroke-linejoin:round" />
					</g>
					<g
   id="g315">
						<defs
   id="defs317">
							<path
   d="M 335.76,71.665 L 335.76,60.339 L 316.381,44.515 L 316.381,55.841 L 335.76,71.665 z"
   id="XMLID_55_" />
						</defs>
						<clipPath
   id="XMLID_56_">
							<use
   height="328.185"
   width="468.311"
   y="0"
   x="0"
   id="use321"
   xlink:href="#XMLID_55_" />
						</clipPath>
						<path
   id="path323"
   d="M 335.76,71.665 L 335.76,60.339 L 316.381,44.515 L 316.381,55.841 L 335.76,71.665 z"
   style="fill:#320009;stroke:#d40026;stroke-linecap:round;stroke-linejoin:round" />
					</g>
					<g
   id="g325">
						<defs
   id="defs327">
							<path
   d="M 319.219,63.753 L 319.219,52.427 L 313.64,47.871 L 313.64,59.198 L 319.219,63.753 z"
   id="XMLID_57_" />
						</defs>
						<clipPath
   id="XMLID_58_">
							<use
   height="328.185"
   width="468.311"
   y="0"
   x="0"
   id="use331"
   xlink:href="#XMLID_57_" />
						</clipPath>
						<path
   id="path333"
   d="M 319.219,63.753 L 319.219,52.427 L 313.64,47.871 L 313.64,59.198 L 319.219,63.753 z"
   style="fill:#011221;stroke:#095ba6;stroke-linecap:round;stroke-linejoin:round" />
					</g>
					<g
   id="g335">
						<defs
   id="defs337">
							<path
   d="M 313.64,59.198 L 302.482,61.475 L 308.061,66.031 L 319.219,63.753 L 313.64,59.198 z"
   id="XMLID_59_" />
						</defs>
						<clipPath
   id="XMLID_60_">
							<use
   height="328.185"
   width="468.311"
   y="0"
   x="0"
   id="use341"
   xlink:href="#XMLID_59_" />
						</clipPath>
						<path
   id="path343"
   d="M 313.64,59.198 L 302.482,61.475 L 308.061,66.031 L 319.219,63.753 L 313.64,59.198 z"
   style="fill:#011221;stroke:#095ba6;stroke-linecap:round;stroke-linejoin:round" />
					</g>
					<g
   id="g345">
						<defs
   id="defs347">
							<path
   d="M 297,62.594 L 297,51.268 L 285.842,53.545 L 285.842,64.872 L 297,62.594 z"
   id="XMLID_61_" />
						</defs>
						<clipPath
   id="XMLID_62_">
							<use
   height="328.185"
   width="468.311"
   y="0"
   x="0"
   id="use351"
   xlink:href="#XMLID_61_" />
						</clipPath>
						<path
   id="path353"
   d="M 297,62.594 L 297,51.268 L 285.842,53.545 L 285.842,64.872 L 297,62.594 z"
   style="fill:#032b4d;stroke:#095ba6;stroke-linecap:round;stroke-linejoin:round" />
					</g>
					<g
   id="g355">
						<defs
   id="defs357">
							<path
   d="M 302.481,61.476 L 302.481,50.148 L 308.06,54.704 L 308.06,66.031 L 302.481,61.476 z"
   id="XMLID_63_" />
						</defs>
						<clipPath
   id="XMLID_64_">
							<use
   height="328.185"
   width="468.311"
   y="0"
   x="0"
   id="use361"
   xlink:href="#XMLID_63_" />
						</clipPath>
						<path
   id="path363"
   d="M 302.481,61.476 L 302.481,50.148 L 308.06,54.704 L 308.06,66.031 L 302.481,61.476 z"
   style="fill:#011221;stroke:#095ba6;stroke-linecap:round;stroke-linejoin:round" />
					</g>
					<g
   id="g365">
						<defs
   id="defs367">
							<path
   d="M 313.64,47.871 L 319.219,52.427 L 308.061,54.704 L 302.482,50.148 L 313.64,47.871 z"
   id="XMLID_65_" />
						</defs>
						<clipPath
   id="XMLID_66_">
							<use
   height="328.185"
   width="468.311"
   y="0"
   x="0"
   id="use371"
   xlink:href="#XMLID_65_" />
						</clipPath>
					</g>
					<g
   id="g373">
						<defs
   id="defs375">
							<path
   d="M 308.061,66.031 L 308.061,54.704 L 319.219,52.427 L 319.219,63.753 L 308.061,66.031 z"
   id="XMLID_67_" />
						</defs>
						<clipPath
   id="XMLID_68_">
							<use
   height="328.185"
   width="468.311"
   y="0"
   x="0"
   id="use379"
   xlink:href="#XMLID_67_" />
						</clipPath>
						<path
   id="path381"
   d="M 308.061,66.031 L 308.061,54.704 L 319.219,52.427 L 319.219,63.753 L 308.061,66.031 z"
   style="fill:#032b4d;stroke:#095ba6;stroke-linecap:round;stroke-linejoin:round" />
					</g>
					<g
   id="g383">
						<defs
   id="defs385">
							<path
   d="M 302.579,67.149 L 302.579,55.823 L 297,51.268 L 297,62.594 L 302.579,67.149 z"
   id="XMLID_69_" />
						</defs>
						<clipPath
   id="XMLID_70_">
							<use
   height="328.185"
   width="468.311"
   y="0"
   x="0"
   id="use389"
   xlink:href="#XMLID_69_" />
						</clipPath>
						<path
   id="path391"
   d="M 302.579,67.149 L 302.579,55.823 L 297,51.268 L 297,62.594 L 302.579,67.149 z"
   style="fill:#011221;stroke:#095ba6;stroke-linecap:round;stroke-linejoin:round" />
					</g>
					<g
   id="g393">
						<defs
   id="defs395">
							<path
   d="M 297,51.268 L 302.579,55.824 L 291.421,58.101 L 285.842,53.545 L 297,51.268 z"
   id="XMLID_71_" />
						</defs>
						<clipPath
   id="XMLID_72_">
							<use
   height="328.185"
   width="468.311"
   y="0"
   x="0"
   id="use399"
   xlink:href="#XMLID_71_" />
						</clipPath>
					</g>
					<g
   id="g401">
						<defs
   id="defs403">
							<path
   d="M 291.421,69.427 L 291.421,58.101 L 302.579,55.824 L 302.579,67.15 L 291.421,69.427 z"
   id="XMLID_73_" />
						</defs>
						<clipPath
   id="XMLID_74_">
							<use
   height="328.185"
   width="468.311"
   y="0"
   x="0"
   id="use407"
   xlink:href="#XMLID_73_" />
						</clipPath>
						<path
   id="path409"
   d="M 291.421,69.427 L 291.421,58.101 L 302.579,55.824 L 302.579,67.15 L 291.421,69.427 z"
   style="fill:#032b4d;stroke:#095ba6;stroke-linecap:round;stroke-linejoin:round" />
					</g>
					<g
   id="g411">
						<defs
   id="defs413">
							<path
   d="M 285.842,64.872 L 285.842,53.545 L 291.421,58.101 L 291.421,69.427 L 285.842,64.872 z"
   id="XMLID_75_" />
						</defs>
						<clipPath
   id="XMLID_76_">
							<use
   height="328.185"
   width="468.311"
   y="0"
   x="0"
   id="use417"
   xlink:href="#XMLID_75_" />
						</clipPath>
						<path
   id="path419"
   d="M 285.842,64.872 L 285.842,53.545 L 291.421,58.101 L 291.421,69.427 L 285.842,64.872 z"
   style="fill:#011221;stroke:#095ba6;stroke-linecap:round;stroke-linejoin:round" />
					</g>
					<g
   id="g421">
						<defs
   id="defs423">
							<path
   d="M 305.32,69.387 L 305.32,58.061 L 294.162,60.339 L 294.162,71.665 L 305.32,69.387 z"
   id="XMLID_77_" />
						</defs>
						<clipPath
   id="XMLID_78_">
							<use
   height="328.185"
   width="468.311"
   y="0"
   x="0"
   id="use427"
   xlink:href="#XMLID_77_" />
						</clipPath>
						<path
   id="path429"
   d="M 305.32,69.387 L 305.32,58.061 L 294.162,60.339 L 294.162,71.665 L 305.32,69.387 z"
   style="fill:#032b4d;stroke:#095ba6;stroke-linecap:round;stroke-linejoin:round" />
					</g>
					<g
   id="g431">
						<defs
   id="defs433">
							<path
   d="M 310.898,73.942 L 310.898,62.615 L 305.32,58.06 L 305.32,69.386 L 310.898,73.942 z"
   id="XMLID_79_" />
						</defs>
						<clipPath
   id="XMLID_80_">
							<use
   height="328.185"
   width="468.311"
   y="0"
   x="0"
   id="use437"
   xlink:href="#XMLID_79_" />
						</clipPath>
						<path
   id="path439"
   d="M 310.898,73.942 L 310.898,62.615 L 305.32,58.06 L 305.32,69.386 L 310.898,73.942 z"
   style="fill:#011221;stroke:#095ba6;stroke-linecap:round;stroke-linejoin:round" />
					</g>
					<g
   id="g441">
						<defs
   id="defs443">
							<path
   d="M 305.32,69.387 L 294.162,71.665 L 299.74,76.22 L 310.898,73.943 L 305.32,69.387 z"
   id="XMLID_81_" />
						</defs>
						<clipPath
   id="XMLID_82_">
							<use
   height="328.185"
   width="468.311"
   y="0"
   x="0"
   id="use447"
   xlink:href="#XMLID_81_" />
						</clipPath>
						<path
   id="path449"
   d="M 305.32,69.387 L 294.162,71.665 L 299.74,76.22 L 310.898,73.943 L 305.32,69.387 z"
   style="fill:#011221;stroke:#095ba6;stroke-linecap:round;stroke-linejoin:round" />
					</g>
					<g
   id="g451">
						<defs
   id="defs453">
							<path
   d="M 299.74,76.22 L 299.74,64.894 L 310.898,62.616 L 310.898,73.943 L 299.74,76.22 z"
   id="XMLID_83_" />
						</defs>
						<clipPath
   id="XMLID_84_">
							<use
   height="328.185"
   width="468.311"
   y="0"
   x="0"
   id="use457"
   xlink:href="#XMLID_83_" />
						</clipPath>
						<path
   id="path459"
   d="M 299.74,76.22 L 299.74,64.894 L 310.898,62.616 L 310.898,73.943 L 299.74,76.22 z"
   style="fill:#032b4d;stroke:#095ba6;stroke-linecap:round;stroke-linejoin:round" />
					</g>
					<g
   id="g461">
						<path
   id="path463"
   d="M 305.32,58.061 L 310.898,62.616 L 299.74,64.894 L 294.162,60.339 L 305.32,58.061 z"
   style="fill:#011221;stroke:#095ba6;stroke-linecap:round;stroke-linejoin:round" />
					</g>
					<g
   id="g465">
						<defs
   id="defs467">
							<path
   d="M 294.162,71.665 L 294.162,60.339 L 299.74,64.894 L 299.74,76.22 L 294.162,71.665 z"
   id="XMLID_85_" />
						</defs>
						<clipPath
   id="XMLID_86_">
							<use
   height="328.185"
   width="468.311"
   y="0"
   x="0"
   id="use471"
   xlink:href="#XMLID_85_" />
						</clipPath>
						<path
   id="path473"
   d="M 294.162,71.665 L 294.162,60.339 L 299.74,64.894 L 299.74,76.22 L 294.162,71.665 z"
   style="fill:#011221;stroke:#095ba6;stroke-linecap:round;stroke-linejoin:round" />
					</g>
					<g
   id="g475">
						<defs
   id="defs477">
							<path
   d="M 277.62,63.753 L 277.62,52.427 L 297,68.25 L 297,79.577 L 277.62,63.753 z"
   id="XMLID_87_" />
						</defs>
						<clipPath
   id="XMLID_88_">
							<use
   height="328.185"
   width="468.311"
   y="0"
   x="0"
   id="use481"
   xlink:href="#XMLID_87_" />
						</clipPath>
						<path
   id="path483"
   d="M 277.62,63.753 L 277.62,52.427 L 297,68.25 L 297,79.577 L 277.62,63.753 z"
   style="fill:#320009;stroke:#d40026;stroke-linecap:round;stroke-linejoin:round" />
					</g>
					<g
   id="g485">
						<defs
   id="defs487">
							<path
   d="M 297,79.577 L 297,68.25 L 335.76,60.339 L 335.76,71.665 L 297,79.577 z"
   id="XMLID_89_" />
						</defs>
						<clipPath
   id="XMLID_90_">
							<use
   height="328.185"
   width="468.311"
   y="0"
   x="0"
   id="use491"
   xlink:href="#XMLID_89_" />
						</clipPath>
						<path
   id="path493"
   d="M 297,79.577 L 297,68.25 L 335.76,60.339 L 335.76,71.665 L 297,79.577 z"
   style="fill:#680012;stroke:#d40026;stroke-linecap:round;stroke-linejoin:round" />
					</g>
					<g
   id="g495">
						<defs
   id="defs497">
							<path
   d="M 280.458,94.303 L 236.119,58.101 L 319.316,41.119 L 363.655,77.321 L 280.458,94.303 z"
   id="XMLID_91_" />
						</defs>
						<clipPath
   id="XMLID_92_">
							<use
   height="328.185"
   width="468.311"
   y="0"
   x="0"
   id="use501"
   xlink:href="#XMLID_91_" />
						</clipPath>
					</g>
					<g
   id="g503">
						<defs
   id="defs505">
							<path
   d="M 316.381,44.515 L 335.76,60.339 L 297,68.25 L 277.62,52.427 L 316.381,44.515 z"
   id="XMLID_93_" />
						</defs>
						<clipPath
   id="XMLID_94_">
							<use
   height="328.185"
   width="468.311"
   y="0"
   x="0"
   id="use509"
   xlink:href="#XMLID_93_" />
						</clipPath>
					</g>
					<g
   id="g511">
						<defs
   id="defs513">
							<path
   d="M 280.458,105.629 L 280.458,94.303 L 363.655,77.321 L 363.655,88.648 L 280.458,105.629 z"
   id="XMLID_95_" />
						</defs>
						<clipPath
   id="XMLID_96_">
							<use
   height="328.185"
   width="468.311"
   y="0"
   x="0"
   id="use517"
   xlink:href="#XMLID_95_" />
						</clipPath>
						<path
   id="path519"
   d="M 280.458,105.629 L 280.458,94.303 L 363.655,77.321 L 363.655,88.648 L 280.458,105.629 z"
   style="fill:#031d40;stroke:#093a80;stroke-linecap:round;stroke-linejoin:round" />
					</g>
					<g
   id="g521">
						<defs
   id="defs523">
							<path
   d="M 236.119,69.427 L 236.119,58.101 L 280.458,94.303 L 280.458,105.629 L 236.119,69.427 z"
   id="XMLID_97_" />
						</defs>
						<clipPath
   id="XMLID_98_">
							<use
   height="328.185"
   width="468.311"
   y="0"
   x="0"
   id="use527"
   xlink:href="#XMLID_97_" />
						</clipPath>
						<path
   id="path529"
   d="M 236.119,69.427 L 236.119,58.101 L 280.458,94.303 L 280.458,105.629 L 236.119,69.427 z"
   style="fill:#010e1f;stroke:#093a80;stroke-linecap:round;stroke-linejoin:round" />
					</g>
				</g>
				<g
   id="g531">
					<path
   id="path533"
   d="M 135.574,15.128 L 135.574,114.274 L 228.592,114.274 L 228.592,15.128 L 135.574,15.128 z"
   style="fill:#093a80;stroke:#093a80" />
					<path
   id="path535"
   d="M 222.245,108.146 L 222.245,64.811 L 178.91,64.811 L 178.91,108.147 L 222.245,108.147 L 222.245,108.146 z"
   style="fill:#d40026;stroke:#d40026" />
					<path
   id="path537"
   d="M 197.514,102.018 L 197.514,89.543 L 185.038,89.543 L 185.038,102.018 L 197.514,102.018 z"
   style="fill:#095ba6;stroke:#095ba6" />
					<path
   id="path539"
   d="M 216.117,102.018 L 216.117,89.543 L 203.641,89.543 L 203.641,102.018 L 216.117,102.018 z"
   style="fill:#095ba6;stroke:#095ba6" />
					<path
   id="path541"
   d="M 197.514,83.414 L 197.514,70.939 L 185.038,70.939 L 185.038,83.414 L 197.514,83.414 z"
   style="fill:#095ba6;stroke:#095ba6" />
				</g>
			</g>
			<g
   id="g543">
				<path
   id="path545"
   d="M 257,158.25 L 257,1.25 L 18.562,1.25 L 17.562,158.25 L 257,158.25 z"
   style="fill:none" />
				<text
   id="text547"
   transform="translate(18.5259,14)"><tspan
     id="tspan549"
     style="font-size:14px;font-family:Helvetica"
     y="0"
     x="0">Filled and stroked, grouped, then cut.</tspan><tspan
     id="tspan551"
     style="font-size:14px;font-family:Helvetica"
     y="17"
     x="-0.083999999">Pasted into a Dimensions Artwork </tspan><tspan
     id="tspan553"
     style="font-size:14px;font-family:Helvetica"
     y="34"
     x="-0.193">window, then applied to the page. A </tspan><tspan
     id="tspan555"
     style="font-size:14px;font-family:Helvetica"
     y="51"
     x="-0.301">bevel applied, 10 mm with caps.</tspan><tspan
     id="tspan557"
     style="font-size:14px;font-family:Helvetica"
     y="68"
     x="-0.40900001">In Dimensions preferences, </tspan><tspan
     id="tspan559"
     style="font-size:14px;font-family:Helvetica"
     y="85"
     x="-0.51800001">render/save hidden lines was ON.</tspan><tspan
     id="tspan561"
     style="font-size:14px;font-family:Helvetica"
     y="102"
     x="-0.62599999">Cut &amp; paste into Illustrator, </tspan><tspan
     id="tspan563"
     style="font-size:14px;font-family:Helvetica"
     y="119"
     x="-0.73400003">ungroup then delete blocking top caps </tspan><tspan
     id="tspan565"
     style="font-size:14px;font-family:Helvetica"
     y="136"
     x="-0.84200001">of shapes. Wide angle lens?</tspan></text>

			</g>
		</g></svg>