<?xml version="1.0" encoding="iso-8859-1"?>
<!-- Generator: Adobe Illustrator 10.0.3, SVG Export Plug-In . SVG Version: 3.0.0 Build 77)  -->
<!DOCTYPE svg PUBLIC "-//W3C//DTD SVG 1.0//EN"    "http://www.w3.org/TR/2001/REC-SVG-20010904/DTD/svg10.dtd" [
	<!ENTITY ns_flows "http://ns.adobe.com/Flows/1.0/">
	<!ENTITY ns_svg "http://www.w3.org/2000/svg">
	<!ENTITY ns_xlink "http://www.w3.org/1999/xlink">
]>
<svg  xmlns="&ns_svg;" xmlns:xlink="&ns_xlink;" xmlns:a="http://ns.adobe.com/AdobeSVGViewerExtensions/3.0/"
	 width="520.561" height="463.175" viewBox="0 0 520.561 463.175"
	 style="overflow:visible;enable-background:new 0 0 520.561 463.175" xml:space="preserve">
	<g id="Layer_1">
		<g>
			<defs>
				<path id="XMLID_1_" d="M409.51,356.087v-324h-324v324H409.51z"/>
			</defs>
			<clipPath id="XMLID_2_">
				<use xlink:href="#XMLID_1_" />
			</clipPath>
			<g>
				<path style="clip-path:url(#XMLID_2_);fill:#424242;" d="M25.79,203.825l7.602,51.491l54.762-9.688l-5.797-50.281L25.79,203.825
					z"/>
				<path style="clip-path:url(#XMLID_2_);fill:#424242;" d="M17.722,149.182l8.069,54.653l56.566-8.478l-6.143-53.277
					L17.722,149.182z"/>
				<path style="clip-path:url(#XMLID_2_);fill:#424242;" d="M356.419,317.518l-1.491,36.563l34.918-9.521l2.225-35.97
					L356.419,317.518z"/>
				<path style="clip-path:url(#XMLID_2_);fill:#424242;" d="M319.138,326.853l-0.688,37.174l36.485-9.948l1.492-36.563
					L319.138,326.853z"/>
				<path style="clip-path:url(#XMLID_2_);fill:#424242;" d="M357.979,279.283l-1.56,38.242l35.652-8.927l2.325-37.584
					L357.979,279.283z"/>
				<path style="clip-path:url(#XMLID_2_);fill:#424242;" d="M359.612,239.251l-1.633,40.039l36.417-8.269l2.432-39.31
					L359.612,239.251z"/>
				<path style="clip-path:url(#XMLID_2_);fill:#424242;" d="M319.858,287.939l-0.72,38.921l37.289-9.336l1.56-38.242
					L319.858,287.939z"/>
				<path style="clip-path:url(#XMLID_2_);fill:#424242;" d="M361.323,197.293l-1.712,41.966l37.215-7.54l2.546-41.157
					L361.323,197.293z"/>
				<path style="clip-path:url(#XMLID_2_);fill:#424242;" d="M320.614,247.152l-0.755,40.794l38.128-8.658l1.633-40.039
					L320.614,247.152z"/>
				<path style="clip-path:url(#XMLID_2_);fill:#424242;" d="M279.904,297.011l0.201,39.623l39.041-9.775l0.721-38.921
					L279.904,297.011z"/>
				<path style="clip-path:url(#XMLID_2_);fill:#424242;" d="M321.406,204.355l-0.792,42.806l39.006-7.902l1.712-41.966
					L321.406,204.355z"/>
				<path style="clip-path:url(#XMLID_2_);fill:#424242;" d="M279.692,255.443l0.211,41.577l39.963-9.074l0.755-40.794
					L279.692,255.443z"/>
				<path style="clip-path:url(#XMLID_2_);fill:#424242;" d="M363.119,153.267l-1.796,44.035l38.049-6.731l2.669-43.138
					L363.119,153.267z"/>
				<path style="clip-path:url(#XMLID_2_);fill:#424242;" d="M237.978,306.531l1.215,40.347l40.919-10.246l-0.201-39.623
					L237.978,306.531z"/>
				<path style="clip-path:url(#XMLID_2_);fill:#424242;" d="M279.47,211.774l0.222,43.678l40.929-8.292l0.793-42.805
					L279.47,211.774z"/>
				<path style="clip-path:url(#XMLID_2_);fill:#424242;" d="M365.006,107.015l-1.887,46.261l38.921-5.833l2.801-45.265
					L365.006,107.015z"/>
				<path style="clip-path:url(#XMLID_2_);fill:#424242;" d="M236.702,264.153l1.276,42.387l41.934-9.522l-0.211-41.576
					L236.702,264.153z"/>
				<path style="clip-path:url(#XMLID_2_);fill:#424242;" d="M322.238,159.394l-0.833,44.97l39.926-7.062l1.796-44.035
					L322.238,159.394z"/>
				<path style="clip-path:url(#XMLID_2_);fill:#424242;" d="M193.934,316.532l2.331,41.095l42.937-10.751l-1.215-40.347
					L193.934,316.532z"/>
				<path style="clip-path:url(#XMLID_2_);fill:#424242;" d="M191.482,273.315l2.452,43.226l44.053-10.003l-1.276-42.386
					L191.482,273.315z"/>
				<path style="clip-path:url(#XMLID_2_);fill:#424242;" d="M366.991,58.364l-1.985,48.661l39.834-4.837l2.942-47.553
					L366.991,58.364z"/>
				<path style="clip-path:url(#XMLID_2_);fill:#424242;" d="M279.237,165.839l0.233,45.943l41.944-7.42l0.833-44.97
					L279.237,165.839z"/>
				<path style="clip-path:url(#XMLID_2_);fill:#424242;" d="M323.114,112.102l-0.875,47.302l40.889-6.128l1.887-46.261
					L323.114,112.102z"/>
				<path style="clip-path:url(#XMLID_2_);fill:#424242;" d="M235.359,219.577l1.343,44.584l42.999-8.711l-0.222-43.678
					L235.359,219.577z"/>
				<path style="clip-path:url(#XMLID_2_);fill:#424242;" d="M147.605,327.052l3.562,41.868l45.107-11.295l-2.331-41.095
					L147.605,327.052z"/>
				<path style="clip-path:url(#XMLID_2_);fill:#424242;" d="M369.081,7.122l-2.091,51.251l40.792-3.729l3.094-50.019L369.081,7.122
					z"/>
				<path style="clip-path:url(#XMLID_2_);fill:#424242;" d="M233.945,172.627l1.415,46.958l44.119-7.805l-0.233-45.943
					L233.945,172.627z"/>
				<path style="clip-path:url(#XMLID_2_);fill:#424242;" d="M143.854,282.964l3.751,44.097l46.338-10.522l-2.452-43.226
					L143.854,282.964z"/>
				<path style="clip-path:url(#XMLID_2_);fill:#424242;" d="M324.036,62.291l-0.922,49.82l41.901-5.087l1.985-48.66L324.036,62.291
					z"/>
				<path style="clip-path:url(#XMLID_2_);fill:#424242;" d="M188.9,227.795l2.583,45.528l45.229-9.164l-1.343-44.584L188.9,227.795
					z"/>
				<path style="clip-path:url(#XMLID_2_);fill:#424242;" d="M278.99,117.459l0.246,48.39l43.01-6.446l0.876-47.302L278.99,117.459z
					"/>
				<path style="clip-path:url(#XMLID_2_);fill:#424242;" d="M93.621,293.141l5.188,45l48.805-11.082l-3.75-44.097L93.621,293.141z"
					/>
				<path style="clip-path:url(#XMLID_2_);fill:#424242;" d="M325.009,9.755l-0.973,52.546l42.964-3.927l2.091-51.251L325.009,9.755
					z"/>
				<path style="clip-path:url(#XMLID_2_);fill:#424242;" d="M278.731,66.432l0.26,51.037l44.132-5.358l0.922-49.82L278.731,66.432z
					"/>
				<path style="clip-path:url(#XMLID_2_);fill:#424242;" d="M232.453,123.109l1.492,49.527l45.3-6.79L279,117.458L232.453,123.109z
					"/>
				<path style="clip-path:url(#XMLID_2_);fill:#424242;" d="M139.899,236.464l3.957,46.509l47.637-9.651l-2.583-45.527
					L139.899,236.464z"/>
				<path style="clip-path:url(#XMLID_2_);fill:#424242;" d="M186.176,179.787l2.724,48.018l46.469-8.22l-1.415-46.958
					L186.176,179.787z"/>
				<path style="clip-path:url(#XMLID_2_);fill:#424242;" d="M135.72,187.349l4.179,49.125l49.01-8.67l-2.724-48.018L135.72,187.349
					z"/>
				<path style="clip-path:url(#XMLID_2_);fill:#424242;" d="M183.3,129.078l2.877,50.719l47.778-7.161l-1.492-49.527L183.3,129.078
					z"/>
				<path style="clip-path:url(#XMLID_2_);fill:#424242;" d="M88.142,245.62l5.48,47.531l50.243-10.179l-3.956-46.509L88.142,245.62
					z"/>
				<path style="clip-path:url(#XMLID_2_);fill:#424242;" d="M230.878,70.807l1.576,52.313L279,117.468l-0.259-51.036
					L230.878,70.807z"/>
				<path style="clip-path:url(#XMLID_2_);fill:#424242;" d="M278.457,12.536l0.274,53.907l45.314-4.143l0.973-52.546
					L278.457,12.536z"/>
				<path style="clip-path:url(#XMLID_2_);fill:#424242;" d="M40.563,303.891l6.782,45.937l51.475-11.688l-5.188-45L40.563,303.891z
					"/>
				<path style="clip-path:url(#XMLID_2_);fill:#424242;" d="M82.345,195.349l5.797,50.281l51.767-9.157l-4.179-49.125
					L82.345,195.349z"/>
				<path style="clip-path:url(#XMLID_2_);fill:#424242;" d="M33.39,255.306l7.174,48.595l53.068-10.751l-5.48-47.531L33.39,255.306
					z"/>
				<path style="clip-path:url(#XMLID_2_);fill:#424242;" d="M229.212,15.477l1.667,55.34l47.862-4.375l-0.274-53.907
					L229.212,15.477z"/>
				<path style="clip-path:url(#XMLID_2_);fill:#424242;" d="M131.301,135.391l4.42,51.968l50.465-7.563l-2.877-50.719
					L131.301,135.391z"/>
				<path style="clip-path:url(#XMLID_2_);fill:#424242;" d="M180.256,75.434l3.044,53.654l49.164-5.969l-1.576-52.313
					L180.256,75.434z"/>
				<path style="clip-path:url(#XMLID_2_);fill:#424242;" d="M177.031,18.594l3.225,56.851l50.632-4.629l-1.667-55.34
					L177.031,18.594z"/>
				<path style="clip-path:url(#XMLID_2_);fill:#424242;" d="M126.618,80.338l4.684,55.064l52.008-6.315l-3.043-53.653
					L126.618,80.338z"/>
				<path style="clip-path:url(#XMLID_2_);fill:#424242;" d="M76.204,142.082l6.143,53.277l53.385-8.001l-4.42-51.968
					L76.204,142.082z"/>
				<path style="clip-path:url(#XMLID_2_);fill:#424242;" d="M69.685,85.542l6.52,56.55l55.108-6.691l-4.684-55.064L69.685,85.542z"
					/>
				<path style="clip-path:url(#XMLID_2_);fill:#424242;" d="M121.647,21.903l4.972,58.446l53.649-4.905l-3.225-56.851
					L121.647,21.903z"/>
				<path style="clip-path:url(#XMLID_2_);fill:#424242;" d="M62.752,25.421l6.934,60.133l56.944-5.206l-4.971-58.446L62.752,25.421
					z"/>
			</g>
			<path style="clip-path:url(#XMLID_2_);fill:#FFFFFF;" d="M426.178,300.05l-2.896,35.393l32.072-8.744l3.509-34.833
				L426.178,300.05z"/>
			<path style="clip-path:url(#XMLID_2_);fill:#EDEDED;" d="M423.282,335.437l24.485,18.637l32.917-9.519l-25.336-17.86
				L423.282,335.437z"/>
			<path style="clip-path:url(#XMLID_2_);fill:#737373;" d="M455.348,326.694l25.336,17.86l4.219-35.962l-26.047-16.724
				L455.348,326.694z"/>
			<path style="clip-path:url(#XMLID_2_);fill:#FFFFFF;" d="M392.064,308.592l-2.225,35.97l33.45-9.12l2.896-35.393L392.064,308.592
				z"/>
			<path style="clip-path:url(#XMLID_2_);fill:#FFFFFF;" d="M429.2,263.11l-3.023,36.947l32.686-8.185l3.66-36.329L429.2,263.11z"/>
			<path style="clip-path:url(#XMLID_2_);fill:#EDEDED;" d="M389.839,344.555l23.534,19.464l34.395-9.946l-24.485-18.636
				L389.839,344.555z"/>
			<path style="clip-path:url(#XMLID_2_);fill:#737373;" d="M426.177,300.051l25.164,17.467l-3.574,36.556l-24.485-18.637
				L426.177,300.051z"/>
			<path style="clip-path:url(#XMLID_2_);fill:#737373;" d="M423.282,335.437l24.485,18.636l3.574-36.556l-25.164-17.466
				L423.282,335.437z"/>
			<path style="clip-path:url(#XMLID_2_);fill:#737373;" d="M458.857,291.867l26.046,16.724l4.408-37.576l-26.795-15.469
				L458.857,291.867z"/>
			<path style="clip-path:url(#XMLID_2_);fill:#EDEDED;" d="M458.856,291.869l26.047,16.724l-33.562,8.925l-25.164-17.467
				L458.856,291.869z"/>
			<path style="clip-path:url(#XMLID_2_);fill:#EDEDED;" d="M426.177,300.05l25.165,17.467l33.561-8.925l-26.046-16.724
				L426.177,300.05z"/>
			<path style="clip-path:url(#XMLID_2_);fill:#FFFFFF;" d="M432.358,224.513l-3.158,38.605l33.323-7.567l3.82-37.923
				L432.358,224.513z"/>
			<path style="clip-path:url(#XMLID_2_);fill:#FFFFFF;" d="M394.389,271.015l-2.325,37.584l34.121-8.543l3.023-36.947
				L394.389,271.015z"/>
			<path style="clip-path:url(#XMLID_2_);fill:#EDEDED;" d="M426.177,300.051l25.164,17.466l-35.102,9.335l-24.176-18.259
				L426.177,300.051z"/>
			<path style="clip-path:url(#XMLID_2_);fill:#737373;" d="M429.199,263.111l25.881,16.172l-3.739,38.234l-25.165-17.467
				L429.199,263.111z"/>
			<path style="clip-path:url(#XMLID_2_);fill:#EDEDED;" d="M462.516,255.546l26.795,15.469l-34.23,8.268l-25.881-16.172
				L462.516,255.546z"/>
			<path style="clip-path:url(#XMLID_2_);fill:#737373;" d="M392.064,308.593l24.176,18.259l-2.867,37.167l-23.534-19.464
				L392.064,308.593z"/>
			<path style="clip-path:url(#XMLID_2_);fill:#EDEDED;" d="M392.064,308.592l24.176,18.26l35.102-9.335l-25.165-17.466
				L392.064,308.592z"/>
			<path style="clip-path:url(#XMLID_2_);fill:#737373;" d="M389.839,344.555l23.534,19.464l2.867-37.167l-24.176-18.26
				L389.839,344.555z"/>
			<path style="clip-path:url(#XMLID_2_);fill:#737373;" d="M426.177,300.05l25.165,17.466l3.739-38.234l-25.881-16.171
				L426.177,300.05z"/>
			<path style="clip-path:url(#XMLID_2_);fill:#EDEDED;" d="M354.928,354.074l22.471,20.348l35.974-10.402l-23.534-19.464
				L354.928,354.074z"/>
			<path style="clip-path:url(#XMLID_2_);fill:#EDEDED;" d="M429.2,263.11l25.881,16.171l34.23-8.268l-26.795-15.469L429.2,263.11z"
				/>
			<path style="clip-path:url(#XMLID_2_);fill:#737373;" d="M462.516,255.545l26.795,15.469l4.61-39.301l-27.586-14.083
				L462.516,255.545z"/>
			<path style="clip-path:url(#XMLID_2_);fill:#FFFFFF;" d="M435.661,184.143l-3.303,40.378l33.985-6.886l3.992-39.625
				L435.661,184.143z"/>
			<path style="clip-path:url(#XMLID_2_);fill:#FFFFFF;" d="M396.82,231.713l-2.432,39.31l34.818-7.906l3.159-38.605L396.82,231.713
				z"/>
			<path style="clip-path:url(#XMLID_2_);fill:#737373;" d="M356.419,317.519l23.069,19.108l-2.089,37.795l-22.471-20.348
				L356.419,317.519z"/>
			<path style="clip-path:url(#XMLID_2_);fill:#737373;" d="M394.388,271.016l24.853,16.923l-3.001,38.913l-24.176-18.26
				L394.388,271.016z"/>
			<path style="clip-path:url(#XMLID_2_);fill:#EDEDED;" d="M429.199,263.111l25.881,16.171l-35.839,8.656l-24.853-16.923
				L429.199,263.111z"/>
			<path style="clip-path:url(#XMLID_2_);fill:#EDEDED;" d="M392.064,308.593l24.176,18.26l-36.751,9.773l-23.069-19.108
				L392.064,308.593z"/>
			<path style="clip-path:url(#XMLID_2_);fill:#737373;" d="M432.358,224.513l26.637,14.737l-3.914,40.031L429.2,263.11
				L432.358,224.513z"/>
			<path style="clip-path:url(#XMLID_2_);fill:#EDEDED;" d="M466.336,217.629l27.586,14.083l-34.927,7.538l-26.637-14.737
				L466.336,217.629z"/>
			<path style="clip-path:url(#XMLID_2_);fill:#737373;" d="M354.928,354.074l22.471,20.348l2.089-37.795l-23.069-19.108
				L354.928,354.074z"/>
			<path style="clip-path:url(#XMLID_2_);fill:#EDEDED;" d="M318.45,364.02l21.285,21.293l37.664-10.892l-22.471-20.348
				L318.45,364.02z"/>
			<path style="clip-path:url(#XMLID_2_);fill:#737373;" d="M392.064,308.592l24.176,18.259l3.001-38.913l-24.853-16.923
				L392.064,308.592z"/>
			<path style="clip-path:url(#XMLID_2_);fill:#EDEDED;" d="M356.419,317.518l23.069,19.108l36.752-9.774l-24.176-18.259
				L356.419,317.518z"/>
			<path style="clip-path:url(#XMLID_2_);fill:#737373;" d="M429.2,263.11l25.881,16.172l3.914-40.031l-26.637-14.738L429.2,263.11z
				"/>
			<path style="clip-path:url(#XMLID_2_);fill:#737373;" d="M466.336,217.628l27.586,14.083l4.827-41.148l-28.422-12.553
				L466.336,217.628z"/>
			<path style="clip-path:url(#XMLID_2_);fill:#EDEDED;" d="M394.388,271.015l24.854,16.923l35.839-8.656L429.2,263.11
				L394.388,271.015z"/>
			<path style="clip-path:url(#XMLID_2_);fill:#EDEDED;" d="M432.358,224.512l26.638,14.738l34.926-7.538l-27.586-14.083
				L432.358,224.512z"/>
			<path style="clip-path:url(#XMLID_2_);fill:#FFFFFF;" d="M280.105,336.626l0.192,37.804l38.16-10.404l0.688-37.175
				L280.105,336.626z"/>
			<path style="clip-path:url(#XMLID_2_);fill:#FFFFFF;" d="M399.365,190.564l-2.546,41.157l35.545-7.202l3.303-40.377
				L399.365,190.564z"/>
			<path style="clip-path:url(#XMLID_2_);fill:#FFFFFF;" d="M439.119,141.876l-3.459,42.275l34.673-6.134l4.176-41.445
				L439.119,141.876z"/>
			<path style="clip-path:url(#XMLID_2_);fill:#EDEDED;" d="M356.419,317.519l23.069,19.108l-38.52,10.244l-21.831-20.018
				L356.419,317.519z"/>
			<path style="clip-path:url(#XMLID_2_);fill:#EDEDED;" d="M319.138,326.853l21.83,20.017l38.52-10.244l-23.069-19.108
				L319.138,326.853z"/>
			<path style="clip-path:url(#XMLID_2_);fill:#737373;" d="M357.979,279.283l23.699,17.728l-2.19,39.614l-23.069-19.108
				L357.979,279.283z"/>
			<path style="clip-path:url(#XMLID_2_);fill:#737373;" d="M356.419,317.518l23.069,19.108l2.19-39.614l-23.699-17.728
				L356.419,317.518z"/>
			<path style="clip-path:url(#XMLID_2_);fill:#EDEDED;" d="M432.358,224.513l26.637,14.738l-36.607,7.901l-25.568-15.438
				L432.358,224.513z"/>
			<path style="clip-path:url(#XMLID_2_);fill:#EDEDED;" d="M396.82,231.712l25.568,15.439l36.607-7.901l-26.638-14.738
				L396.82,231.712z"/>
			<path style="clip-path:url(#XMLID_2_);fill:#737373;" d="M396.82,231.713l25.568,15.438l-3.146,40.786l-24.854-16.923
				L396.82,231.713z"/>
			<path style="clip-path:url(#XMLID_2_);fill:#737373;" d="M394.388,271.015l24.854,16.923l3.146-40.786l-25.568-15.438
				L394.388,271.015z"/>
			<path style="clip-path:url(#XMLID_2_);fill:#EDEDED;" d="M394.388,271.016l24.853,16.923l-37.563,9.072l-23.699-17.728
				L394.388,271.016z"/>
			<path style="clip-path:url(#XMLID_2_);fill:#EDEDED;" d="M357.979,279.282l23.699,17.728l37.564-9.073l-24.854-16.923
				L357.979,279.282z"/>
			<path style="clip-path:url(#XMLID_2_);fill:#737373;" d="M435.66,184.143l27.438,13.149l-4.103,41.957l-26.638-14.738
				L435.66,184.143z"/>
			<path style="clip-path:url(#XMLID_2_);fill:#737373;" d="M432.358,224.512l26.638,14.738l4.103-41.957l-27.438-13.149
				L432.358,224.512z"/>
			<path style="clip-path:url(#XMLID_2_);fill:#EDEDED;" d="M470.327,178.01l28.422,12.553l-35.651,6.729l-27.438-13.149
				L470.327,178.01z"/>
			<path style="clip-path:url(#XMLID_2_);fill:#EDEDED;" d="M435.661,184.142l27.437,13.149l35.651-6.729l-28.422-12.552
				L435.661,184.142z"/>
			<path style="clip-path:url(#XMLID_2_);fill:#EDEDED;" d="M280.297,374.423l19.961,22.306l39.477-11.416l-21.285-21.293
				L280.297,374.423z"/>
			<path style="clip-path:url(#XMLID_2_);fill:#737373;" d="M470.327,178.009l28.422,12.552l5.06-43.128l-29.307-10.86
				L470.327,178.009z"/>
			<path style="clip-path:url(#XMLID_2_);fill:#737373;" d="M318.449,364.021l21.285,21.293l1.233-38.442l-21.83-20.017
				L318.449,364.021z"/>
			<path style="clip-path:url(#XMLID_2_);fill:#737373;" d="M319.137,326.854l21.831,20.018l-1.233,38.442L318.45,364.02
				L319.137,326.854z"/>
			<path style="clip-path:url(#XMLID_2_);fill:#FFFFFF;" d="M239.193,346.87l1.158,38.451l39.954-10.894l-0.192-37.803
				L239.193,346.87z"/>
			<path style="clip-path:url(#XMLID_2_);fill:#FFFFFF;" d="M442.744,97.576l-3.625,44.309l35.39-5.304l4.372-43.393L442.744,97.576
				z"/>
			<path style="clip-path:url(#XMLID_2_);fill:#FFFFFF;" d="M402.034,147.435l-2.669,43.138l36.303-6.422l3.459-42.275
				L402.034,147.435z"/>
			<path style="clip-path:url(#XMLID_2_);fill:#EDEDED;" d="M474.502,136.573l29.307,10.86l-36.405,5.832l-28.284-11.39
				L474.502,136.573z"/>
			<path style="clip-path:url(#XMLID_2_);fill:#737373;" d="M399.365,190.564l26.324,13.79l-3.301,42.797l-25.568-15.439
				L399.365,190.564z"/>
			<path style="clip-path:url(#XMLID_2_);fill:#EDEDED;" d="M319.137,326.854l21.83,20.017l-40.419,10.749l-20.443-20.993
				L319.137,326.854z"/>
			<path style="clip-path:url(#XMLID_2_);fill:#737373;" d="M280.105,336.627l20.443,20.993l-0.291,39.109l-19.961-22.306
				L280.105,336.627z"/>
			<path style="clip-path:url(#XMLID_2_);fill:#EDEDED;" d="M435.66,184.143l27.438,13.149l-37.409,7.062l-26.324-13.79
				L435.66,184.143z"/>
			<path style="clip-path:url(#XMLID_2_);fill:#737373;" d="M319.858,287.94l22.404,18.592l-1.294,40.338l-21.83-20.017
				L319.858,287.94z"/>
			<path style="clip-path:url(#XMLID_2_);fill:#EDEDED;" d="M396.82,231.713l25.568,15.438l-38.412,8.291l-24.364-16.191
				L396.82,231.713z"/>
			<path style="clip-path:url(#XMLID_2_);fill:#737373;" d="M359.612,239.251l24.364,16.191l-2.298,41.567l-23.699-17.728
				L359.612,239.251z"/>
			<path style="clip-path:url(#XMLID_2_);fill:#EDEDED;" d="M357.979,279.284l23.699,17.728l-39.416,9.52l-22.404-18.592
				L357.979,279.284z"/>
			<path style="clip-path:url(#XMLID_2_);fill:#737373;" d="M439.119,141.875l28.284,11.39l-4.305,44.026l-27.437-13.149
				L439.119,141.875z"/>
			<path style="clip-path:url(#XMLID_2_);fill:#EDEDED;" d="M240.351,385.314l18.483,23.393l41.423-11.978l-19.961-22.306
				L240.351,385.314z"/>
			<path style="clip-path:url(#XMLID_2_);fill:#EDEDED;" d="M319.858,287.938l22.404,18.592l39.416-9.52l-23.699-17.728
				L319.858,287.938z"/>
			<path style="clip-path:url(#XMLID_2_);fill:#737373;" d="M435.661,184.142l27.438,13.149l4.305-44.026l-28.284-11.39
				L435.661,184.142z"/>
			<path style="clip-path:url(#XMLID_2_);fill:#737373;" d="M357.979,279.282l23.699,17.728l2.297-41.567l-24.364-16.191
				L357.979,279.282z"/>
			<path style="clip-path:url(#XMLID_2_);fill:#EDEDED;" d="M399.365,190.562l26.324,13.79l37.409-7.062l-27.438-13.149
				L399.365,190.562z"/>
			<path style="clip-path:url(#XMLID_2_);fill:#EDEDED;" d="M439.119,141.875l28.284,11.39l36.405-5.833l-29.307-10.86
				L439.119,141.875z"/>
			<path style="clip-path:url(#XMLID_2_);fill:#737373;" d="M396.82,231.712l25.568,15.439l3.301-42.797l-26.324-13.79
				L396.82,231.712z"/>
			<path style="clip-path:url(#XMLID_2_);fill:#EDEDED;" d="M359.612,239.25l24.364,16.191l38.412-8.291l-25.568-15.439
				L359.612,239.25z"/>
			<path style="clip-path:url(#XMLID_2_);fill:#737373;" d="M474.502,136.571l29.307,10.86l5.309-45.255l-30.245-8.989
				L474.502,136.571z"/>
			<path style="clip-path:url(#XMLID_2_);fill:#737373;" d="M319.137,326.853l21.831,20.017l1.294-40.338l-22.404-18.592
				L319.137,326.853z"/>
			<path style="clip-path:url(#XMLID_2_);fill:#EDEDED;" d="M280.105,336.626l20.443,20.992l40.42-10.749l-21.831-20.017
				L280.105,336.626z"/>
			<path style="clip-path:url(#XMLID_2_);fill:#737373;" d="M280.297,374.423l19.961,22.306l0.291-39.109l-20.444-20.993
				L280.297,374.423z"/>
			<path style="clip-path:url(#XMLID_2_);fill:#FFFFFF;" d="M196.264,357.619l2.219,39.118l41.876-11.417l-1.158-38.451
				L196.264,357.619z"/>
			<path style="clip-path:url(#XMLID_2_);fill:#FFFFFF;" d="M404.833,102.179l-2.8,45.265l37.093-5.559l3.625-44.309
				L404.833,102.179z"/>
			<path style="clip-path:url(#XMLID_2_);fill:#FFFFFF;" d="M446.547,51.091l-3.804,46.494l36.136-4.388l4.582-45.481
				L446.547,51.091z"/>
			<path style="clip-path:url(#XMLID_2_);fill:#EDEDED;" d="M359.612,239.251l24.364,16.191l-40.354,8.71l-23.008-17
				L359.612,239.251z"/>
			<path style="clip-path:url(#XMLID_2_);fill:#737373;" d="M361.323,197.293l25.066,14.479l-2.414,43.668l-24.364-16.191
				L361.323,197.293z"/>
			<path style="clip-path:url(#XMLID_2_);fill:#737373;" d="M402.033,147.434l27.125,11.958l-3.468,44.96l-26.324-13.79
				L402.033,147.434z"/>
			<path style="clip-path:url(#XMLID_2_);fill:#EDEDED;" d="M439.119,141.875l28.284,11.39l-38.245,6.127l-27.125-11.958
				L439.119,141.875z"/>
			<path style="clip-path:url(#XMLID_2_);fill:#EDEDED;" d="M399.365,190.564l26.324,13.79l-39.299,7.419l-25.066-14.479
				L399.365,190.564z"/>
			<path style="clip-path:url(#XMLID_2_);fill:#737373;" d="M442.743,97.574l29.183,9.438l-4.523,46.251l-28.284-11.39
				L442.743,97.574z"/>
			<path style="clip-path:url(#XMLID_2_);fill:#737373;" d="M279.903,297.012l20.95,19.521l-0.305,41.086l-20.443-20.992
				L279.903,297.012z"/>
			<path style="clip-path:url(#XMLID_2_);fill:#EDEDED;" d="M478.872,93.188l30.245,8.989l-37.191,4.836l-29.183-9.438
				L478.872,93.188z"/>
			<path style="clip-path:url(#XMLID_2_);fill:#EDEDED;" d="M280.104,336.628l20.444,20.993l-42.463,11.292l-18.892-22.042
				L280.104,336.628z"/>
			<path style="clip-path:url(#XMLID_2_);fill:#737373;" d="M320.613,247.153l23.008,17l-1.359,42.377l-22.404-18.592
				L320.613,247.153z"/>
			<path style="clip-path:url(#XMLID_2_);fill:#737373;" d="M239.193,346.872l18.892,22.042l0.749,39.794l-18.483-23.393
				L239.193,346.872z"/>
			<path style="clip-path:url(#XMLID_2_);fill:#EDEDED;" d="M319.858,287.94l22.404,18.592l-41.409,10.001l-20.95-19.521
				L319.858,287.94z"/>
			<path style="clip-path:url(#XMLID_2_);fill:#737373;" d="M319.858,287.938l22.404,18.592l1.359-42.377l-23.008-17
				L319.858,287.938z"/>
			<path style="clip-path:url(#XMLID_2_);fill:#EDEDED;" d="M198.483,396.73l16.834,24.562l43.517-12.584l-18.483-23.393
				L198.483,396.73z"/>
			<path style="clip-path:url(#XMLID_2_);fill:#737373;" d="M359.612,239.25l24.364,16.191l2.414-43.668l-25.066-14.479
				L359.612,239.25z"/>
			<path style="clip-path:url(#XMLID_2_);fill:#737373;" d="M478.873,93.186l30.244,8.989l5.577-47.543l-31.24-6.917L478.873,93.186
				z"/>
			<path style="clip-path:url(#XMLID_2_);fill:#EDEDED;" d="M442.743,97.573l29.183,9.438l37.191-4.835l-30.244-8.989
				L442.743,97.573z"/>
			<path style="clip-path:url(#XMLID_2_);fill:#EDEDED;" d="M402.033,147.433l27.125,11.958l38.245-6.127l-28.284-11.39
				L402.033,147.433z"/>
			<path style="clip-path:url(#XMLID_2_);fill:#737373;" d="M240.351,385.315l18.483,23.393l-0.749-39.795l-18.892-22.041
				L240.351,385.315z"/>
			<path style="clip-path:url(#XMLID_2_);fill:#EDEDED;" d="M320.613,247.152l23.008,17l40.354-8.71l-24.364-16.191L320.613,247.152
				z"/>
			<path style="clip-path:url(#XMLID_2_);fill:#737373;" d="M280.104,336.626l20.444,20.993l0.305-41.086l-20.95-19.521
				L280.104,336.626z"/>
			<path style="clip-path:url(#XMLID_2_);fill:#EDEDED;" d="M279.903,297.011l20.95,19.521l41.409-10.001l-22.404-18.592
				L279.903,297.011z"/>
			<path style="clip-path:url(#XMLID_2_);fill:#737373;" d="M399.365,190.562l26.324,13.79l3.468-44.96l-27.125-11.958
				L399.365,190.562z"/>
			<path style="clip-path:url(#XMLID_2_);fill:#EDEDED;" d="M361.323,197.292l25.066,14.479l39.3-7.418l-26.324-13.79
				L361.323,197.292z"/>
			<path style="clip-path:url(#XMLID_2_);fill:#EDEDED;" d="M239.193,346.871l18.892,22.041l42.463-11.292l-20.444-20.993
				L239.193,346.871z"/>
			<path style="clip-path:url(#XMLID_2_);fill:#737373;" d="M439.119,141.875l28.284,11.39l4.523-46.251l-29.183-9.438
				L439.119,141.875z"/>
			<path style="clip-path:url(#XMLID_2_);fill:#FFFFFF;" d="M407.774,54.635l-2.941,47.553l37.918-4.604l3.804-46.494
				L407.774,54.635z"/>
			<path style="clip-path:url(#XMLID_2_);fill:#FFFFFF;" d="M450.543,2.256L446.546,51.1l36.914-3.375l4.808-47.723L450.543,2.256z"
				/>
			<path style="clip-path:url(#XMLID_2_);fill:#FFFFFF;" d="M151.165,368.912l3.386,39.803l43.941-11.98l-2.219-39.118
				L151.165,368.912z"/>
			<path style="clip-path:url(#XMLID_2_);fill:#EDEDED;" d="M279.903,297.013l20.95,19.521l-43.556,10.52l-19.319-20.52
				L279.903,297.013z"/>
			<path style="clip-path:url(#XMLID_2_);fill:#737373;" d="M363.119,153.266l25.81,12.571l-2.539,45.934l-25.066-14.479
				L363.119,153.266z"/>
			<path style="clip-path:url(#XMLID_2_);fill:#EDEDED;" d="M239.193,346.872l18.892,22.041l-44.666,11.878l-17.155-23.17
				L239.193,346.872z"/>
			<path style="clip-path:url(#XMLID_2_);fill:#737373;" d="M196.264,357.621l17.155,23.17l1.897,40.5l-16.834-24.562
				L196.264,357.621z"/>
			<path style="clip-path:url(#XMLID_2_);fill:#737373;" d="M321.406,204.355l23.646,15.221l-1.43,44.575l-23.008-17
				L321.406,204.355z"/>
			<path style="clip-path:url(#XMLID_2_);fill:#737373;" d="M279.692,255.444l21.482,17.871l-0.321,43.217l-20.95-19.521
				L279.692,255.444z"/>
			<path style="clip-path:url(#XMLID_2_);fill:#EDEDED;" d="M442.743,97.574l29.183,9.438l-39.12,5.086l-27.973-9.921
				L442.743,97.574z"/>
			<path style="clip-path:url(#XMLID_2_);fill:#737373;" d="M446.547,51.089l30.137,7.272l-4.757,48.65l-29.183-9.438
				L446.547,51.089z"/>
			<path style="clip-path:url(#XMLID_2_);fill:#EDEDED;" d="M402.033,147.434l27.125,11.958l-40.229,6.445l-25.81-12.571
				L402.033,147.434z"/>
			<path style="clip-path:url(#XMLID_2_);fill:#737373;" d="M404.833,102.178l27.973,9.921l-3.648,47.292l-27.125-11.958
				L404.833,102.178z"/>
			<path style="clip-path:url(#XMLID_2_);fill:#EDEDED;" d="M320.613,247.153l23.008,17l-42.447,9.162l-21.482-17.871
				L320.613,247.153z"/>
			<path style="clip-path:url(#XMLID_2_);fill:#EDEDED;" d="M483.454,47.715l31.24,6.917l-38.011,3.728l-30.137-7.272
				L483.454,47.715z"/>
			<path style="clip-path:url(#XMLID_2_);fill:#EDEDED;" d="M361.323,197.293l25.066,14.479l-41.338,7.803l-23.646-15.221
				L361.323,197.293z"/>
			<path style="clip-path:url(#XMLID_2_);fill:#737373;" d="M237.978,306.533l19.319,20.52l0.788,41.859l-18.892-22.041
				L237.978,306.533z"/>
			<path style="clip-path:url(#XMLID_2_);fill:#EDEDED;" d="M237.978,306.531l19.319,20.521l43.556-10.52l-20.95-19.521
				L237.978,306.531z"/>
			<path style="clip-path:url(#XMLID_2_);fill:#EDEDED;" d="M196.264,357.62l17.156,23.17l44.666-11.878l-18.893-22.041
				L196.264,357.62z"/>
			<path style="clip-path:url(#XMLID_2_);fill:#EDEDED;" d="M279.692,255.442l21.482,17.871l42.447-9.161l-23.008-17
				L279.692,255.442z"/>
			<path style="clip-path:url(#XMLID_2_);fill:#737373;" d="M239.193,346.871l18.893,22.041l-0.789-41.859l-19.319-20.521
				L239.193,346.871z"/>
			<path style="clip-path:url(#XMLID_2_);fill:#737373;" d="M320.613,247.152l23.008,17l1.43-44.576l-23.646-15.221L320.613,247.152
				z"/>
			<path style="clip-path:url(#XMLID_2_);fill:#EDEDED;" d="M363.119,153.265l25.81,12.571l40.229-6.445l-27.125-11.958
				L363.119,153.265z"/>
			<path style="clip-path:url(#XMLID_2_);fill:#737373;" d="M402.033,147.433l27.125,11.958l3.648-47.292l-27.973-9.921
				L402.033,147.433z"/>
			<path style="clip-path:url(#XMLID_2_);fill:#EDEDED;" d="M154.551,408.708l14.992,25.82l45.774-13.237l-16.834-24.562
				L154.551,408.708z"/>
			<path style="clip-path:url(#XMLID_2_);fill:#737373;" d="M198.483,396.73l16.834,24.562l-1.897-40.5l-17.156-23.17
				L198.483,396.73z"/>
			<path style="clip-path:url(#XMLID_2_);fill:#EDEDED;" d="M321.406,204.354l23.646,15.221l41.338-7.803l-25.066-14.479
				L321.406,204.354z"/>
			<path style="clip-path:url(#XMLID_2_);fill:#737373;" d="M361.323,197.292l25.066,14.479l2.539-45.934l-25.81-12.571
				L361.323,197.292z"/>
			<path style="clip-path:url(#XMLID_2_);fill:#EDEDED;" d="M404.833,102.176l27.973,9.921l39.12-5.086l-29.183-9.438
				L404.833,102.176z"/>
			<path style="clip-path:url(#XMLID_2_);fill:#737373;" d="M442.743,97.573l29.183,9.438l4.757-48.65l-30.137-7.272L442.743,97.573
				z"/>
			<path style="clip-path:url(#XMLID_2_);fill:#737373;" d="M279.903,297.011l20.95,19.521l0.321-43.217l-21.482-17.871
				L279.903,297.011z"/>
			<path style="clip-path:url(#XMLID_2_);fill:#EDEDED;" d="M446.547,51.087l30.136,7.271l38.011-3.728l-31.241-6.917
				L446.547,51.087z"/>
			<path style="clip-path:url(#XMLID_2_);fill:#737373;" d="M483.454,47.713l31.241,6.917l5.866-50.009L488.26,0L483.454,47.713z"/>
			<path style="clip-path:url(#XMLID_2_);fill:#FFFFFF;" d="M103.727,380.79l4.671,40.509l46.162-12.586l-3.385-39.804
				L103.727,380.79z"/>
			<path style="clip-path:url(#XMLID_2_);fill:#FFFFFF;" d="M410.868,4.626l-3.094,50.019l38.78-3.545l3.997-48.844L410.868,4.626z"
				/>
			<path style="clip-path:url(#XMLID_2_);fill:#FFFFFF;" d="M53.763,393.301l6.088,41.235l48.557-13.239l-4.67-40.509
				L53.763,393.301z"/>
			<path style="clip-path:url(#XMLID_2_);fill:#EDEDED;" d="M321.406,204.355l23.646,15.221l-43.539,8.219l-22.043-16.021
				L321.406,204.355z"/>
			<path style="clip-path:url(#XMLID_2_);fill:#EDEDED;" d="M196.264,357.622l17.156,23.17l-47.044,12.511l-15.211-24.388
				L196.264,357.622z"/>
			<path style="clip-path:url(#XMLID_2_);fill:#737373;" d="M322.238,159.394l24.32,13.232l-1.506,46.949l-23.646-15.221
				L322.238,159.394z"/>
			<path style="clip-path:url(#XMLID_2_);fill:#737373;" d="M151.165,368.914l15.211,24.388l3.167,41.227l-14.992-25.82
				L151.165,368.914z"/>
			<path style="clip-path:url(#XMLID_2_);fill:#737373;" d="M407.774,54.633l28.875,7.654l-3.842,49.81l-27.973-9.921
				L407.774,54.633z"/>
			<path style="clip-path:url(#XMLID_2_);fill:#737373;" d="M236.701,264.154l19.766,18.811l0.83,44.087l-19.319-20.521
				L236.701,264.154z"/>
			<path style="clip-path:url(#XMLID_2_);fill:#737373;" d="M365.006,107.013l26.597,10.443l-2.674,48.379l-25.81-12.571
				L365.006,107.013z"/>
			<path style="clip-path:url(#XMLID_2_);fill:#EDEDED;" d="M363.119,153.266l25.81,12.571l-42.371,6.788l-24.32-13.232
				L363.119,153.266z"/>
			<path style="clip-path:url(#XMLID_2_);fill:#EDEDED;" d="M446.547,51.089l30.137,7.272l-40.035,3.927l-28.875-7.654
				L446.547,51.089z"/>
			<path style="clip-path:url(#XMLID_2_);fill:#737373;" d="M279.469,211.774l22.043,16.021l-0.338,45.518l-21.482-17.871
				L279.469,211.774z"/>
			<path style="clip-path:url(#XMLID_2_);fill:#EDEDED;" d="M237.978,306.533l19.319,20.521l-45.875,11.08l-17.488-21.599
				L237.978,306.533z"/>
			<path style="clip-path:url(#XMLID_2_);fill:#EDEDED;" d="M279.692,255.444l21.482,17.871l-44.707,9.649l-19.766-18.811
				L279.692,255.444z"/>
			<path style="clip-path:url(#XMLID_2_);fill:#EDEDED;" d="M404.833,102.178l27.973,9.921l-41.203,5.357l-26.597-10.443
				L404.833,102.178z"/>
			<path style="clip-path:url(#XMLID_2_);fill:#EDEDED;" d="M488.26,0l32.3,4.622l-38.867,2.496l-31.151-4.865L488.26,0z"/>
			<path style="clip-path:url(#XMLID_2_);fill:#737373;" d="M193.933,316.534l17.488,21.599l1.998,42.657l-17.156-23.17
				L193.933,316.534z"/>
			<path style="clip-path:url(#XMLID_2_);fill:#737373;" d="M450.543,2.253l31.151,4.865l-5.011,51.241l-30.136-7.271L450.543,2.253
				z"/>
			<path style="clip-path:url(#XMLID_2_);fill:#FFFFFF;" d="M98.809,338.132l4.919,42.666l47.447-11.88l-3.561-41.868
				L98.809,338.132z"/>
			<path style="clip-path:url(#XMLID_2_);fill:#EDEDED;" d="M108.397,421.293l12.934,27.177l48.211-13.941l-14.992-25.82
				L108.397,421.293z"/>
			<path style="clip-path:url(#XMLID_2_);fill:#EDEDED;" d="M365.006,107.012l26.597,10.443l41.203-5.358l-27.973-9.921
				L365.006,107.012z"/>
			<path style="clip-path:url(#XMLID_2_);fill:#737373;" d="M404.833,102.176l27.973,9.921l3.842-49.81l-28.875-7.654
				L404.833,102.176z"/>
			<path style="clip-path:url(#XMLID_2_);fill:#EDEDED;" d="M236.701,264.152l19.765,18.81l44.708-9.649l-21.482-17.871
				L236.701,264.152z"/>
			<path style="clip-path:url(#XMLID_2_);fill:#737373;" d="M279.692,255.442l21.482,17.871l0.338-45.518l-22.043-16.021
				L279.692,255.442z"/>
			<path style="clip-path:url(#XMLID_2_);fill:#737373;" d="M237.978,306.531l19.319,20.521l-0.83-44.087l-19.765-18.811
				L237.978,306.531z"/>
			<path style="clip-path:url(#XMLID_2_);fill:#EDEDED;" d="M193.933,316.533l17.488,21.599l45.875-11.08l-19.319-20.521
				L193.933,316.533z"/>
			<path style="clip-path:url(#XMLID_2_);fill:#737373;" d="M154.55,408.709l14.992,25.82l-3.166-41.226l-15.211-24.388
				L154.55,408.709z"/>
			<path style="clip-path:url(#XMLID_2_);fill:#EDEDED;" d="M279.469,211.772l22.043,16.021l43.539-8.219l-23.646-15.221
				L279.469,211.772z"/>
			<path style="clip-path:url(#XMLID_2_);fill:#737373;" d="M321.406,204.354l23.646,15.221l1.506-46.949l-24.32-13.232
				L321.406,204.354z"/>
			<path style="clip-path:url(#XMLID_2_);fill:#EDEDED;" d="M151.165,368.913l15.211,24.389l47.043-12.511l-17.155-23.17
				L151.165,368.913z"/>
			<path style="clip-path:url(#XMLID_2_);fill:#737373;" d="M196.264,357.62l17.155,23.17l-1.998-42.657l-17.488-21.599
				L196.264,357.62z"/>
			<path style="clip-path:url(#XMLID_2_);fill:#737373;" d="M446.547,51.087l30.137,7.271l5.01-51.241l-31.151-4.865L446.547,51.087
				z"/>
			<path style="clip-path:url(#XMLID_2_);fill:#737373;" d="M363.119,153.265l25.81,12.571l2.674-48.379l-26.597-10.443
				L363.119,153.265z"/>
			<path style="clip-path:url(#XMLID_2_);fill:#EDEDED;" d="M407.774,54.632l28.875,7.654l40.035-3.927l-30.137-7.271
				L407.774,54.632z"/>
			<path style="clip-path:url(#XMLID_2_);fill:#EDEDED;" d="M322.238,159.392l24.32,13.232l42.371-6.788l-25.81-12.571
				L322.238,159.392z"/>
			<path style="clip-path:url(#XMLID_2_);fill:#EDEDED;" d="M236.701,264.154l19.765,18.811l-47.153,10.177l-17.833-19.826
				L236.701,264.154z"/>
			<path style="clip-path:url(#XMLID_2_);fill:#737373;" d="M193.933,316.533l17.488,21.6l-2.107-44.991l-17.833-19.826
				L193.933,316.533z"/>
			<path style="clip-path:url(#XMLID_2_);fill:#737373;" d="M191.481,273.315l17.833,19.826l2.108,44.99l-17.488-21.599
				L191.481,273.315z"/>
			<path style="clip-path:url(#XMLID_2_);fill:#FFFFFF;" d="M47.344,349.819l6.421,43.49l49.973-12.513l-4.919-42.666
				L47.344,349.819z"/>
			<path style="clip-path:url(#XMLID_2_);fill:#EDEDED;" d="M193.933,316.534l17.488,21.599l-48.385,11.687l-15.432-22.766
				L193.933,316.534z"/>
			<path style="clip-path:url(#XMLID_2_);fill:#737373;" d="M147.604,327.054l15.432,22.766l3.339,43.481l-15.211-24.389
				L147.604,327.054z"/>
			<path style="clip-path:url(#XMLID_2_);fill:#EDEDED;" d="M151.165,368.915l15.211,24.388l-49.617,13.195l-13.032-25.706
				L151.165,368.915z"/>
			<path style="clip-path:url(#XMLID_2_);fill:#737373;" d="M103.727,380.792l13.032,25.706l4.572,41.972l-12.934-27.177
				L103.727,380.792z"/>
			<path style="clip-path:url(#XMLID_2_);fill:#737373;" d="M279.236,165.838l22.633,13.947l-0.356,48.008l-22.043-16.021
				L279.236,165.838z"/>
			<path style="clip-path:url(#XMLID_2_);fill:#EDEDED;" d="M450.543,2.253l31.151,4.865L440.701,9.75l-29.833-5.127L450.543,2.253z
				"/>
			<path style="clip-path:url(#XMLID_2_);fill:#737373;" d="M410.868,4.623l29.833,5.127l-4.053,52.535l-28.875-7.654L410.868,4.623
				z"/>
			<path style="clip-path:url(#XMLID_2_);fill:#EDEDED;" d="M322.238,159.394l24.32,13.232l-44.689,7.16l-22.633-13.947
				L322.238,159.394z"/>
			<path style="clip-path:url(#XMLID_2_);fill:#EDEDED;" d="M407.774,54.633l28.875,7.654l-42.225,4.142l-27.434-8.067
				L407.774,54.633z"/>
			<path style="clip-path:url(#XMLID_2_);fill:#737373;" d="M366.99,58.361l27.434,8.067l-2.821,51.026l-26.597-10.443
				L366.99,58.361z"/>
			<path style="clip-path:url(#XMLID_2_);fill:#EDEDED;" d="M365.006,107.013l26.597,10.443l-43.457,5.65L323.114,112.1
				L365.006,107.013z"/>
			<path style="clip-path:url(#XMLID_2_);fill:#EDEDED;" d="M279.469,211.774l22.043,16.021l-45.921,8.668l-20.233-16.886
				L279.469,211.774z"/>
			<path style="clip-path:url(#XMLID_2_);fill:#737373;" d="M323.114,112.1l25.033,11.007l-1.588,49.517l-24.32-13.232
				L323.114,112.1z"/>
			<path style="clip-path:url(#XMLID_2_);fill:#737373;" d="M236.701,264.152l19.765,18.811l-0.875-46.5l-20.232-16.886
				L236.701,264.152z"/>
			<path style="clip-path:url(#XMLID_2_);fill:#737373;" d="M235.359,219.577l20.233,16.886l0.875,46.499l-19.765-18.81
				L235.359,219.577z"/>
			<path style="clip-path:url(#XMLID_2_);fill:#737373;" d="M108.396,421.293l12.934,27.177l-4.571-41.973l-13.032-25.705
				L108.396,421.293z"/>
			<path style="clip-path:url(#XMLID_2_);fill:#EDEDED;" d="M103.727,380.791l13.032,25.706l49.617-13.195l-15.211-24.388
				L103.727,380.791z"/>
			<path style="clip-path:url(#XMLID_2_);fill:#EDEDED;" d="M279.236,165.837l22.633,13.947l44.689-7.16l-24.32-13.232
				L279.236,165.837z"/>
			<path style="clip-path:url(#XMLID_2_);fill:#737373;" d="M151.165,368.913l15.211,24.388l-3.34-43.481l-15.432-22.766
				L151.165,368.913z"/>
			<path style="clip-path:url(#XMLID_2_);fill:#737373;" d="M407.774,54.632l28.875,7.654l4.053-52.535l-29.833-5.128
				L407.774,54.632z"/>
			<path style="clip-path:url(#XMLID_2_);fill:#EDEDED;" d="M366.991,58.36l27.433,8.067l42.225-4.141l-28.875-7.654L366.991,58.36z
				"/>
			<path style="clip-path:url(#XMLID_2_);fill:#737373;" d="M322.238,159.392l24.32,13.232l1.588-49.517L323.114,112.1
				L322.238,159.392z"/>
			<path style="clip-path:url(#XMLID_2_);fill:#EDEDED;" d="M191.481,273.314l17.833,19.826l47.153-10.177l-19.765-18.811
				L191.481,273.314z"/>
			<path style="clip-path:url(#XMLID_2_);fill:#EDEDED;" d="M147.604,327.053l15.432,22.766l48.385-11.686l-17.488-21.6
				L147.604,327.053z"/>
			<path style="clip-path:url(#XMLID_2_);fill:#EDEDED;" d="M59.849,434.53l10.631,28.645l50.849-14.704l-12.934-27.177
				L59.849,434.53z"/>
			<path style="clip-path:url(#XMLID_2_);fill:#737373;" d="M279.469,211.772l22.043,16.021l0.356-48.008l-22.633-13.947
				L279.469,211.772z"/>
			<path style="clip-path:url(#XMLID_2_);fill:#737373;" d="M365.006,107.012l26.597,10.443l2.821-51.026l-27.434-8.067
				L365.006,107.012z"/>
			<path style="clip-path:url(#XMLID_2_);fill:#EDEDED;" d="M323.114,112.098l25.033,11.007l43.457-5.65l-26.597-10.443
				L323.114,112.098z"/>
			<path style="clip-path:url(#XMLID_2_);fill:#EDEDED;" d="M235.359,219.576l20.233,16.886l45.921-8.668l-22.043-16.021
				L235.359,219.576z"/>
			<path style="clip-path:url(#XMLID_2_);fill:#EDEDED;" d="M279.236,165.838l22.633,13.947l-47.202,7.562l-20.722-14.721
				L279.236,165.838z"/>
			<path style="clip-path:url(#XMLID_2_);fill:#737373;" d="M324.035,62.288l25.789,8.515l-1.678,52.302l-25.033-11.007
				L324.035,62.288z"/>
			<path style="clip-path:url(#XMLID_2_);fill:#EDEDED;" d="M410.868,4.623l29.833,5.128l-43.298,2.781l-28.322-5.412L410.868,4.623
				z"/>
			<path style="clip-path:url(#XMLID_2_);fill:#737373;" d="M233.945,172.626l20.722,14.721l0.925,49.115l-20.233-16.886
				L233.945,172.626z"/>
			<path style="clip-path:url(#XMLID_2_);fill:#737373;" d="M369.081,7.119l28.322,5.412l-2.979,53.896l-27.433-8.067L369.081,7.119
				z"/>
			<path style="clip-path:url(#XMLID_2_);fill:#EDEDED;" d="M366.99,58.361l27.434,8.067l-44.6,4.375l-25.789-8.515L366.99,58.361z"
				/>
			<path style="clip-path:url(#XMLID_2_);fill:#EDEDED;" d="M147.604,327.054l15.432,22.766l-51.106,12.343l-13.122-24.029
				L147.604,327.054z"/>
			<path style="clip-path:url(#XMLID_2_);fill:#737373;" d="M143.853,282.965l15.655,20.926l3.527,45.927l-15.432-22.766
				L143.853,282.965z"/>
			<path style="clip-path:url(#XMLID_2_);fill:#EDEDED;" d="M235.359,219.577l20.232,16.886l-48.503,9.156l-18.188-17.823
				L235.359,219.577z"/>
			<path style="clip-path:url(#XMLID_2_);fill:#737373;" d="M53.762,393.304l10.588,27.132l6.13,42.739L59.849,434.53
				L53.762,393.304z"/>
			<path style="clip-path:url(#XMLID_2_);fill:#EDEDED;" d="M103.726,380.793l13.032,25.705l-52.408,13.938l-10.588-27.132
				L103.726,380.793z"/>
			<path style="clip-path:url(#XMLID_2_);fill:#737373;" d="M188.899,227.796l18.188,17.823l2.226,47.521l-17.833-19.826
				L188.899,227.796z"/>
			<path style="clip-path:url(#XMLID_2_);fill:#737373;" d="M98.808,338.134l13.122,24.029l4.829,44.333l-13.032-25.706
				L98.808,338.134z"/>
			<path style="clip-path:url(#XMLID_2_);fill:#EDEDED;" d="M191.481,273.315l17.833,19.826l-49.805,10.75l-15.655-20.926
				L191.481,273.315z"/>
			<path style="clip-path:url(#XMLID_2_);fill:#EDEDED;" d="M323.114,112.1l25.033,11.007l-45.901,5.968l-23.255-11.618
				L323.114,112.1z"/>
			<path style="clip-path:url(#XMLID_2_);fill:#737373;" d="M278.99,117.458l23.255,11.618l-0.376,50.708l-22.633-13.947
				L278.99,117.458z"/>
			<path style="clip-path:url(#XMLID_2_);fill:#EDEDED;" d="M188.899,227.794l18.188,17.823l48.503-9.156l-20.232-16.886
				L188.899,227.794z"/>
			<path style="clip-path:url(#XMLID_2_);fill:#737373;" d="M103.726,380.792l13.032,25.705l-4.829-44.333l-13.122-24.029
				L103.726,380.792z"/>
			<path style="clip-path:url(#XMLID_2_);fill:#737373;" d="M191.481,273.314l17.832,19.826l-2.226-47.521l-18.189-17.823
				L191.481,273.314z"/>
			<path style="clip-path:url(#XMLID_2_);fill:#EDEDED;" d="M143.853,282.963l15.655,20.926l49.805-10.75l-17.832-19.826
				L143.853,282.963z"/>
			<path style="clip-path:url(#XMLID_2_);fill:#737373;" d="M323.114,112.098l25.033,11.007l1.678-52.302l-25.789-8.515
				L323.114,112.098z"/>
			<path style="clip-path:url(#XMLID_2_);fill:#737373;" d="M235.359,219.576l20.232,16.886l-0.925-49.115l-20.722-14.721
				L235.359,219.576z"/>
			<path style="clip-path:url(#XMLID_2_);fill:#EDEDED;" d="M53.762,393.302l10.588,27.132l52.407-13.938l-13.032-25.705
				L53.762,393.302z"/>
			<path style="clip-path:url(#XMLID_2_);fill:#737373;" d="M366.99,58.36l27.434,8.067l2.979-53.896l-28.322-5.413L366.99,58.36z"
				/>
			<path style="clip-path:url(#XMLID_2_);fill:#EDEDED;" d="M324.035,62.286l25.789,8.515l44.6-4.375L366.99,58.36L324.035,62.286z"
				/>
			<path style="clip-path:url(#XMLID_2_);fill:#737373;" d="M147.604,327.053l15.432,22.766l-3.527-45.927l-15.655-20.926
				L147.604,327.053z"/>
			<path style="clip-path:url(#XMLID_2_);fill:#EDEDED;" d="M98.808,338.133l13.122,24.029l51.106-12.344l-15.432-22.766
				L98.808,338.133z"/>
			<path style="clip-path:url(#XMLID_2_);fill:#EDEDED;" d="M278.99,117.456l23.255,11.618l45.901-5.968l-25.033-11.007
				L278.99,117.456z"/>
			<path style="clip-path:url(#XMLID_2_);fill:#EDEDED;" d="M233.945,172.625l20.722,14.721l47.202-7.562l-22.633-13.947
				L233.945,172.625z"/>
			<path style="clip-path:url(#XMLID_2_);fill:#737373;" d="M279.236,165.837l22.633,13.947l0.376-50.708l-23.255-11.618
				L279.236,165.837z"/>
			<path style="clip-path:url(#XMLID_2_);fill:#EDEDED;" d="M98.808,338.135l13.122,24.029l-54.063,13.058l-10.523-25.4
				L98.808,338.135z"/>
			<path style="clip-path:url(#XMLID_2_);fill:#737373;" d="M232.453,123.108l21.235,12.281l0.979,51.957l-20.722-14.721
				L232.453,123.108z"/>
			<path style="clip-path:url(#XMLID_2_);fill:#EDEDED;" d="M278.99,117.458l23.255,11.618l-48.557,6.313l-21.235-12.281
				L278.99,117.458z"/>
			<path style="clip-path:url(#XMLID_2_);fill:#EDEDED;" d="M369.081,7.119l28.322,5.413l-45.804,2.941l-26.591-5.721L369.081,7.119
				z"/>
			<path style="clip-path:url(#XMLID_2_);fill:#EDEDED;" d="M143.853,282.965l15.655,20.926l-52.687,11.372L93.62,293.143
				L143.853,282.965z"/>
			<path style="clip-path:url(#XMLID_2_);fill:#737373;" d="M47.343,349.821l10.523,25.4l6.485,45.213l-10.588-27.132
				L47.343,349.821z"/>
			<path style="clip-path:url(#XMLID_2_);fill:#737373;" d="M93.62,293.143l13.201,22.121l5.108,46.899l-13.122-24.029
				L93.62,293.143z"/>
			<path style="clip-path:url(#XMLID_2_);fill:#EDEDED;" d="M324.035,62.288l25.789,8.515l-47.18,4.627l-23.913-9.001
				L324.035,62.288z"/>
			<path style="clip-path:url(#XMLID_2_);fill:#737373;" d="M325.008,9.751l26.591,5.721l-1.775,55.329l-25.789-8.515L325.008,9.751
				z"/>
			<path style="clip-path:url(#XMLID_2_);fill:#EDEDED;" d="M233.945,172.626l20.722,14.721l-49.934,8l-18.557-15.561
				L233.945,172.626z"/>
			<path style="clip-path:url(#XMLID_2_);fill:#737373;" d="M139.898,236.464l15.879,18.841l3.731,48.584l-15.655-20.926
				L139.898,236.464z"/>
			<path style="clip-path:url(#XMLID_2_);fill:#737373;" d="M278.731,66.43l23.913,9.001l-0.398,53.643l-23.255-11.618
				L278.731,66.43z"/>
			<path style="clip-path:url(#XMLID_2_);fill:#EDEDED;" d="M188.899,227.796l18.189,17.823l-51.311,9.686l-15.879-18.841
				L188.899,227.796z"/>
			<path style="clip-path:url(#XMLID_2_);fill:#737373;" d="M186.176,179.786l18.557,15.561l2.355,50.271l-18.188-17.823
				L186.176,179.786z"/>
			<path style="clip-path:url(#XMLID_2_);fill:#EDEDED;" d="M47.343,349.819l10.523,25.4l54.064-13.058l-13.122-24.029
				L47.343,349.819z"/>
			<path style="clip-path:url(#XMLID_2_);fill:#737373;" d="M143.853,282.964l15.655,20.926l-3.732-48.585l-15.879-18.841
				L143.853,282.964z"/>
			<path style="clip-path:url(#XMLID_2_);fill:#EDEDED;" d="M186.176,179.785l18.557,15.561l49.934-8l-20.722-14.721
				L186.176,179.785z"/>
			<path style="clip-path:url(#XMLID_2_);fill:#737373;" d="M233.944,172.625l20.722,14.721l-0.978-51.957l-21.235-12.281
				L233.944,172.625z"/>
			<path style="clip-path:url(#XMLID_2_);fill:#EDEDED;" d="M232.453,123.106l21.235,12.281l48.557-6.313l-23.255-11.618
				L232.453,123.106z"/>
			<path style="clip-path:url(#XMLID_2_);fill:#737373;" d="M98.807,338.133l13.122,24.029l-5.108-46.899L93.62,293.143
				L98.807,338.133z"/>
			<path style="clip-path:url(#XMLID_2_);fill:#EDEDED;" d="M93.62,293.141l13.201,22.121l52.688-11.372l-15.655-20.926
				L93.62,293.141z"/>
			<path style="clip-path:url(#XMLID_2_);fill:#EDEDED;" d="M139.898,236.463l15.879,18.841l51.31-9.686l-18.188-17.823
				L139.898,236.463z"/>
			<path style="clip-path:url(#XMLID_2_);fill:#737373;" d="M278.99,117.456l23.255,11.618l0.398-53.643L278.73,66.43
				L278.99,117.456z"/>
			<path style="clip-path:url(#XMLID_2_);fill:#737373;" d="M324.035,62.286l25.789,8.515l1.775-55.329l-26.591-5.721
				L324.035,62.286z"/>
			<path style="clip-path:url(#XMLID_2_);fill:#EDEDED;" d="M278.731,66.428l23.913,9.001l47.181-4.628l-25.789-8.515
				L278.731,66.428z"/>
			<path style="clip-path:url(#XMLID_2_);fill:#737373;" d="M188.899,227.794l18.188,17.823l-2.355-50.271l-18.557-15.561
				L188.899,227.794z"/>
			<path style="clip-path:url(#XMLID_2_);fill:#EDEDED;" d="M139.898,236.464l15.879,18.841l-54.368,10.263L88.14,245.62
				L139.898,236.464z"/>
			<path style="clip-path:url(#XMLID_2_);fill:#EDEDED;" d="M93.62,293.143l13.201,22.121l-55.827,12.05l-10.433-23.42
				L93.62,293.143z"/>
			<path style="clip-path:url(#XMLID_2_);fill:#EDEDED;" d="M186.175,179.786l18.557,15.561l-52.909,8.476l-16.104-16.475
				L186.175,179.786z"/>
			<path style="clip-path:url(#XMLID_2_);fill:#737373;" d="M278.456,12.532l24.609,6.057l-0.422,56.84l-23.913-9.001
				L278.456,12.532z"/>
			<path style="clip-path:url(#XMLID_2_);fill:#737373;" d="M40.562,303.893l10.433,23.42l6.871,47.907l-10.523-25.4L40.562,303.893
				z"/>
			<path style="clip-path:url(#XMLID_2_);fill:#737373;" d="M135.719,187.348l16.104,16.475l3.954,51.48l-15.879-18.841
				L135.719,187.348z"/>
			<path style="clip-path:url(#XMLID_2_);fill:#737373;" d="M88.14,245.62l13.268,19.948l5.413,49.694L93.62,293.141L88.14,245.62z"
				/>
			<path style="clip-path:url(#XMLID_2_);fill:#737373;" d="M183.299,129.076l18.938,13.002l2.496,53.267l-18.557-15.561
				L183.299,129.076z"/>
			<path style="clip-path:url(#XMLID_2_);fill:#EDEDED;" d="M325.008,9.751l26.591,5.721l-48.534,3.117l-24.609-6.057L325.008,9.751
				z"/>
			<path style="clip-path:url(#XMLID_2_);fill:#EDEDED;" d="M278.73,66.43l23.914,9.001l-49.992,4.903l-21.774-9.53L278.73,66.43z"
				/>
			<path style="clip-path:url(#XMLID_2_);fill:#EDEDED;" d="M232.453,123.108l21.235,12.281l-51.451,6.69l-18.938-13.002
				L232.453,123.108z"/>
			<path style="clip-path:url(#XMLID_2_);fill:#737373;" d="M230.878,70.804l21.774,9.53l1.037,55.053l-21.235-12.281
				L230.878,70.804z"/>
			<path style="clip-path:url(#XMLID_2_);fill:#EDEDED;" d="M40.561,303.891l10.433,23.42l55.827-12.05L93.62,293.141
				L40.561,303.891z"/>
			<path style="clip-path:url(#XMLID_2_);fill:#EDEDED;" d="M135.719,187.347l16.104,16.475l52.909-8.477l-18.557-15.561
				L135.719,187.347z"/>
			<path style="clip-path:url(#XMLID_2_);fill:#EDEDED;" d="M183.299,129.074l18.938,13.003l51.451-6.69l-21.235-12.281
				L183.299,129.074z"/>
			<path style="clip-path:url(#XMLID_2_);fill:#EDEDED;" d="M88.14,245.619l13.268,19.948l54.368-10.263l-15.879-18.841
				L88.14,245.619z"/>
			<path style="clip-path:url(#XMLID_2_);fill:#737373;" d="M139.897,236.463l15.879,18.841l-3.954-51.48l-16.103-16.476
				L139.897,236.463z"/>
			<path style="clip-path:url(#XMLID_2_);fill:#737373;" d="M278.73,66.428l23.914,9.001l0.422-56.84l-24.609-6.058L278.73,66.428z"
				/>
			<path style="clip-path:url(#XMLID_2_);fill:#737373;" d="M186.175,179.785l18.557,15.561l-2.495-53.267l-18.939-13.002
				L186.175,179.785z"/>
			<path style="clip-path:url(#XMLID_2_);fill:#EDEDED;" d="M230.878,70.802l21.774,9.53l49.992-4.903l-23.914-9.001L230.878,70.802
				z"/>
			<path style="clip-path:url(#XMLID_2_);fill:#737373;" d="M232.453,123.106l21.235,12.281l-1.037-55.053l-21.774-9.53
				L232.453,123.106z"/>
			<path style="clip-path:url(#XMLID_2_);fill:#737373;" d="M93.62,293.141l13.201,22.121l-5.413-49.693L88.14,245.621
				L93.62,293.141z"/>
			<path style="clip-path:url(#XMLID_2_);fill:#737373;" d="M180.255,75.432l19.333,10.107l2.648,56.539l-18.938-13.003
				L180.255,75.432z"/>
			<path style="clip-path:url(#XMLID_2_);fill:#EDEDED;" d="M135.719,187.348l16.103,16.476l-56.159,8.997l-13.319-17.472
				L135.719,187.348z"/>
			<path style="clip-path:url(#XMLID_2_);fill:#EDEDED;" d="M183.298,129.076l18.939,13.002l-54.611,7.101L131.3,135.39
				L183.298,129.076z"/>
			<path style="clip-path:url(#XMLID_2_);fill:#EDEDED;" d="M88.14,245.621l13.268,19.948l-57.708,10.893l-10.312-21.155
				L88.14,245.621z"/>
			<path style="clip-path:url(#XMLID_2_);fill:#737373;" d="M33.388,255.306l10.312,21.155l7.293,50.85l-10.433-23.42
				L33.388,255.306z"/>
			<path style="clip-path:url(#XMLID_2_);fill:#EDEDED;" d="M230.877,70.804l21.774,9.53l-53.063,5.205l-19.333-10.107
				L230.877,70.804z"/>
			<path style="clip-path:url(#XMLID_2_);fill:#737373;" d="M82.344,195.348l13.319,17.472l5.745,52.746L88.14,245.619
				L82.344,195.348z"/>
			<path style="clip-path:url(#XMLID_2_);fill:#737373;" d="M131.3,135.39l16.327,13.79l4.197,54.642l-16.104-16.475L131.3,135.39z"
				/>
			<path style="clip-path:url(#XMLID_2_);fill:#737373;" d="M229.211,15.474l22.341,6.424l1.1,58.435l-21.774-9.53L229.211,15.474z"
				/>
			<path style="clip-path:url(#XMLID_2_);fill:#EDEDED;" d="M278.456,12.532l24.609,6.058l-51.514,3.308l-22.341-6.424
				L278.456,12.532z"/>
			<path style="clip-path:url(#XMLID_2_);fill:#737373;" d="M88.14,245.619l13.268,19.948l-5.745-52.746l-13.319-17.473
				L88.14,245.619z"/>
			<path style="clip-path:url(#XMLID_2_);fill:#737373;" d="M135.719,187.347l16.104,16.475l-4.197-54.642l-16.327-13.79
				L135.719,187.347z"/>
			<path style="clip-path:url(#XMLID_2_);fill:#EDEDED;" d="M82.344,195.346l13.32,17.473l56.159-8.997l-16.104-16.475
				L82.344,195.346z"/>
			<path style="clip-path:url(#XMLID_2_);fill:#EDEDED;" d="M131.3,135.388l16.326,13.79l54.611-7.101l-18.939-13.002L131.3,135.388
				z"/>
			<path style="clip-path:url(#XMLID_2_);fill:#737373;" d="M230.877,70.802l21.774,9.53l-1.101-58.435l-22.34-6.424L230.877,70.802
				z"/>
			<path style="clip-path:url(#XMLID_2_);fill:#737373;" d="M183.298,129.075l18.939,13.002l-2.648-56.539l-19.333-10.107
				L183.298,129.075z"/>
			<path style="clip-path:url(#XMLID_2_);fill:#EDEDED;" d="M180.255,75.43l19.333,10.107l53.063-5.205l-21.774-9.53L180.255,75.43z
				"/>
			<path style="clip-path:url(#XMLID_2_);fill:#EDEDED;" d="M33.388,255.305L43.7,276.46l57.708-10.893L88.14,245.619
				L33.388,255.305z"/>
			<path style="clip-path:url(#XMLID_2_);fill:#FFFFFF;" d="M9.144,91.077l8.58,58.116l58.493-7.102l-6.52-56.55L9.144,91.077z"/>
			<path style="clip-path:url(#XMLID_2_);fill:#737373;" d="M126.616,80.335l16.547,10.738l4.462,58.105l-16.326-13.79
				L126.616,80.335z"/>
			<path style="clip-path:url(#XMLID_2_);fill:#EDEDED;" d="M180.255,75.432l19.333,10.107l-56.425,5.534l-16.547-10.738
				L180.255,75.432z"/>
			<path style="clip-path:url(#XMLID_2_);fill:#737373;" d="M76.202,142.08l13.352,14.651l6.109,56.088l-13.32-17.473L76.202,142.08
				z"/>
			<path style="clip-path:url(#XMLID_2_);fill:#EDEDED;" d="M229.211,15.473l22.34,6.424l-54.779,3.518l-19.742-6.825
				L229.211,15.473z"/>
			<path style="clip-path:url(#XMLID_2_);fill:#737373;" d="M177.031,18.59l19.742,6.825l2.816,60.121L180.255,75.43L177.031,18.59z
				"/>
			<path style="clip-path:url(#XMLID_2_);fill:#EDEDED;" d="M131.299,135.39l16.327,13.79l-58.072,7.551L76.202,142.08
				L131.299,135.39z"/>
			<path style="clip-path:url(#XMLID_2_);fill:#737373;" d="M25.787,203.825l10.158,18.563L43.7,276.46l-10.312-21.155
				L25.787,203.825z"/>
			<path style="clip-path:url(#XMLID_2_);fill:#EDEDED;" d="M82.344,195.348l13.319,17.473l-59.718,9.567l-10.158-18.563
				L82.344,195.348z"/>
			<path style="clip-path:url(#XMLID_2_);fill:#737373;" d="M82.344,195.347l13.319,17.472l-6.109-56.088l-13.352-14.65
				L82.344,195.347z"/>
			<path style="clip-path:url(#XMLID_2_);fill:#EDEDED;" d="M25.787,203.823l10.157,18.563l59.718-9.567l-13.319-17.472
				L25.787,203.823z"/>
			<path style="clip-path:url(#XMLID_2_);fill:#737373;" d="M131.299,135.388l16.327,13.79l-4.463-58.105l-16.547-10.738
				L131.299,135.388z"/>
			<path style="clip-path:url(#XMLID_2_);fill:#EDEDED;" d="M76.201,142.078l13.353,14.65l58.072-7.551l-16.327-13.79
				L76.201,142.078z"/>
			<path style="clip-path:url(#XMLID_2_);fill:#EDEDED;" d="M126.616,80.333l16.547,10.738l56.425-5.534L180.255,75.43
				L126.616,80.333z"/>
			<path style="clip-path:url(#XMLID_2_);fill:#737373;" d="M180.255,75.43l19.333,10.107l-2.816-60.121L177.03,18.59L180.255,75.43
				z"/>
			<path style="clip-path:url(#XMLID_2_);fill:#FFFFFF;" d="M0.004,29.169l9.142,61.92l60.552-5.536L62.765,25.42L0.004,29.169z"/>
			<path style="clip-path:url(#XMLID_2_);fill:#737373;" d="M69.682,85.54l13.362,11.43l6.509,59.759l-13.353-14.65L69.682,85.54z"
				/>
			<path style="clip-path:url(#XMLID_2_);fill:#737373;" d="M121.645,21.898l16.763,7.265l4.755,61.907l-16.547-10.738
				L121.645,21.898z"/>
			<path style="clip-path:url(#XMLID_2_);fill:#EDEDED;" d="M76.201,142.08l13.352,14.65l-61.872,8.045l-9.962-15.595L76.201,142.08
				z"/>
			<path style="clip-path:url(#XMLID_2_);fill:#EDEDED;" d="M126.616,80.335l16.547,10.738l-60.118,5.897L69.682,85.54
				L126.616,80.335z"/>
			<path style="clip-path:url(#XMLID_2_);fill:#737373;" d="M17.719,149.181l9.962,15.595l8.263,57.611l-10.157-18.563
				L17.719,149.181z"/>
			<path style="clip-path:url(#XMLID_2_);fill:#EDEDED;" d="M177.03,18.59l19.742,6.825l-58.364,3.748l-16.763-7.265L177.03,18.59z"
				/>
			<path style="clip-path:url(#XMLID_2_);fill:#EDEDED;" d="M17.719,149.179l9.962,15.595l61.872-8.045l-13.353-14.65
				L17.719,149.179z"/>
			<path style="clip-path:url(#XMLID_2_);fill:#737373;" d="M76.201,142.078l13.353,14.65l-6.509-59.759L69.682,85.54
				L76.201,142.078z"/>
			<path style="clip-path:url(#XMLID_2_);fill:#737373;" d="M126.615,80.333l16.547,10.738l-4.755-61.907l-16.763-7.265
				L126.615,80.333z"/>
			<path style="clip-path:url(#XMLID_2_);fill:#EDEDED;" d="M69.682,85.538l13.363,11.43l60.118-5.896l-16.547-10.738L69.682,85.538
				z"/>
			<path style="clip-path:url(#XMLID_2_);fill:#737373;" d="M62.75,25.417l13.346,7.749l6.949,63.802l-13.363-11.43L62.75,25.417z"
				/>
			<path style="clip-path:url(#XMLID_2_);fill:#737373;" d="M9.141,91.074l9.719,12.191l8.822,61.509l-9.962-15.595L9.141,91.074z"
				/>
			<path style="clip-path:url(#XMLID_2_);fill:#EDEDED;" d="M121.645,21.898l16.763,7.265l-62.312,4.002L62.75,25.417
				L121.645,21.898z"/>
			<path style="clip-path:url(#XMLID_2_);fill:#EDEDED;" d="M69.682,85.54l13.362,11.43l-64.185,6.295L9.141,91.074L69.682,85.54z"
				/>
			<path style="clip-path:url(#XMLID_2_);fill:#EDEDED;" d="M9.14,91.072l9.719,12.191l64.185-6.295l-13.362-11.43L9.14,91.072z"/>
			<path style="clip-path:url(#XMLID_2_);fill:#737373;" d="M69.682,85.538l13.362,11.43l-6.949-63.802l-13.346-7.749L69.682,85.538
				z"/>
			<path style="clip-path:url(#XMLID_2_);fill:#EDEDED;" d="M62.749,25.417l13.346,7.749L9.419,37.447L0,29.165L62.749,25.417z"/>
			<path style="clip-path:url(#XMLID_2_);fill:#737373;" d="M0,29.165l9.419,8.282l9.44,65.816L9.14,91.072L0,29.165z"/>
		</g>
	</g>
</svg>
