<?xml version="1.0" encoding="UTF-8" standalone="no"?>
<!-- Generator: Adobe Illustrator 10, SVG Export Plug-In . SVG Version: 3.0.0 Build 76)  -->
<svg
   xmlns:dc="http://purl.org/dc/elements/1.1/"
   xmlns:cc="http://creativecommons.org/ns#"
   xmlns:rdf="http://www.w3.org/1999/02/22-rdf-syntax-ns#"
   xmlns:svg="http://www.w3.org/2000/svg"
   xmlns="http://www.w3.org/2000/svg"
   xmlns:xlink="http://www.w3.org/1999/xlink"
   xmlns:sodipodi="http://sodipodi.sourceforge.net/DTD/sodipodi-0.dtd"
   xmlns:inkscape="http://www.inkscape.org/namespaces/inkscape"
   width="521"
   height="464"
   viewBox="0 0 531.051 545.022"
   style="overflow:visible"
   xml:space="preserve"
   id="svg2"
   sodipodi:version="0.32"
   inkscape:version="0.46"
   sodipodi:docname="Cells.svg"
   inkscape:output_extension="org.inkscape.output.svg.inkscape"
   version="1.0"><metadata
   id="metadata836"><rdf:RDF><cc:Work
       rdf:about=""><dc:format>image/svg+xml</dc:format><dc:type
         rdf:resource="http://purl.org/dc/dcmitype/StillImage" /></cc:Work></rdf:RDF></metadata><defs
   id="defs834"><inkscape:perspective
   sodipodi:type="inkscape:persp3d"
   inkscape:vp_x="0 : 272.51099 : 1"
   inkscape:vp_y="0 : 1000 : 0"
   inkscape:vp_z="531.05103 : 272.51099 : 1"
   inkscape:persp3d-origin="265.52551 : 181.67399 : 1"
   id="perspective838" />
		
		
	</defs><sodipodi:namedview
   inkscape:window-height="682"
   inkscape:window-width="855"
   inkscape:pageshadow="2"
   inkscape:pageopacity="0.0"
   guidetolerance="10.0"
   gridtolerance="10.0"
   objecttolerance="10.0"
   borderopacity="1.0"
   bordercolor="#666666"
   pagecolor="#ffffff"
   id="base"
   showgrid="false"
   inkscape:zoom="0.99314309"
   inkscape:cx="270.77002"
   inkscape:cy="365.68417"
   inkscape:window-x="0"
   inkscape:window-y="25"
   inkscape:current-layer="svg2" />
	<style
   type="text/css"
   id="style4">
	
		@font-face{font-family:'Times-Roman';src:url(53C27F79.cef)}
	
	</style>
	
<g
   transform="matrix(1.1746164,0,0,1.1746164,-52.782618,0.9678743)"
   style="overflow:visible"
   id="g23">
			<defs
   id="defs25">
				<path
   d="M 420,356.087 L 420,32.087 L 96,32.087 L 96,356.087 L 420,356.087 z"
   id="XMLID_1_" />
			</defs>
			<clipPath
   id="XMLID_2_">
				<use
   height="545.02197"
   width="531.05103"
   y="0"
   x="0"
   id="use29"
   xlink:href="#XMLID_1_" />
			</clipPath>
			<g
   id="g31">
				<path
   id="path33"
   d="M 36.279,203.825 L 43.881,255.316 L 98.643,245.628 L 92.846,195.347 L 36.279,203.825 z"
   style="fill:#424242" />
				<path
   id="path35"
   d="M 28.212,149.182 L 36.281,203.835 L 92.847,195.357 L 86.704,142.08 L 28.212,149.182 z"
   style="fill:#424242" />
				<path
   id="path37"
   d="M 366.908,317.517 L 365.418,354.081 L 400.336,344.56 L 402.561,308.591 L 366.908,317.517 z"
   style="fill:#424242" />
				<path
   id="path39"
   d="M 329.627,326.852 L 328.939,364.027 L 365.424,354.08 L 366.915,317.516 L 329.627,326.852 z"
   style="fill:#424242" />
				<path
   id="path41"
   d="M 368.469,279.283 L 366.908,317.525 L 402.56,308.598 L 404.885,271.013 L 368.469,279.283 z"
   style="fill:#424242" />
				<path
   id="path43"
   d="M 370.102,239.251 L 368.469,279.29 L 404.886,271.02 L 407.317,231.71 L 370.102,239.251 z"
   style="fill:#424242" />
				<path
   id="path45"
   d="M 330.348,287.939 L 329.627,326.86 L 366.916,317.523 L 368.477,279.281 L 330.348,287.939 z"
   style="fill:#424242" />
				<path
   id="path47"
   d="M 371.812,197.293 L 370.101,239.259 L 407.316,231.719 L 409.863,190.562 L 371.812,197.293 z"
   style="fill:#424242" />
				<path
   id="path49"
   d="M 331.103,247.152 L 330.348,287.947 L 368.477,279.289 L 370.11,239.25 L 331.103,247.152 z"
   style="fill:#424242" />
				<path
   id="path51"
   d="M 290.394,297.011 L 290.594,336.634 L 329.636,326.859 L 330.357,287.937 L 290.394,297.011 z"
   style="fill:#424242" />
				<path
   id="path53"
   d="M 331.895,204.355 L 331.103,247.161 L 370.11,239.259 L 371.822,197.293 L 331.895,204.355 z"
   style="fill:#424242" />
				<path
   id="path55"
   d="M 290.182,255.443 L 290.394,297.019 L 330.357,287.945 L 331.112,247.151 L 290.182,255.443 z"
   style="fill:#424242" />
				<path
   id="path57"
   d="M 373.609,153.267 L 371.812,197.302 L 409.862,190.571 L 412.531,147.433 L 373.609,153.267 z"
   style="fill:#424242" />
				<path
   id="path59"
   d="M 248.468,306.531 L 249.683,346.878 L 290.602,336.633 L 290.401,297.01 L 248.468,306.531 z"
   style="fill:#424242" />
				<path
   id="path61"
   d="M 289.96,211.774 L 290.182,255.452 L 331.111,247.16 L 331.905,204.354 L 289.96,211.774 z"
   style="fill:#424242" />
				<path
   id="path63"
   d="M 375.496,107.015 L 373.609,153.276 L 412.53,147.443 L 415.331,102.178 L 375.496,107.015 z"
   style="fill:#424242" />
				<path
   id="path65"
   d="M 247.191,264.153 L 248.467,306.54 L 290.401,297.018 L 290.189,255.443 L 247.191,264.153 z"
   style="fill:#424242" />
				<path
   id="path67"
   d="M 332.728,159.394 L 331.895,204.364 L 371.821,197.302 L 373.618,153.267 L 332.728,159.394 z"
   style="fill:#424242" />
				<path
   id="path69"
   d="M 204.423,316.533 L 206.754,357.628 L 249.691,346.877 L 248.476,306.53 L 204.423,316.533 z"
   style="fill:#424242" />
				<path
   id="path71"
   d="M 201.972,273.315 L 204.424,316.541 L 248.477,306.539 L 247.201,264.152 L 201.972,273.315 z"
   style="fill:#424242" />
				<path
   id="path73"
   d="M 377.48,58.364 L 375.496,107.025 L 415.33,102.188 L 418.272,54.635 L 377.48,58.364 z"
   style="fill:#424242" />
				<path
   id="path75"
   d="M 289.727,165.839 L 289.96,211.782 L 331.903,204.362 L 332.736,159.392 L 289.727,165.839 z"
   style="fill:#424242" />
				<path
   id="path77"
   d="M 333.603,112.102 L 332.728,159.404 L 373.618,153.276 L 375.505,107.015 L 333.603,112.102 z"
   style="fill:#424242" />
				<path
   id="path79"
   d="M 245.849,219.577 L 247.192,264.161 L 290.19,255.45 L 289.969,211.772 L 245.849,219.577 z"
   style="fill:#424242" />
				<path
   id="path81"
   d="M 158.094,327.052 L 161.656,368.92 L 206.763,357.625 L 204.432,316.53 L 158.094,327.052 z"
   style="fill:#424242" />
				<path
   id="path83"
   d="M 379.57,7.122 L 377.48,58.373 L 418.271,54.644 L 421.365,4.625 L 379.57,7.122 z"
   style="fill:#424242" />
				<path
   id="path85"
   d="M 244.435,172.627 L 245.85,219.585 L 289.97,211.78 L 289.737,165.837 L 244.435,172.627 z"
   style="fill:#424242" />
				<path
   id="path87"
   d="M 154.344,282.964 L 158.095,327.061 L 204.433,316.539 L 201.981,273.313 L 154.344,282.964 z"
   style="fill:#424242" />
				<path
   id="path89"
   d="M 334.525,62.291 L 333.602,112.111 L 375.503,107.024 L 377.488,58.363 L 334.525,62.291 z"
   style="fill:#424242" />
				<path
   id="path91"
   d="M 199.389,227.795 L 201.972,273.323 L 247.201,264.159 L 245.858,219.575 L 199.389,227.795 z"
   style="fill:#424242" />
				<path
   id="path93"
   d="M 289.48,117.459 L 289.726,165.849 L 332.735,159.403 L 333.611,112.101 L 289.48,117.459 z"
   style="fill:#424242" />
				<path
   id="path95"
   d="M 104.111,293.141 L 109.299,338.141 L 158.104,327.059 L 154.354,282.962 L 104.111,293.141 z"
   style="fill:#424242" />
				<path
   id="path97"
   d="M 335.498,9.754 L 334.525,62.3 L 377.489,58.373 L 379.58,7.122 L 335.498,9.754 z"
   style="fill:#424242" />
				<path
   id="path99"
   d="M 289.221,66.432 L 289.481,117.469 L 333.612,112.111 L 334.535,62.291 L 289.221,66.432 z"
   style="fill:#424242" />
				<path
   id="path101"
   d="M 242.943,123.109 L 244.435,172.636 L 289.736,165.846 L 289.49,117.457 L 242.943,123.109 z"
   style="fill:#424242" />
				<path
   id="path103"
   d="M 150.388,236.464 L 154.345,282.973 L 201.982,273.322 L 199.399,227.795 L 150.388,236.464 z"
   style="fill:#424242" />
				<path
   id="path105"
   d="M 196.666,179.787 L 199.39,227.805 L 245.859,219.585 L 244.444,172.627 L 196.666,179.787 z"
   style="fill:#424242" />
				<path
   id="path107"
   d="M 146.21,187.349 L 150.389,236.474 L 199.399,227.804 L 196.675,179.786 L 146.21,187.349 z"
   style="fill:#424242" />
				<path
   id="path109"
   d="M 193.789,129.078 L 196.666,179.797 L 244.444,172.636 L 242.952,123.109 L 193.789,129.078 z"
   style="fill:#424242" />
				<path
   id="path111"
   d="M 98.631,245.62 L 104.111,293.15 L 154.354,282.972 L 150.398,236.462 L 98.631,245.62 z"
   style="fill:#424242" />
				<path
   id="path113"
   d="M 241.368,70.807 L 242.944,123.12 L 289.49,117.468 L 289.231,66.431 L 241.368,70.807 z"
   style="fill:#424242" />
				<path
   id="path115"
   d="M 288.946,12.536 L 289.22,66.443 L 334.533,62.3 L 335.506,9.755 L 288.946,12.536 z"
   style="fill:#424242" />
				<path
   id="path117"
   d="M 51.053,303.891 L 57.835,349.828 L 109.31,338.14 L 104.122,293.141 L 51.053,303.891 z"
   style="fill:#424242" />
				<path
   id="path119"
   d="M 92.835,195.349 L 98.632,245.63 L 150.399,236.473 L 146.22,187.348 L 92.835,195.349 z"
   style="fill:#424242" />
				<path
   id="path121"
   d="M 43.88,255.306 L 51.054,303.9 L 104.122,293.149 L 98.642,245.619 L 43.88,255.306 z"
   style="fill:#424242" />
				<path
   id="path123"
   d="M 239.701,15.477 L 241.368,70.817 L 289.231,66.442 L 288.957,12.535 L 239.701,15.477 z"
   style="fill:#424242" />
				<path
   id="path125"
   d="M 141.791,135.391 L 146.211,187.359 L 196.676,179.796 L 193.799,129.077 L 141.791,135.391 z"
   style="fill:#424242" />
				<path
   id="path127"
   d="M 190.746,75.434 L 193.79,129.088 L 242.954,123.119 L 241.378,70.807 L 190.746,75.434 z"
   style="fill:#424242" />
				<path
   id="path129"
   d="M 187.521,18.594 L 190.746,75.445 L 241.378,70.816 L 239.711,15.477 L 187.521,18.594 z"
   style="fill:#424242" />
				<path
   id="path131"
   d="M 137.107,80.337 L 141.791,135.401 L 193.799,129.086 L 190.756,75.433 L 137.107,80.337 z"
   style="fill:#424242" />
				<path
   id="path133"
   d="M 86.693,142.082 L 92.836,195.359 L 146.221,187.358 L 141.801,135.39 L 86.693,142.082 z"
   style="fill:#424242" />
				<path
   id="path135"
   d="M 80.174,85.542 L 86.694,142.092 L 141.802,135.401 L 137.118,80.338 L 80.174,85.542 z"
   style="fill:#424242" />
				<path
   id="path137"
   d="M 132.136,21.903 L 137.108,80.349 L 190.757,75.445 L 187.532,18.594 L 132.136,21.903 z"
   style="fill:#424242" />
				<path
   id="path139"
   d="M 73.242,25.421 L 80.176,85.554 L 137.12,80.348 L 132.149,21.902 L 73.242,25.421 z"
   style="fill:#424242" />
			</g>
			<path
   id="path141"
   d="M 436.668,300.05 L 433.772,335.444 L 465.843,326.699 L 469.353,291.867 L 436.668,300.05 z"
   style="fill:#424242;fill-opacity:1" />
			<path
   id="path143"
   d="M 433.771,335.436 L 458.256,354.073 L 491.173,344.554 L 465.837,326.694 L 433.771,335.436 z"
   style="fill:#ededed" />
			<path
   id="path145"
   d="M 465.838,326.694 L 491.174,344.554 L 495.393,308.592 L 469.346,291.868 L 465.838,326.694 z"
   style="fill:#737373" />
			<path
   id="path147"
   d="M 402.554,308.592 L 400.328,344.562 L 433.778,335.442 L 436.674,300.048 L 402.554,308.592 z"
   style="fill:#424242;fill-opacity:1" />
			<path
   id="path149"
   d="M 439.689,263.111 L 436.667,300.058 L 469.353,291.872 L 473.013,255.544 L 439.689,263.111 z"
   style="fill:#424242;fill-opacity:1" />
			<path
   id="path151"
   d="M 400.328,344.555 L 423.862,364.019 L 458.257,354.073 L 433.772,335.437 L 400.328,344.555 z"
   style="fill:#ededed" />
			<path
   id="path153"
   d="M 436.667,300.05 L 461.831,317.517 L 458.257,354.073 L 433.772,335.436 L 436.667,300.05 z"
   style="fill:#737373" />
			<path
   id="path155"
   d="M 433.771,335.437 L 458.256,354.073 L 461.83,317.517 L 436.666,300.051 L 433.771,335.437 z"
   style="fill:#737373" />
			<path
   id="path157"
   d="M 469.346,291.867 L 495.393,308.592 L 499.801,271.016 L 473.006,255.547 L 469.346,291.867 z"
   style="fill:#737373" />
			<path
   id="path159"
   d="M 469.346,291.869 L 495.393,308.593 L 461.831,317.518 L 436.667,300.051 L 469.346,291.869 z"
   style="fill:#ededed" />
			<path
   id="path161"
   d="M 436.667,300.05 L 461.831,317.517 L 495.393,308.591 L 469.346,291.866 L 436.667,300.05 z"
   style="fill:#ededed" />
			<path
   id="path163"
   d="M 442.848,224.513 L 439.69,263.119 L 473.012,255.552 L 476.832,217.629 L 442.848,224.513 z"
   style="fill:#424242;fill-opacity:1" />
			<path
   id="path165"
   d="M 404.878,271.015 L 402.553,308.599 L 436.674,300.056 L 439.697,263.109 L 404.878,271.015 z"
   style="fill:#424242;fill-opacity:1" />
			<path
   id="path167"
   d="M 436.667,300.051 L 461.831,317.517 L 426.728,326.852 L 402.552,308.593 L 436.667,300.051 z"
   style="fill:#ededed" />
			<path
   id="path169"
   d="M 439.689,263.111 L 465.57,279.283 L 461.831,317.517 L 436.667,300.05 L 439.689,263.111 z"
   style="fill:#737373" />
			<path
   id="path171"
   d="M 473.006,255.546 L 499.801,271.015 L 465.571,279.283 L 439.69,263.111 L 473.006,255.546 z"
   style="fill:#ededed" />
			<path
   id="path173"
   d="M 402.553,308.593 L 426.729,326.852 L 423.863,364.019 L 400.329,344.555 L 402.553,308.593 z"
   style="fill:#737373" />
			<path
   id="path175"
   d="M 402.553,308.591 L 426.73,326.852 L 461.832,317.517 L 436.668,300.05 L 402.553,308.591 z"
   style="fill:#ededed" />
			<path
   id="path177"
   d="M 400.328,344.555 L 423.862,364.019 L 426.728,326.853 L 402.552,308.593 L 400.328,344.555 z"
   style="fill:#737373" />
			<path
   id="path179"
   d="M 436.667,300.05 L 461.831,317.517 L 465.57,279.283 L 439.689,263.111 L 436.667,300.05 z"
   style="fill:#737373" />
			<path
   id="path181"
   d="M 365.418,354.074 L 387.889,374.423 L 423.863,364.02 L 400.329,344.556 L 365.418,354.074 z"
   style="fill:#ededed" />
			<path
   id="path183"
   d="M 439.689,263.11 L 465.57,279.281 L 499.8,271.013 L 473.005,255.544 L 439.689,263.11 z"
   style="fill:#ededed" />
			<path
   id="path185"
   d="M 473.006,255.544 L 499.801,271.013 L 504.411,231.712 L 476.825,217.629 L 473.006,255.544 z"
   style="fill:#737373" />
			<path
   id="path187"
   d="M 446.15,184.143 L 442.847,224.521 L 476.831,217.635 L 480.823,178.01 L 446.15,184.143 z"
   style="fill:#424242;fill-opacity:1" />
			<path
   id="path189"
   d="M 407.31,231.713 L 404.878,271.023 L 439.696,263.117 L 442.855,224.512 L 407.31,231.713 z"
   style="fill:#424242;fill-opacity:1" />
			<path
   id="path191"
   d="M 366.908,317.519 L 389.977,336.626 L 387.888,374.422 L 365.417,354.073 L 366.908,317.519 z"
   style="fill:#737373" />
			<path
   id="path193"
   d="M 404.878,271.015 L 429.732,287.939 L 426.73,326.852 L 402.553,308.591 L 404.878,271.015 z"
   style="fill:#737373" />
			<path
   id="path195"
   d="M 439.689,263.111 L 465.57,279.283 L 429.731,287.939 L 404.877,271.015 L 439.689,263.111 z"
   style="fill:#ededed" />
			<path
   id="path197"
   d="M 402.553,308.593 L 426.729,326.853 L 389.978,336.626 L 366.909,317.519 L 402.553,308.593 z"
   style="fill:#ededed" />
			<path
   id="path199"
   d="M 442.848,224.513 L 469.485,239.25 L 465.571,279.28 L 439.69,263.109 L 442.848,224.513 z"
   style="fill:#737373" />
			<path
   id="path201"
   d="M 476.825,217.629 L 504.411,231.712 L 469.484,239.25 L 442.847,224.513 L 476.825,217.629 z"
   style="fill:#ededed" />
			<path
   id="path203"
   d="M 365.418,354.074 L 387.889,374.423 L 389.978,336.628 L 366.909,317.52 L 365.418,354.074 z"
   style="fill:#737373" />
			<path
   id="path205"
   d="M 328.939,364.02 L 350.223,385.314 L 387.888,374.422 L 365.417,354.073 L 328.939,364.02 z"
   style="fill:#ededed" />
			<path
   id="path207"
   d="M 402.553,308.592 L 426.73,326.852 L 429.732,287.939 L 404.878,271.016 L 402.553,308.592 z"
   style="fill:#737373" />
			<path
   id="path209"
   d="M 366.908,317.517 L 389.977,336.625 L 426.729,326.852 L 402.552,308.592 L 366.908,317.517 z"
   style="fill:#ededed" />
			<path
   id="path211"
   d="M 439.689,263.11 L 465.57,279.282 L 469.484,239.252 L 442.847,224.514 L 439.689,263.11 z"
   style="fill:#737373" />
			<path
   id="path213"
   d="M 476.825,217.628 L 504.411,231.711 L 509.238,190.563 L 480.816,178.01 L 476.825,217.628 z"
   style="fill:#737373" />
			<path
   id="path215"
   d="M 404.878,271.015 L 429.732,287.937 L 465.571,279.282 L 439.69,263.11 L 404.878,271.015 z"
   style="fill:#ededed" />
			<path
   id="path217"
   d="M 442.848,224.512 L 469.486,239.25 L 504.412,231.712 L 476.826,217.629 L 442.848,224.512 z"
   style="fill:#ededed" />
			<path
   id="path219"
   d="M 290.594,336.626 L 290.786,374.429 L 328.947,364.025 L 329.635,326.851 L 290.594,336.626 z"
   style="fill:#424242;fill-opacity:1" />
			<path
   id="path221"
   d="M 409.855,190.564 L 407.309,231.721 L 442.854,224.519 L 446.158,184.142 L 409.855,190.564 z"
   style="fill:#424242;fill-opacity:1" />
			<path
   id="path223"
   d="M 449.609,141.876 L 446.15,184.151 L 480.823,178.017 L 484.999,136.572 L 449.609,141.876 z"
   style="fill:#424242;fill-opacity:1" />
			<path
   id="path225"
   d="M 366.908,317.519 L 389.977,336.627 L 351.456,346.87 L 329.626,326.852 L 366.908,317.519 z"
   style="fill:#ededed" />
			<path
   id="path227"
   d="M 329.627,326.852 L 351.457,346.87 L 389.978,336.626 L 366.909,317.518 L 329.627,326.852 z"
   style="fill:#ededed" />
			<path
   id="path229"
   d="M 368.469,279.283 L 392.168,297.012 L 389.978,336.626 L 366.909,317.518 L 368.469,279.283 z"
   style="fill:#737373" />
			<path
   id="path231"
   d="M 366.908,317.517 L 389.977,336.625 L 392.167,297.011 L 368.468,279.283 L 366.908,317.517 z"
   style="fill:#737373" />
			<path
   id="path233"
   d="M 442.848,224.513 L 469.485,239.251 L 432.878,247.151 L 407.311,231.713 L 442.848,224.513 z"
   style="fill:#ededed" />
			<path
   id="path235"
   d="M 407.31,231.712 L 432.877,247.151 L 469.485,239.25 L 442.847,224.512 L 407.31,231.712 z"
   style="fill:#ededed" />
			<path
   id="path237"
   d="M 407.31,231.713 L 432.877,247.151 L 429.731,287.936 L 404.877,271.014 L 407.31,231.713 z"
   style="fill:#737373" />
			<path
   id="path239"
   d="M 404.878,271.015 L 429.732,287.937 L 432.878,247.152 L 407.311,231.714 L 404.878,271.015 z"
   style="fill:#737373" />
			<path
   id="path241"
   d="M 404.878,271.016 L 429.732,287.939 L 392.169,297.011 L 368.47,279.282 L 404.878,271.016 z"
   style="fill:#ededed" />
			<path
   id="path243"
   d="M 368.469,279.283 L 392.168,297.011 L 429.731,287.938 L 404.877,271.016 L 368.469,279.283 z"
   style="fill:#ededed" />
			<path
   id="path245"
   d="M 446.15,184.143 L 473.588,197.292 L 469.485,239.249 L 442.847,224.511 L 446.15,184.143 z"
   style="fill:#737373" />
			<path
   id="path247"
   d="M 442.848,224.512 L 469.486,239.25 L 473.589,197.293 L 446.151,184.144 L 442.848,224.512 z"
   style="fill:#737373" />
			<path
   id="path249"
   d="M 480.816,178.01 L 509.238,190.563 L 473.588,197.292 L 446.15,184.143 L 480.816,178.01 z"
   style="fill:#ededed" />
			<path
   id="path251"
   d="M 446.15,184.142 L 473.588,197.291 L 509.238,190.562 L 480.816,178.01 L 446.15,184.142 z"
   style="fill:#ededed" />
			<path
   id="path253"
   d="M 290.786,374.422 L 310.747,396.729 L 350.224,385.314 L 328.94,364.021 L 290.786,374.422 z"
   style="fill:#ededed" />
			<path
   id="path255"
   d="M 480.816,178.009 L 509.238,190.561 L 514.298,147.433 L 484.991,136.573 L 480.816,178.009 z"
   style="fill:#737373" />
			<path
   id="path257"
   d="M 328.939,364.021 L 350.223,385.314 L 351.456,346.871 L 329.626,326.854 L 328.939,364.021 z"
   style="fill:#737373" />
			<path
   id="path259"
   d="M 329.627,326.853 L 351.457,346.871 L 350.224,385.314 L 328.94,364.02 L 329.627,326.853 z"
   style="fill:#737373" />
			<path
   id="path261"
   d="M 249.683,346.871 L 250.841,385.322 L 290.794,374.427 L 290.603,336.624 L 249.683,346.871 z"
   style="fill:#424242;fill-opacity:1" />
			<path
   id="path263"
   d="M 453.233,97.576 L 449.607,141.886 L 484.998,136.582 L 489.369,93.189 L 453.233,97.576 z"
   style="fill:#424242;fill-opacity:1" />
			<path
   id="path265"
   d="M 412.523,147.435 L 409.854,190.573 L 446.157,184.151 L 449.616,141.876 L 412.523,147.435 z"
   style="fill:#424242;fill-opacity:1" />
			<path
   id="path267"
   d="M 484.991,136.573 L 514.298,147.433 L 477.893,153.265 L 449.609,141.875 L 484.991,136.573 z"
   style="fill:#ededed" />
			<path
   id="path269"
   d="M 409.855,190.564 L 436.178,204.354 L 432.876,247.151 L 407.309,231.712 L 409.855,190.564 z"
   style="fill:#737373" />
			<path
   id="path271"
   d="M 329.627,326.854 L 351.457,346.871 L 311.037,357.621 L 290.594,336.628 L 329.627,326.854 z"
   style="fill:#ededed" />
			<path
   id="path273"
   d="M 290.594,336.627 L 311.037,357.62 L 310.747,396.728 L 290.786,374.421 L 290.594,336.627 z"
   style="fill:#737373" />
			<path
   id="path275"
   d="M 446.15,184.143 L 473.588,197.292 L 436.179,204.354 L 409.856,190.564 L 446.15,184.143 z"
   style="fill:#ededed" />
			<path
   id="path277"
   d="M 330.348,287.94 L 352.752,306.532 L 351.457,346.87 L 329.627,326.852 L 330.348,287.94 z"
   style="fill:#737373" />
			<path
   id="path279"
   d="M 407.31,231.713 L 432.877,247.151 L 394.465,255.442 L 370.102,239.251 L 407.31,231.713 z"
   style="fill:#ededed" />
			<path
   id="path281"
   d="M 370.102,239.251 L 394.465,255.442 L 392.168,297.009 L 368.469,279.281 L 370.102,239.251 z"
   style="fill:#737373" />
			<path
   id="path283"
   d="M 368.469,279.284 L 392.168,297.012 L 352.752,306.533 L 330.348,287.941 L 368.469,279.284 z"
   style="fill:#ededed" />
			<path
   id="path285"
   d="M 449.608,141.875 L 477.892,153.265 L 473.587,197.291 L 446.149,184.142 L 449.608,141.875 z"
   style="fill:#737373" />
			<path
   id="path287"
   d="M 250.84,385.315 L 269.323,408.708 L 310.747,396.73 L 290.786,374.423 L 250.84,385.315 z"
   style="fill:#ededed" />
			<path
   id="path289"
   d="M 330.348,287.939 L 352.752,306.531 L 392.168,297.01 L 368.469,279.282 L 330.348,287.939 z"
   style="fill:#ededed" />
			<path
   id="path291"
   d="M 446.15,184.142 L 473.588,197.291 L 477.893,153.265 L 449.609,141.875 L 446.15,184.142 z"
   style="fill:#737373" />
			<path
   id="path293"
   d="M 368.469,279.283 L 392.168,297.011 L 394.465,255.444 L 370.102,239.253 L 368.469,279.283 z"
   style="fill:#737373" />
			<path
   id="path295"
   d="M 409.855,190.562 L 436.179,204.352 L 473.587,197.29 L 446.149,184.141 L 409.855,190.562 z"
   style="fill:#ededed" />
			<path
   id="path297"
   d="M 449.608,141.875 L 477.892,153.265 L 514.297,147.432 L 484.99,136.572 L 449.608,141.875 z"
   style="fill:#ededed" />
			<path
   id="path299"
   d="M 407.31,231.712 L 432.877,247.151 L 436.179,204.354 L 409.856,190.564 L 407.31,231.712 z"
   style="fill:#737373" />
			<path
   id="path301"
   d="M 370.102,239.25 L 394.465,255.44 L 432.877,247.15 L 407.31,231.711 L 370.102,239.25 z"
   style="fill:#ededed" />
			<path
   id="path303"
   d="M 484.991,136.571 L 514.298,147.431 L 519.607,102.176 L 489.362,93.187 L 484.991,136.571 z"
   style="fill:#737373" />
			<path
   id="path305"
   d="M 329.627,326.852 L 351.457,346.87 L 352.752,306.532 L 330.348,287.94 L 329.627,326.852 z"
   style="fill:#737373" />
			<path
   id="path307"
   d="M 290.594,336.626 L 311.037,357.618 L 351.457,346.869 L 329.627,326.851 L 290.594,336.626 z"
   style="fill:#ededed" />
			<path
   id="path309"
   d="M 290.786,374.423 L 310.747,396.73 L 311.037,357.621 L 290.594,336.628 L 290.786,374.423 z"
   style="fill:#737373" />
			<path
   id="path311"
   d="M 206.754,357.619 L 208.973,396.737 L 250.849,385.319 L 249.691,346.869 L 206.754,357.619 z"
   style="fill:#424242;fill-opacity:1" />
			<path
   id="path313"
   d="M 415.323,102.179 L 412.522,147.444 L 449.615,141.885 L 453.24,97.576 L 415.323,102.179 z"
   style="fill:#424242;fill-opacity:1" />
			<path
   id="path315"
   d="M 457.036,51.091 L 453.232,97.585 L 489.369,93.197 L 493.951,47.716 L 457.036,51.091 z"
   style="fill:#424242;fill-opacity:1" />
			<path
   id="path317"
   d="M 370.102,239.251 L 394.465,255.442 L 354.111,264.152 L 331.103,247.152 L 370.102,239.251 z"
   style="fill:#ededed" />
			<path
   id="path319"
   d="M 371.812,197.293 L 396.878,211.772 L 394.464,255.44 L 370.101,239.25 L 371.812,197.293 z"
   style="fill:#737373" />
			<path
   id="path321"
   d="M 412.522,147.434 L 439.647,159.392 L 436.179,204.352 L 409.855,190.562 L 412.522,147.434 z"
   style="fill:#737373" />
			<path
   id="path323"
   d="M 449.608,141.875 L 477.892,153.265 L 439.647,159.392 L 412.522,147.434 L 449.608,141.875 z"
   style="fill:#ededed" />
			<path
   id="path325"
   d="M 409.855,190.564 L 436.178,204.354 L 396.878,211.773 L 371.812,197.294 L 409.855,190.564 z"
   style="fill:#ededed" />
			<path
   id="path327"
   d="M 453.232,97.575 L 482.416,107.013 L 477.893,153.264 L 449.609,141.874 L 453.232,97.575 z"
   style="fill:#737373" />
			<path
   id="path329"
   d="M 290.393,297.012 L 311.343,316.533 L 311.037,357.619 L 290.594,336.627 L 290.393,297.012 z"
   style="fill:#737373" />
			<path
   id="path331"
   d="M 489.361,93.188 L 519.606,102.177 L 482.416,107.013 L 453.232,97.575 L 489.361,93.188 z"
   style="fill:#ededed" />
			<path
   id="path333"
   d="M 290.594,336.627 L 311.037,357.62 L 268.574,368.913 L 249.682,346.871 L 290.594,336.627 z"
   style="fill:#ededed" />
			<path
   id="path335"
   d="M 331.103,247.153 L 354.111,264.153 L 352.753,306.531 L 330.349,287.939 L 331.103,247.153 z"
   style="fill:#737373" />
			<path
   id="path337"
   d="M 249.683,346.872 L 268.575,368.914 L 269.324,408.708 L 250.841,385.315 L 249.683,346.872 z"
   style="fill:#737373" />
			<path
   id="path339"
   d="M 330.348,287.94 L 352.752,306.532 L 311.343,316.533 L 290.393,297.012 L 330.348,287.94 z"
   style="fill:#ededed" />
			<path
   id="path341"
   d="M 330.348,287.939 L 352.752,306.531 L 354.11,264.153 L 331.102,247.153 L 330.348,287.939 z"
   style="fill:#737373" />
			<path
   id="path343"
   d="M 208.972,396.73 L 225.806,421.292 L 269.323,408.708 L 250.84,385.314 L 208.972,396.73 z"
   style="fill:#ededed" />
			<path
   id="path345"
   d="M 370.102,239.25 L 394.465,255.44 L 396.879,211.772 L 371.813,197.293 L 370.102,239.25 z"
   style="fill:#737373" />
			<path
   id="path347"
   d="M 489.362,93.186 L 519.606,102.175 L 525.183,54.632 L 493.943,47.715 L 489.362,93.186 z"
   style="fill:#737373" />
			<path
   id="path349"
   d="M 453.232,97.573 L 482.416,107.011 L 519.606,102.176 L 489.362,93.187 L 453.232,97.573 z"
   style="fill:#ededed" />
			<path
   id="path351"
   d="M 412.522,147.433 L 439.647,159.391 L 477.892,153.264 L 449.608,141.874 L 412.522,147.433 z"
   style="fill:#ededed" />
			<path
   id="path353"
   d="M 250.84,385.315 L 269.323,408.709 L 268.574,368.914 L 249.682,346.873 L 250.84,385.315 z"
   style="fill:#737373" />
			<path
   id="path355"
   d="M 331.103,247.152 L 354.111,264.152 L 394.465,255.441 L 370.102,239.251 L 331.103,247.152 z"
   style="fill:#ededed" />
			<path
   id="path357"
   d="M 290.594,336.626 L 311.037,357.618 L 311.343,316.532 L 290.393,297.012 L 290.594,336.626 z"
   style="fill:#737373" />
			<path
   id="path359"
   d="M 290.393,297.011 L 311.343,316.532 L 352.752,306.531 L 330.348,287.939 L 290.393,297.011 z"
   style="fill:#ededed" />
			<path
   id="path361"
   d="M 409.855,190.562 L 436.179,204.352 L 439.647,159.392 L 412.522,147.434 L 409.855,190.562 z"
   style="fill:#737373" />
			<path
   id="path363"
   d="M 371.812,197.292 L 396.878,211.771 L 436.179,204.353 L 409.855,190.563 L 371.812,197.292 z"
   style="fill:#ededed" />
			<path
   id="path365"
   d="M 249.683,346.871 L 268.575,368.912 L 311.038,357.619 L 290.595,336.627 L 249.683,346.871 z"
   style="fill:#ededed" />
			<path
   id="path367"
   d="M 449.608,141.875 L 477.892,153.265 L 482.415,107.014 L 453.231,97.576 L 449.608,141.875 z"
   style="fill:#737373" />
			<path
   id="path369"
   d="M 418.264,54.635 L 415.323,102.188 L 453.241,97.584 L 457.045,51.09 L 418.264,54.635 z"
   style="fill:#424242;fill-opacity:1" />
			<path
   id="path371"
   d="M 461.032,2.256 L 457.035,51.1 L 493.949,47.725 L 498.758,0.002 L 461.032,2.256 z"
   style="fill:#424242;fill-opacity:1" />
			<path
   id="path373"
   d="M 161.655,368.912 L 165.041,408.716 L 208.982,396.736 L 206.763,357.618 L 161.655,368.912 z"
   style="fill:#424242;fill-opacity:1" />
			<path
   id="path375"
   d="M 290.393,297.013 L 311.343,316.533 L 267.786,327.053 L 248.467,306.533 L 290.393,297.013 z"
   style="fill:#ededed" />
			<path
   id="path377"
   d="M 373.609,153.266 L 399.419,165.837 L 396.879,211.771 L 371.813,197.292 L 373.609,153.266 z"
   style="fill:#737373" />
			<path
   id="path379"
   d="M 249.683,346.873 L 268.575,368.914 L 223.91,380.792 L 206.755,357.621 L 249.683,346.873 z"
   style="fill:#ededed" />
			<path
   id="path381"
   d="M 206.754,357.621 L 223.909,380.792 L 225.806,421.293 L 208.972,396.731 L 206.754,357.621 z"
   style="fill:#737373" />
			<path
   id="path383"
   d="M 331.895,204.355 L 355.541,219.576 L 354.11,264.152 L 331.102,247.152 L 331.895,204.355 z"
   style="fill:#737373" />
			<path
   id="path385"
   d="M 290.182,255.444 L 311.664,273.314 L 311.343,316.532 L 290.393,297.011 L 290.182,255.444 z"
   style="fill:#737373" />
			<path
   id="path387"
   d="M 453.232,97.575 L 482.416,107.013 L 443.295,112.099 L 415.323,102.178 L 453.232,97.575 z"
   style="fill:#ededed" />
			<path
   id="path389"
   d="M 457.036,51.089 L 487.173,58.361 L 482.416,107.011 L 453.232,97.573 L 457.036,51.089 z"
   style="fill:#737373" />
			<path
   id="path391"
   d="M 412.522,147.434 L 439.647,159.392 L 399.418,165.837 L 373.608,153.266 L 412.522,147.434 z"
   style="fill:#ededed" />
			<path
   id="path393"
   d="M 415.323,102.178 L 443.295,112.099 L 439.648,159.391 L 412.523,147.433 L 415.323,102.178 z"
   style="fill:#737373" />
			<path
   id="path395"
   d="M 331.103,247.153 L 354.111,264.153 L 311.665,273.314 L 290.183,255.444 L 331.103,247.153 z"
   style="fill:#ededed" />
			<path
   id="path397"
   d="M 493.943,47.715 L 525.183,54.632 L 487.172,58.361 L 457.035,51.089 L 493.943,47.715 z"
   style="fill:#ededed" />
			<path
   id="path399"
   d="M 371.812,197.293 L 396.878,211.772 L 355.54,219.575 L 331.894,204.354 L 371.812,197.293 z"
   style="fill:#ededed" />
			<path
   id="path401"
   d="M 248.467,306.533 L 267.786,327.053 L 268.574,368.912 L 249.682,346.871 L 248.467,306.533 z"
   style="fill:#737373" />
			<path
   id="path403"
   d="M 248.467,306.531 L 267.786,327.052 L 311.343,316.531 L 290.393,297.01 L 248.467,306.531 z"
   style="fill:#ededed" />
			<path
   id="path405"
   d="M 206.753,357.621 L 223.909,380.79 L 268.574,368.912 L 249.682,346.871 L 206.753,357.621 z"
   style="fill:#ededed" />
			<path
   id="path407"
   d="M 290.182,255.443 L 311.664,273.313 L 354.11,264.152 L 331.102,247.152 L 290.182,255.443 z"
   style="fill:#ededed" />
			<path
   id="path409"
   d="M 249.682,346.871 L 268.574,368.912 L 267.786,327.054 L 248.467,306.533 L 249.682,346.871 z"
   style="fill:#737373" />
			<path
   id="path411"
   d="M 331.103,247.152 L 354.111,264.152 L 355.542,219.576 L 331.896,204.355 L 331.103,247.152 z"
   style="fill:#737373" />
			<path
   id="path413"
   d="M 373.609,153.265 L 399.419,165.836 L 439.648,159.391 L 412.523,147.433 L 373.609,153.265 z"
   style="fill:#ededed" />
			<path
   id="path415"
   d="M 412.522,147.433 L 439.647,159.391 L 443.294,112.099 L 415.321,102.178 L 412.522,147.433 z"
   style="fill:#737373" />
			<path
   id="path417"
   d="M 165.04,408.708 L 180.032,434.528 L 225.806,421.292 L 208.972,396.73 L 165.04,408.708 z"
   style="fill:#ededed" />
			<path
   id="path419"
   d="M 208.972,396.731 L 225.806,421.293 L 223.909,380.792 L 206.753,357.622 L 208.972,396.731 z"
   style="fill:#737373" />
			<path
   id="path421"
   d="M 331.895,204.354 L 355.541,219.575 L 396.879,211.772 L 371.813,197.293 L 331.895,204.354 z"
   style="fill:#ededed" />
			<path
   id="path423"
   d="M 371.812,197.292 L 396.878,211.771 L 399.418,165.837 L 373.608,153.266 L 371.812,197.292 z"
   style="fill:#737373" />
			<path
   id="path425"
   d="M 415.323,102.176 L 443.296,112.097 L 482.416,107.011 L 453.232,97.573 L 415.323,102.176 z"
   style="fill:#ededed" />
			<path
   id="path427"
   d="M 453.232,97.573 L 482.416,107.011 L 487.173,58.361 L 457.036,51.089 L 453.232,97.573 z"
   style="fill:#737373" />
			<path
   id="path429"
   d="M 290.393,297.011 L 311.343,316.532 L 311.664,273.315 L 290.182,255.444 L 290.393,297.011 z"
   style="fill:#737373" />
			<path
   id="path431"
   d="M 457.036,51.087 L 487.173,58.358 L 525.184,54.63 L 493.944,47.713 L 457.036,51.087 z"
   style="fill:#ededed" />
			<path
   id="path433"
   d="M 493.943,47.713 L 525.183,54.63 L 531.05,4.621 L 498.75,1.6320278e-14 L 495.72495,30.025803 L 493.943,47.713 z"
   style="fill:#737373"
   sodipodi:nodetypes="cccccc" />
			<path
   id="path435"
   d="M 114.217,380.79 L 118.888,421.3 L 165.05,408.714 L 161.665,368.91 L 114.217,380.79 z"
   style="fill:#424242;fill-opacity:1" />
			<path
   id="path437"
   d="M 421.357,4.626 L 418.263,54.645 L 457.043,51.1 L 461.039,2.255 L 421.357,4.626 z"
   style="fill:#424242;fill-opacity:1" />
			<path
   id="path439"
   d="M 64.253,393.301 L 70.341,434.535 L 118.898,421.297 L 114.228,380.788 L 64.253,393.301 z"
   style="fill:#424242;fill-opacity:1" />
			<path
   id="path441"
   d="M 331.895,204.355 L 355.541,219.576 L 312.002,227.795 L 289.959,211.774 L 331.895,204.355 z"
   style="fill:#ededed" />
			<path
   id="path443"
   d="M 206.753,357.622 L 223.909,380.792 L 176.865,393.303 L 161.654,368.915 L 206.753,357.622 z"
   style="fill:#ededed" />
			<path
   id="path445"
   d="M 332.728,159.394 L 357.048,172.626 L 355.541,219.575 L 331.895,204.354 L 332.728,159.394 z"
   style="fill:#737373" />
			<path
   id="path447"
   d="M 161.654,368.915 L 176.865,393.303 L 180.032,434.53 L 165.04,408.71 L 161.654,368.915 z"
   style="fill:#737373" />
			<path
   id="path449"
   d="M 418.264,54.633 L 447.139,62.287 L 443.296,112.097 L 415.323,102.176 L 418.264,54.633 z"
   style="fill:#737373" />
			<path
   id="path451"
   d="M 247.191,264.154 L 266.956,282.965 L 267.786,327.053 L 248.467,306.532 L 247.191,264.154 z"
   style="fill:#737373" />
			<path
   id="path453"
   d="M 375.496,107.013 L 402.093,117.456 L 399.419,165.835 L 373.609,153.264 L 375.496,107.013 z"
   style="fill:#737373" />
			<path
   id="path455"
   d="M 373.609,153.266 L 399.419,165.837 L 357.048,172.625 L 332.728,159.393 L 373.609,153.266 z"
   style="fill:#ededed" />
			<path
   id="path457"
   d="M 457.036,51.088 L 487.173,58.36 L 447.139,62.287 L 418.264,54.633 L 457.036,51.088 z"
   style="fill:#ededed" />
			<path
   id="path459"
   d="M 289.959,211.774 L 312.002,227.795 L 311.664,273.313 L 290.182,255.443 L 289.959,211.774 z"
   style="fill:#737373" />
			<path
   id="path461"
   d="M 248.467,306.533 L 267.786,327.054 L 221.911,338.134 L 204.423,316.535 L 248.467,306.533 z"
   style="fill:#ededed" />
			<path
   id="path463"
   d="M 290.182,255.444 L 311.664,273.315 L 266.956,282.964 L 247.191,264.153 L 290.182,255.444 z"
   style="fill:#ededed" />
			<path
   id="path465"
   d="M 415.322,102.178 L 443.295,112.099 L 402.093,117.456 L 375.496,107.013 L 415.322,102.178 z"
   style="fill:#ededed" />
			<path
   id="path467"
   d="M 498.75,0 L 531.051,4.622 L 492.184,7.118 L 461.033,2.253 L 498.75,0 z"
   style="fill:#ededed" />
			<path
   id="path469"
   d="M 204.423,316.535 L 221.911,338.134 L 223.909,380.79 L 206.753,357.621 L 204.423,316.535 z"
   style="fill:#737373" />
			<path
   id="path471"
   d="M 461.032,2.253 L 492.183,7.118 L 487.172,58.359 L 457.035,51.088 L 461.032,2.253 z"
   style="fill:#737373" />
			<path
   id="path473"
   d="M 109.298,338.132 L 114.217,380.798 L 161.664,368.918 L 158.103,327.051 L 109.298,338.132 z"
   style="fill:#424242;fill-opacity:1" />
			<path
   id="path475"
   d="M 118.886,421.293 L 131.82,448.47 L 180.031,434.529 L 165.039,408.71 L 118.886,421.293 z"
   style="fill:#ededed" />
			<path
   id="path477"
   d="M 375.496,107.012 L 402.093,117.455 L 443.296,112.097 L 415.323,102.176 L 375.496,107.012 z"
   style="fill:#ededed" />
			<path
   id="path479"
   d="M 415.323,102.176 L 443.296,112.097 L 447.139,62.287 L 418.264,54.633 L 415.323,102.176 z"
   style="fill:#737373" />
			<path
   id="path481"
   d="M 247.191,264.152 L 266.956,282.963 L 311.664,273.314 L 290.182,255.444 L 247.191,264.152 z"
   style="fill:#ededed" />
			<path
   id="path483"
   d="M 290.182,255.443 L 311.664,273.313 L 312.002,227.795 L 289.959,211.774 L 290.182,255.443 z"
   style="fill:#737373" />
			<path
   id="path485"
   d="M 248.467,306.531 L 267.786,327.052 L 266.956,282.964 L 247.191,264.153 L 248.467,306.531 z"
   style="fill:#737373" />
			<path
   id="path487"
   d="M 204.423,316.533 L 221.911,338.132 L 267.786,327.053 L 248.467,306.532 L 204.423,316.533 z"
   style="fill:#ededed" />
			<path
   id="path489"
   d="M 165.04,408.709 L 180.032,434.528 L 176.866,393.301 L 161.655,368.913 L 165.04,408.709 z"
   style="fill:#737373" />
			<path
   id="path491"
   d="M 289.959,211.772 L 312.002,227.793 L 355.541,219.574 L 331.895,204.353 L 289.959,211.772 z"
   style="fill:#ededed" />
			<path
   id="path493"
   d="M 331.895,204.354 L 355.541,219.575 L 357.048,172.626 L 332.728,159.394 L 331.895,204.354 z"
   style="fill:#737373" />
			<path
   id="path495"
   d="M 161.654,368.913 L 176.865,393.302 L 223.908,380.791 L 206.753,357.621 L 161.654,368.913 z"
   style="fill:#ededed" />
			<path
   id="path497"
   d="M 206.753,357.621 L 223.908,380.791 L 221.91,338.134 L 204.422,316.535 L 206.753,357.621 z"
   style="fill:#737373" />
			<path
   id="path499"
   d="M 457.036,51.087 L 487.173,58.358 L 492.184,7.117 L 461.033,2.252 L 457.036,51.087 z"
   style="fill:#737373" />
			<path
   id="path501"
   d="M 373.609,153.265 L 399.419,165.836 L 402.093,117.457 L 375.496,107.014 L 373.609,153.265 z"
   style="fill:#737373" />
			<path
   id="path503"
   d="M 418.264,54.631 L 447.139,62.285 L 487.173,58.358 L 457.036,51.087 L 418.264,54.631 z"
   style="fill:#ededed" />
			<path
   id="path505"
   d="M 332.728,159.392 L 357.048,172.624 L 399.419,165.836 L 373.609,153.265 L 332.728,159.392 z"
   style="fill:#ededed" />
			<path
   id="path507"
   d="M 247.191,264.154 L 266.956,282.965 L 219.803,293.143 L 201.97,273.317 L 247.191,264.154 z"
   style="fill:#ededed" />
			<path
   id="path509"
   d="M 204.422,316.533 L 221.91,338.133 L 219.803,293.143 L 201.97,273.317 L 204.422,316.533 z"
   style="fill:#737373" />
			<path
   id="path511"
   d="M 201.971,273.316 L 219.804,293.142 L 221.912,338.131 L 204.424,316.532 L 201.971,273.316 z"
   style="fill:#737373" />
			<path
   id="path513"
   d="M 57.833,349.819 L 64.254,393.309 L 114.227,380.796 L 109.308,338.13 L 57.833,349.819 z"
   style="fill:#424242;fill-opacity:1" />
			<path
   id="path515"
   d="M 204.422,316.535 L 221.91,338.134 L 173.525,349.821 L 158.093,327.055 L 204.422,316.535 z"
   style="fill:#ededed" />
			<path
   id="path517"
   d="M 158.094,327.054 L 173.526,349.82 L 176.865,393.301 L 161.654,368.912 L 158.094,327.054 z"
   style="fill:#737373" />
			<path
   id="path519"
   d="M 161.654,368.915 L 176.865,393.303 L 127.248,406.498 L 114.216,380.793 L 161.654,368.915 z"
   style="fill:#ededed" />
			<path
   id="path521"
   d="M 114.216,380.792 L 127.248,406.497 L 131.82,448.47 L 118.886,421.293 L 114.216,380.792 z"
   style="fill:#737373" />
			<path
   id="path523"
   d="M 289.726,165.838 L 312.359,179.785 L 312.003,227.793 L 289.96,211.772 L 289.726,165.838 z"
   style="fill:#737373" />
			<path
   id="path525"
   d="M 461.032,2.253 L 492.183,7.118 L 451.19,9.75 L 421.357,4.623 L 461.032,2.253 z"
   style="fill:#ededed" />
			<path
   id="path527"
   d="M 421.357,4.623 L 451.19,9.75 L 447.138,62.285 L 418.263,54.631 L 421.357,4.623 z"
   style="fill:#737373" />
			<path
   id="path529"
   d="M 332.728,159.394 L 357.048,172.626 L 312.359,179.786 L 289.726,165.839 L 332.728,159.394 z"
   style="fill:#ededed" />
			<path
   id="path531"
   d="M 418.264,54.633 L 447.139,62.287 L 404.914,66.429 L 377.48,58.362 L 418.264,54.633 z"
   style="fill:#ededed" />
			<path
   id="path533"
   d="M 377.48,58.361 L 404.914,66.428 L 402.093,117.454 L 375.496,107.011 L 377.48,58.361 z"
   style="fill:#737373" />
			<path
   id="path535"
   d="M 375.496,107.013 L 402.093,117.456 L 358.636,123.106 L 333.603,112.1 L 375.496,107.013 z"
   style="fill:#ededed" />
			<path
   id="path537"
   d="M 289.959,211.774 L 312.002,227.795 L 266.081,236.463 L 245.848,219.577 L 289.959,211.774 z"
   style="fill:#ededed" />
			<path
   id="path539"
   d="M 333.603,112.1 L 358.636,123.107 L 357.048,172.624 L 332.728,159.392 L 333.603,112.1 z"
   style="fill:#737373" />
			<path
   id="path541"
   d="M 247.191,264.152 L 266.956,282.963 L 266.081,236.464 L 245.848,219.578 L 247.191,264.152 z"
   style="fill:#737373" />
			<path
   id="path543"
   d="M 245.848,219.577 L 266.081,236.463 L 266.956,282.962 L 247.191,264.151 L 245.848,219.577 z"
   style="fill:#737373" />
			<path
   id="path545"
   d="M 118.886,421.293 L 131.82,448.47 L 127.249,406.497 L 114.217,380.793 L 118.886,421.293 z"
   style="fill:#737373" />
			<path
   id="path547"
   d="M 114.216,380.791 L 127.248,406.497 L 176.865,393.302 L 161.654,368.914 L 114.216,380.791 z"
   style="fill:#ededed" />
			<path
   id="path549"
   d="M 289.726,165.837 L 312.359,179.784 L 357.048,172.624 L 332.728,159.392 L 289.726,165.837 z"
   style="fill:#ededed" />
			<path
   id="path551"
   d="M 161.654,368.914 L 176.865,393.302 L 173.525,349.821 L 158.093,327.055 L 161.654,368.914 z"
   style="fill:#737373" />
			<path
   id="path553"
   d="M 418.264,54.631 L 447.139,62.285 L 451.19,9.75 L 421.357,4.622 L 418.264,54.631 z"
   style="fill:#737373" />
			<path
   id="path555"
   d="M 377.48,58.36 L 404.914,66.427 L 447.139,62.285 L 418.264,54.631 L 377.48,58.36 z"
   style="fill:#ededed" />
			<path
   id="path557"
   d="M 332.728,159.392 L 357.048,172.624 L 358.636,123.107 L 333.603,112.1 L 332.728,159.392 z"
   style="fill:#737373" />
			<path
   id="path559"
   d="M 201.971,273.314 L 219.804,293.14 L 266.957,282.962 L 247.192,264.151 L 201.971,273.314 z"
   style="fill:#ededed" />
			<path
   id="path561"
   d="M 158.093,327.052 L 173.525,349.819 L 221.91,338.132 L 204.422,316.532 L 158.093,327.052 z"
   style="fill:#ededed" />
			<path
   id="path563"
   d="M 70.339,434.53 L 80.97,463.176 L 131.819,448.471 L 118.885,421.294 L 70.339,434.53 z"
   style="fill:#ededed" />
			<path
   id="path565"
   d="M 289.959,211.772 L 312.002,227.793 L 312.358,179.785 L 289.725,165.838 L 289.959,211.772 z"
   style="fill:#737373" />
			<path
   id="path567"
   d="M 375.496,107.012 L 402.093,117.455 L 404.914,66.429 L 377.48,58.362 L 375.496,107.012 z"
   style="fill:#737373" />
			<path
   id="path569"
   d="M 333.603,112.098 L 358.636,123.105 L 402.093,117.455 L 375.496,107.012 L 333.603,112.098 z"
   style="fill:#ededed" />
			<path
   id="path571"
   d="M 245.848,219.576 L 266.081,236.463 L 312.002,227.794 L 289.959,211.773 L 245.848,219.576 z"
   style="fill:#ededed" />
			<path
   id="path573"
   d="M 289.726,165.838 L 312.359,179.785 L 265.157,187.347 L 244.435,172.626 L 289.726,165.838 z"
   style="fill:#ededed" />
			<path
   id="path575"
   d="M 334.525,62.288 L 360.314,70.803 L 358.635,123.105 L 333.602,112.098 L 334.525,62.288 z"
   style="fill:#737373" />
			<path
   id="path577"
   d="M 421.357,4.623 L 451.19,9.75 L 407.892,12.531 L 379.57,7.119 L 421.357,4.623 z"
   style="fill:#ededed" />
			<path
   id="path579"
   d="M 244.434,172.626 L 265.156,187.347 L 266.081,236.462 L 245.848,219.575 L 244.434,172.626 z"
   style="fill:#737373" />
			<path
   id="path581"
   d="M 379.57,7.119 L 407.892,12.532 L 404.913,66.428 L 377.48,58.36 L 379.57,7.119 z"
   style="fill:#737373" />
			<path
   id="path583"
   d="M 377.48,58.361 L 404.914,66.428 L 360.314,70.803 L 334.525,62.288 L 377.48,58.361 z"
   style="fill:#ededed" />
			<path
   id="path585"
   d="M 158.093,327.054 L 173.525,349.82 L 122.419,362.164 L 109.297,338.135 L 158.093,327.054 z"
   style="fill:#ededed" />
			<path
   id="path587"
   d="M 154.343,282.964 L 169.998,303.891 L 173.525,349.819 L 158.093,327.052 L 154.343,282.964 z"
   style="fill:#737373" />
			<path
   id="path589"
   d="M 245.848,219.577 L 266.081,236.463 L 217.577,245.618 L 199.389,227.795 L 245.848,219.577 z"
   style="fill:#ededed" />
			<path
   id="path591"
   d="M 64.252,393.304 L 74.84,420.435 L 80.97,463.175 L 70.339,434.53 L 64.252,393.304 z"
   style="fill:#737373" />
			<path
   id="path593"
   d="M 114.216,380.793 L 127.248,406.497 L 74.84,420.435 L 64.252,393.304 L 114.216,380.793 z"
   style="fill:#ededed" />
			<path
   id="path595"
   d="M 199.389,227.796 L 217.577,245.619 L 219.803,293.14 L 201.97,273.314 L 199.389,227.796 z"
   style="fill:#737373" />
			<path
   id="path597"
   d="M 109.297,338.134 L 122.419,362.163 L 127.248,406.496 L 114.216,380.79 L 109.297,338.134 z"
   style="fill:#737373" />
			<path
   id="path599"
   d="M 201.971,273.316 L 219.804,293.142 L 169.999,303.891 L 154.344,282.964 L 201.971,273.316 z"
   style="fill:#ededed" />
			<path
   id="path601"
   d="M 333.603,112.1 L 358.636,123.107 L 312.736,129.075 L 289.48,117.457 L 333.603,112.1 z"
   style="fill:#ededed" />
			<path
   id="path603"
   d="M 289.479,117.458 L 312.735,129.076 L 312.358,179.784 L 289.725,165.837 L 289.479,117.458 z"
   style="fill:#737373" />
			<path
   id="path605"
   d="M 199.389,227.794 L 217.577,245.617 L 266.081,236.462 L 245.848,219.575 L 199.389,227.794 z"
   style="fill:#ededed" />
			<path
   id="path607"
   d="M 114.216,380.792 L 127.248,406.497 L 122.419,362.164 L 109.297,338.136 L 114.216,380.792 z"
   style="fill:#737373" />
			<path
   id="path609"
   d="M 201.971,273.314 L 219.803,293.14 L 217.577,245.619 L 199.388,227.796 L 201.971,273.314 z"
   style="fill:#737373" />
			<path
   id="path611"
   d="M 154.343,282.963 L 169.998,303.89 L 219.803,293.14 L 201.971,273.314 L 154.343,282.963 z"
   style="fill:#ededed" />
			<path
   id="path613"
   d="M 333.603,112.098 L 358.636,123.105 L 360.314,70.803 L 334.526,62.288 L 333.603,112.098 z"
   style="fill:#737373" />
			<path
   id="path615"
   d="M 245.848,219.576 L 266.081,236.463 L 265.156,187.348 L 244.434,172.627 L 245.848,219.576 z"
   style="fill:#737373" />
			<path
   id="path617"
   d="M 64.252,393.302 L 74.84,420.434 L 127.247,406.496 L 114.215,380.791 L 64.252,393.302 z"
   style="fill:#ededed" />
			<path
   id="path619"
   d="M 377.48,58.36 L 404.914,66.427 L 407.893,12.531 L 379.57,7.119 L 377.48,58.36 z"
   style="fill:#737373" />
			<path
   id="path621"
   d="M 334.525,62.287 L 360.314,70.802 L 404.914,66.427 L 377.48,58.36 L 334.525,62.287 z"
   style="fill:#ededed" />
			<path
   id="path623"
   d="M 158.093,327.052 L 173.525,349.819 L 169.998,303.892 L 154.343,282.965 L 158.093,327.052 z"
   style="fill:#737373" />
			<path
   id="path625"
   d="M 109.297,338.132 L 122.419,362.161 L 173.525,349.818 L 158.093,327.051 L 109.297,338.132 z"
   style="fill:#ededed" />
			<path
   id="path627"
   d="M 289.479,117.456 L 312.735,129.074 L 358.635,123.106 L 333.602,112.099 L 289.479,117.456 z"
   style="fill:#ededed" />
			<path
   id="path629"
   d="M 244.434,172.625 L 265.156,187.346 L 312.358,179.784 L 289.725,165.837 L 244.434,172.625 z"
   style="fill:#ededed" />
			<path
   id="path631"
   d="M 289.726,165.837 L 312.359,179.784 L 312.736,129.076 L 289.48,117.458 L 289.726,165.837 z"
   style="fill:#737373" />
			<path
   id="path633"
   d="M 109.297,338.135 L 122.419,362.163 L 68.356,375.221 L 57.833,349.821 L 109.297,338.135 z"
   style="fill:#ededed" />
			<path
   id="path635"
   d="M 242.942,123.108 L 264.177,135.389 L 265.156,187.346 L 244.434,172.625 L 242.942,123.108 z"
   style="fill:#737373" />
			<path
   id="path637"
   d="M 289.479,117.458 L 312.735,129.076 L 264.177,135.389 L 242.942,123.108 L 289.479,117.458 z"
   style="fill:#ededed" />
			<path
   id="path639"
   d="M 379.57,7.119 L 407.892,12.532 L 362.088,15.473 L 335.497,9.752 L 379.57,7.119 z"
   style="fill:#ededed" />
			<path
   id="path641"
   d="M 154.343,282.965 L 169.998,303.892 L 117.311,315.263 L 104.11,293.142 L 154.343,282.965 z"
   style="fill:#ededed" />
			<path
   id="path643"
   d="M 57.832,349.821 L 68.355,375.221 L 74.84,420.434 L 64.252,393.302 L 57.832,349.821 z"
   style="fill:#737373" />
			<path
   id="path645"
   d="M 104.11,293.142 L 117.311,315.263 L 122.419,362.161 L 109.297,338.132 L 104.11,293.142 z"
   style="fill:#737373" />
			<path
   id="path647"
   d="M 334.525,62.288 L 360.313,70.803 L 313.132,75.43 L 289.22,66.429 L 334.525,62.288 z"
   style="fill:#ededed" />
			<path
   id="path649"
   d="M 335.498,9.751 L 362.089,15.472 L 360.315,70.801 L 334.526,62.286 L 335.498,9.751 z"
   style="fill:#737373" />
			<path
   id="path651"
   d="M 244.434,172.626 L 265.156,187.347 L 215.222,195.347 L 196.665,179.786 L 244.434,172.626 z"
   style="fill:#ededed" />
			<path
   id="path653"
   d="M 150.387,236.464 L 166.266,255.305 L 169.997,303.89 L 154.342,282.963 L 150.387,236.464 z"
   style="fill:#737373" />
			<path
   id="path655"
   d="M 289.221,66.43 L 313.133,75.431 L 312.736,129.074 L 289.48,117.456 L 289.221,66.43 z"
   style="fill:#737373" />
			<path
   id="path657"
   d="M 199.388,227.796 L 217.577,245.619 L 166.266,255.306 L 150.387,236.465 L 199.388,227.796 z"
   style="fill:#ededed" />
			<path
   id="path659"
   d="M 196.665,179.786 L 215.222,195.347 L 217.577,245.618 L 199.389,227.795 L 196.665,179.786 z"
   style="fill:#737373" />
			<path
   id="path661"
   d="M 57.832,349.819 L 68.355,375.219 L 122.419,362.161 L 109.297,338.133 L 57.832,349.819 z"
   style="fill:#ededed" />
			<path
   id="path663"
   d="M 154.343,282.964 L 169.998,303.89 L 166.266,255.305 L 150.387,236.464 L 154.343,282.964 z"
   style="fill:#737373" />
			<path
   id="path665"
   d="M 196.665,179.785 L 215.222,195.346 L 265.156,187.346 L 244.433,172.625 L 196.665,179.785 z"
   style="fill:#ededed" />
			<path
   id="path667"
   d="M 244.434,172.625 L 265.157,187.346 L 264.178,135.389 L 242.943,123.108 L 244.434,172.625 z"
   style="fill:#737373" />
			<path
   id="path669"
   d="M 242.942,123.106 L 264.177,135.387 L 312.735,129.074 L 289.479,117.456 L 242.942,123.106 z"
   style="fill:#ededed" />
			<path
   id="path671"
   d="M 109.297,338.133 L 122.419,362.161 L 117.311,315.263 L 104.11,293.142 L 109.297,338.133 z"
   style="fill:#737373" />
			<path
   id="path673"
   d="M 104.109,293.141 L 117.31,315.261 L 169.998,303.89 L 154.343,282.964 L 104.109,293.141 z"
   style="fill:#ededed" />
			<path
   id="path675"
   d="M 150.387,236.462 L 166.266,255.304 L 217.576,245.617 L 199.388,227.794 L 150.387,236.462 z"
   style="fill:#ededed" />
			<path
   id="path677"
   d="M 289.479,117.456 L 312.735,129.074 L 313.132,75.431 L 289.22,66.43 L 289.479,117.456 z"
   style="fill:#737373" />
			<path
   id="path679"
   d="M 334.525,62.287 L 360.314,70.802 L 362.088,15.473 L 335.497,9.752 L 334.525,62.287 z"
   style="fill:#737373" />
			<path
   id="path681"
   d="M 289.221,66.428 L 313.133,75.429 L 360.315,70.801 L 334.526,62.286 L 289.221,66.428 z"
   style="fill:#ededed" />
			<path
   id="path683"
   d="M 199.388,227.794 L 217.576,245.617 L 215.221,195.346 L 196.664,179.785 L 199.388,227.794 z"
   style="fill:#737373" />
			<path
   id="path685"
   d="M 150.387,236.464 L 166.266,255.305 L 111.898,265.568 L 98.63,245.621 L 150.387,236.464 z"
   style="fill:#ededed" />
			<path
   id="path687"
   d="M 104.109,293.142 L 117.31,315.263 L 61.483,327.313 L 51.05,303.892 L 104.109,293.142 z"
   style="fill:#ededed" />
			<path
   id="path689"
   d="M 196.665,179.786 L 215.222,195.347 L 162.313,203.823 L 146.209,187.348 L 196.665,179.786 z"
   style="fill:#ededed" />
			<path
   id="path691"
   d="M 288.945,12.532 L 313.555,18.59 L 313.132,75.43 L 289.22,66.429 L 288.945,12.532 z"
   style="fill:#737373" />
			<path
   id="path693"
   d="M 51.051,303.892 L 61.484,327.313 L 68.355,375.219 L 57.832,349.819 L 51.051,303.892 z"
   style="fill:#737373" />
			<path
   id="path695"
   d="M 146.209,187.348 L 162.313,203.823 L 166.267,255.304 L 150.388,236.462 L 146.209,187.348 z"
   style="fill:#737373" />
			<path
   id="path697"
   d="M 98.63,245.621 L 111.898,265.568 L 117.311,315.261 L 104.11,293.141 L 98.63,245.621 z"
   style="fill:#737373" />
			<path
   id="path699"
   d="M 193.788,129.076 L 212.726,142.078 L 215.222,195.345 L 196.665,179.784 L 193.788,129.076 z"
   style="fill:#737373" />
			<path
   id="path701"
   d="M 335.498,9.751 L 362.089,15.472 L 313.556,18.589 L 288.946,12.531 L 335.498,9.751 z"
   style="fill:#ededed" />
			<path
   id="path703"
   d="M 289.22,66.43 L 313.133,75.431 L 263.141,80.334 L 241.367,70.804 L 289.22,66.43 z"
   style="fill:#ededed" />
			<path
   id="path705"
   d="M 242.942,123.108 L 264.177,135.389 L 212.726,142.079 L 193.788,129.077 L 242.942,123.108 z"
   style="fill:#ededed" />
			<path
   id="path707"
   d="M 241.367,70.804 L 263.141,80.334 L 264.178,135.387 L 242.943,123.106 L 241.367,70.804 z"
   style="fill:#737373" />
			<path
   id="path709"
   d="M 51.051,303.891 L 61.484,327.311 L 117.311,315.261 L 104.11,293.141 L 51.051,303.891 z"
   style="fill:#ededed" />
			<path
   id="path711"
   d="M 146.209,187.347 L 162.313,203.822 L 215.222,195.345 L 196.665,179.784 L 146.209,187.347 z"
   style="fill:#ededed" />
			<path
   id="path713"
   d="M 193.788,129.074 L 212.726,142.077 L 264.177,135.387 L 242.942,123.106 L 193.788,129.074 z"
   style="fill:#ededed" />
			<path
   id="path715"
   d="M 98.63,245.619 L 111.898,265.566 L 166.266,255.304 L 150.387,236.462 L 98.63,245.619 z"
   style="fill:#ededed" />
			<path
   id="path717"
   d="M 150.387,236.462 L 166.266,255.304 L 162.312,203.824 L 146.209,187.348 L 150.387,236.462 z"
   style="fill:#737373" />
			<path
   id="path719"
   d="M 289.22,66.428 L 313.133,75.429 L 313.556,18.589 L 288.946,12.531 L 289.22,66.428 z"
   style="fill:#737373" />
			<path
   id="path721"
   d="M 196.665,179.785 L 215.222,195.346 L 212.727,142.079 L 193.788,129.077 L 196.665,179.785 z"
   style="fill:#737373" />
			<path
   id="path723"
   d="M 241.367,70.802 L 263.141,80.332 L 313.133,75.429 L 289.22,66.428 L 241.367,70.802 z"
   style="fill:#ededed" />
			<path
   id="path725"
   d="M 242.942,123.106 L 264.177,135.387 L 263.14,80.334 L 241.366,70.804 L 242.942,123.106 z"
   style="fill:#737373" />
			<path
   id="path727"
   d="M 104.109,293.141 L 117.31,315.261 L 111.897,265.568 L 98.63,245.621 L 104.109,293.141 z"
   style="fill:#737373" />
			<path
   id="path729"
   d="M 190.745,75.432 L 210.078,85.539 L 212.726,142.078 L 193.788,129.075 L 190.745,75.432 z"
   style="fill:#737373" />
			<path
   id="path731"
   d="M 146.209,187.348 L 162.312,203.824 L 106.153,212.821 L 92.834,195.349 L 146.209,187.348 z"
   style="fill:#ededed" />
			<path
   id="path733"
   d="M 193.788,129.076 L 212.727,142.078 L 158.116,149.179 L 141.789,135.389 L 193.788,129.076 z"
   style="fill:#ededed" />
			<path
   id="path735"
   d="M 98.63,245.621 L 111.898,265.568 L 54.19,276.461 L 43.878,255.306 L 98.63,245.621 z"
   style="fill:#ededed" />
			<path
   id="path737"
   d="M 43.878,255.306 L 54.19,276.461 L 61.483,327.311 L 51.05,303.891 L 43.878,255.306 z"
   style="fill:#737373" />
			<path
   id="path739"
   d="M 241.367,70.804 L 263.141,80.334 L 210.078,85.539 L 190.745,75.432 L 241.367,70.804 z"
   style="fill:#ededed" />
			<path
   id="path741"
   d="M 92.833,195.348 L 106.152,212.82 L 111.897,265.566 L 98.63,245.619 L 92.833,195.348 z"
   style="fill:#737373" />
			<path
   id="path743"
   d="M 141.789,135.39 L 158.116,149.18 L 162.313,203.822 L 146.209,187.347 L 141.789,135.39 z"
   style="fill:#737373" />
			<path
   id="path745"
   d="M 239.7,15.474 L 262.041,21.898 L 263.141,80.333 L 241.367,70.803 L 239.7,15.474 z"
   style="fill:#737373" />
			<path
   id="path747"
   d="M 288.945,12.532 L 313.555,18.59 L 262.04,21.898 L 239.7,15.474 L 288.945,12.532 z"
   style="fill:#ededed" />
			<path
   id="path749"
   d="M 98.629,245.619 L 111.897,265.567 L 106.152,212.821 L 92.833,195.348 L 98.629,245.619 z"
   style="fill:#737373" />
			<path
   id="path751"
   d="M 146.208,187.347 L 162.312,203.822 L 158.115,149.18 L 141.788,135.39 L 146.208,187.347 z"
   style="fill:#737373" />
			<path
   id="path753"
   d="M 92.833,195.346 L 106.153,212.819 L 162.312,203.822 L 146.208,187.347 L 92.833,195.346 z"
   style="fill:#ededed" />
			<path
   id="path755"
   d="M 141.789,135.388 L 158.115,149.178 L 212.726,142.077 L 193.787,129.075 L 141.789,135.388 z"
   style="fill:#ededed" />
			<path
   id="path757"
   d="M 241.367,70.802 L 263.141,80.332 L 262.04,21.897 L 239.7,15.473 L 241.367,70.802 z"
   style="fill:#737373" />
			<path
   id="path759"
   d="M 193.788,129.075 L 212.727,142.077 L 210.079,85.538 L 190.746,75.431 L 193.788,129.075 z"
   style="fill:#737373" />
			<path
   id="path761"
   d="M 190.745,75.43 L 210.078,85.537 L 263.141,80.332 L 241.367,70.802 L 190.745,75.43 z"
   style="fill:#ededed" />
			<path
   id="path763"
   d="M 43.877,255.304 L 54.19,276.46 L 111.898,265.566 L 98.63,245.618 L 43.877,255.304 z"
   style="fill:#ededed" />
			<path
   id="path765"
   d="M 19.633,91.077 L 28.213,149.193 L 86.706,142.091 L 80.186,85.541 L 19.633,91.077 z"
   style="fill:#424242;fill-opacity:1" />
			<path
   id="path767"
   d="M 137.105,80.335 L 153.652,91.073 L 158.114,149.178 L 141.788,135.388 L 137.105,80.335 z"
   style="fill:#737373" />
			<path
   id="path769"
   d="M 190.745,75.432 L 210.078,85.539 L 153.653,91.073 L 137.106,80.335 L 190.745,75.432 z"
   style="fill:#ededed" />
			<path
   id="path771"
   d="M 86.691,142.08 L 100.043,156.731 L 106.152,212.819 L 92.832,195.346 L 86.691,142.08 z"
   style="fill:#737373" />
			<path
   id="path773"
   d="M 239.7,15.473 L 262.04,21.897 L 207.261,25.415 L 187.52,18.59 L 239.7,15.473 z"
   style="fill:#ededed" />
			<path
   id="path775"
   d="M 187.52,18.59 L 207.262,25.415 L 210.078,85.536 L 190.745,75.43 L 187.52,18.59 z"
   style="fill:#737373" />
			<path
   id="path777"
   d="M 141.789,135.39 L 158.116,149.18 L 100.044,156.731 L 86.691,142.08 L 141.789,135.39 z"
   style="fill:#ededed" />
			<path
   id="path779"
   d="M 36.277,203.825 L 46.435,222.388 L 54.19,276.461 L 43.878,255.305 L 36.277,203.825 z"
   style="fill:#737373" />
			<path
   id="path781"
   d="M 92.833,195.348 L 106.152,212.821 L 46.434,222.388 L 36.276,203.825 L 92.833,195.348 z"
   style="fill:#ededed" />
			<path
   id="path783"
   d="M 92.833,195.347 L 106.152,212.819 L 100.043,156.731 L 86.691,142.081 L 92.833,195.347 z"
   style="fill:#737373" />
			<path
   id="path785"
   d="M 36.276,203.823 L 46.434,222.386 L 106.152,212.819 L 92.833,195.347 L 36.276,203.823 z"
   style="fill:#ededed" />
			<path
   id="path787"
   d="M 141.789,135.388 L 158.116,149.178 L 153.653,91.073 L 137.106,80.335 L 141.789,135.388 z"
   style="fill:#737373" />
			<path
   id="path789"
   d="M 86.691,142.078 L 100.044,156.728 L 158.116,149.177 L 141.789,135.387 L 86.691,142.078 z"
   style="fill:#ededed" />
			<path
   id="path791"
   d="M 137.105,80.333 L 153.652,91.071 L 210.077,85.537 L 190.744,75.43 L 137.105,80.333 z"
   style="fill:#ededed" />
			<path
   id="path793"
   d="M 190.744,75.43 L 210.077,85.537 L 207.261,25.416 L 187.52,18.59 L 190.744,75.43 z"
   style="fill:#737373" />
			<path
   id="path795"
   d="M 10.493,29.169 L 19.635,91.088 L 80.188,85.552 L 73.254,25.42 L 10.493,29.169 z"
   style="fill:#424242;fill-opacity:1" />
			<path
   id="path797"
   d="M 80.172,85.54 L 93.534,96.97 L 100.043,156.729 L 86.69,142.079 L 80.172,85.54 z"
   style="fill:#737373" />
			<path
   id="path799"
   d="M 132.134,21.898 L 148.897,29.163 L 153.652,91.07 L 137.105,80.332 L 132.134,21.898 z"
   style="fill:#737373" />
			<path
   id="path801"
   d="M 86.691,142.08 L 100.043,156.73 L 38.171,164.775 L 28.209,149.18 L 86.691,142.08 z"
   style="fill:#ededed" />
			<path
   id="path803"
   d="M 137.105,80.335 L 153.652,91.073 L 93.534,96.969 L 80.172,85.54 L 137.105,80.335 z"
   style="fill:#ededed" />
			<path
   id="path805"
   d="M 28.209,149.181 L 38.171,164.776 L 46.434,222.387 L 36.276,203.824 L 28.209,149.181 z"
   style="fill:#737373" />
			<path
   id="path807"
   d="M 187.52,18.59 L 207.262,25.415 L 148.898,29.163 L 132.135,21.898 L 187.52,18.59 z"
   style="fill:#ededed" />
			<path
   id="path809"
   d="M 28.208,149.179 L 38.17,164.774 L 100.042,156.729 L 86.689,142.079 L 28.208,149.179 z"
   style="fill:#ededed" />
			<path
   id="path811"
   d="M 86.69,142.078 L 100.043,156.728 L 93.534,96.969 L 80.171,85.54 L 86.69,142.078 z"
   style="fill:#737373" />
			<path
   id="path813"
   d="M 137.105,80.333 L 153.652,91.071 L 148.897,29.164 L 132.134,21.899 L 137.105,80.333 z"
   style="fill:#737373" />
			<path
   id="path815"
   d="M 80.171,85.538 L 93.534,96.968 L 153.652,91.072 L 137.105,80.334 L 80.171,85.538 z"
   style="fill:#ededed" />
			<path
   id="path817"
   d="M 73.239,25.417 L 86.585,33.166 L 93.534,96.968 L 80.171,85.538 L 73.239,25.417 z"
   style="fill:#737373" />
			<path
   id="path819"
   d="M 19.63,91.074 L 29.349,103.265 L 38.171,164.774 L 28.209,149.179 L 19.63,91.074 z"
   style="fill:#737373" />
			<path
   id="path821"
   d="M 132.134,21.898 L 148.897,29.163 L 86.585,33.164 L 73.239,25.415 L 132.134,21.898 z"
   style="fill:#ededed" />
			<path
   id="path823"
   d="M 80.171,85.54 L 93.533,96.97 L 29.348,103.265 L 19.63,91.074 L 80.171,85.54 z"
   style="fill:#ededed" />
			<path
   id="path825"
   d="M 19.63,91.072 L 29.349,103.263 L 93.534,96.968 L 80.172,85.538 L 19.63,91.072 z"
   style="fill:#ededed" />
			<path
   id="path827"
   d="M 80.171,85.538 L 93.533,96.968 L 86.584,33.166 L 73.238,25.417 L 80.171,85.538 z"
   style="fill:#737373" />
			<path
   id="path829"
   d="M 73.239,25.417 L 86.585,33.166 L 19.909,37.448 L 10.49,29.166 L 73.239,25.417 z"
   style="fill:#ededed" />
			<path
   id="path831"
   d="M 10.489,29.165 L 19.908,37.447 L 29.348,103.263 L 19.63,91.072 L 10.489,29.165 z"
   style="fill:#737373" />
		</g></svg>