<?xml version="1.0" encoding="UTF-8" standalone="no"?>
<!-- Generator: Adobe Illustrator 10, SVG Export Plug-In . SVG Version: 3.0.0 Build 76)  -->
<svg
   xmlns:dc="http://purl.org/dc/elements/1.1/"
   xmlns:cc="http://creativecommons.org/ns#"
   xmlns:rdf="http://www.w3.org/1999/02/22-rdf-syntax-ns#"
   xmlns:svg="http://www.w3.org/2000/svg"
   xmlns="http://www.w3.org/2000/svg"
   xmlns:xlink="http://www.w3.org/1999/xlink"
   xmlns:sodipodi="http://sodipodi.sourceforge.net/DTD/sodipodi-0.dtd"
   xmlns:inkscape="http://www.inkscape.org/namespaces/inkscape"
   width="299"
   height="150"
   viewBox="0 0 468.311 230.996"
   style="overflow:visible"
   xml:space="preserve"
   id="svg2"
   sodipodi:version="0.32"
   inkscape:version="0.46"
   sodipodi:docname="Grid.svg"
   inkscape:output_extension="org.inkscape.output.svg.inkscape"
   version="1.0"><metadata
   id="metadata294"><rdf:RDF><cc:Work
       rdf:about=""><dc:format>image/svg+xml</dc:format><dc:type
         rdf:resource="http://purl.org/dc/dcmitype/StillImage" /></cc:Work></rdf:RDF></metadata><defs
   id="defs292"><inkscape:perspective
   sodipodi:type="inkscape:persp3d"
   inkscape:vp_x="0 : 115.498 : 1"
   inkscape:vp_y="0 : 1000 : 0"
   inkscape:vp_z="468.311 : 115.498 : 1"
   inkscape:persp3d-origin="234.1555 : 76.998667 : 1"
   id="perspective296" />
		
		
	</defs><sodipodi:namedview
   inkscape:window-height="682"
   inkscape:window-width="1085"
   inkscape:pageshadow="2"
   inkscape:pageopacity="0.0"
   guidetolerance="10.0"
   gridtolerance="10.0"
   objecttolerance="10.0"
   borderopacity="1.0"
   bordercolor="#666666"
   pagecolor="#ffffff"
   id="base"
   showgrid="false"
   inkscape:zoom="1.1552152"
   inkscape:cx="234.1555"
   inkscape:cy="115.498"
   inkscape:window-x="0"
   inkscape:window-y="25"
   inkscape:current-layer="svg2" />
	<style
   type="text/css"
   id="style4">
	
		@font-face{font-family:'Times-Roman';src:url(8E44DC9E.cef)}
	
	</style>
	
<g
   style="overflow:visible"
   id="g23"
   transform="matrix(1.5662575,0,0,1.5662575,-16.326668,-0.9375807)">
			<g
   id="g25">
				<defs
   id="defs27">
					<path
   d="M 187.605,23.457 L 188.092,0.5 L 10.924,29.505 L 12.881,54.478 L 187.605,23.457 z"
   id="XMLID_1_" />
				</defs>
				<clipPath
   id="XMLID_2_">
					<use
   height="230.996"
   width="468.311"
   y="0"
   x="0"
   id="use31"
   xlink:href="#XMLID_1_" />
				</clipPath>
				<path
   id="path33"
   d="M 187.605,23.457 L 188.092,0.5 L 10.924,29.505 L 12.881,54.478 L 187.605,23.457 z"
   style="fill:#021329;stroke:#093a80;stroke-linecap:round;stroke-linejoin:round" />
			</g>
			<g
   id="g35">
				<defs
   id="defs37">
					<path
   d="M 177.631,35.054 L 155.166,39.175 L 167.05,47.76 L 189.966,43.409 L 177.631,35.054 z"
   id="XMLID_3_" />
				</defs>
				<clipPath
   id="XMLID_4_">
					<use
   height="230.996"
   width="468.311"
   y="0"
   x="0"
   id="use41"
   xlink:href="#XMLID_3_" />
				</clipPath>
				<path
   id="path43"
   d="M 177.631,35.054 L 155.166,39.175 L 167.05,47.76 L 189.966,43.409 L 177.631,35.054 z"
   style="fill:#043764;stroke:#095ba6;stroke-linecap:round;stroke-linejoin:round" />
			</g>
			<g
   id="g45">
				<defs
   id="defs47">
					<path
   d="M 182.524,29.178 L 103.656,43.409 L 143.236,76.357 L 228,59.061 L 182.524,29.178 z"
   id="XMLID_5_" />
				</defs>
				<clipPath
   id="XMLID_6_">
					<use
   height="230.996"
   width="468.311"
   y="0"
   x="0"
   id="use51"
   xlink:href="#XMLID_5_" />
				</clipPath>
				<path
   id="path53"
   d="M 182.524,29.178 L 103.656,43.409 L 143.236,76.357 L 228,59.061 L 182.524,29.178 z"
   style="fill:#830017;stroke:#d40026;stroke-linecap:round;stroke-linejoin:round" />
			</g>
			<g
   id="g55">
				<defs
   id="defs57">
					<path
   d="M 143.908,41.241 L 120.518,45.532 L 131.67,54.478 L 155.558,49.942 L 143.908,41.241 z"
   id="XMLID_7_" />
				</defs>
				<clipPath
   id="XMLID_8_">
					<use
   height="230.996"
   width="468.311"
   y="0"
   x="0"
   id="use61"
   xlink:href="#XMLID_7_" />
				</clipPath>
				<path
   id="path63"
   d="M 143.908,41.241 L 120.518,45.532 L 131.67,54.478 L 155.558,49.942 L 143.908,41.241 z"
   style="fill:#043764;stroke:#095ba6;stroke-linecap:round;stroke-linejoin:round" />
			</g>
			<g
   id="g65">
				<defs
   id="defs67">
					<path
   d="M 95.992,148.84 L 305.43,98.565 L 187.605,23.457 L 12.881,54.478 L 95.992,148.84 z"
   id="XMLID_9_" />
				</defs>
				<clipPath
   id="XMLID_10_">
					<use
   height="230.996"
   width="468.311"
   y="0"
   x="0"
   id="use71"
   xlink:href="#XMLID_9_" />
				</clipPath>
				<path
   id="path73"
   d="M 95.992,148.84 L 305.43,98.565 L 187.605,23.457 L 12.881,54.478 L 95.992,148.84 z"
   style="fill:#052450;stroke:#093a80;stroke-linecap:round;stroke-linejoin:round" />
			</g>
			<g
   id="g75">
				<defs
   id="defs77">
					<path
   d="M 182.524,29.178 L 182.954,5.844 L 103.018,19.147 L 103.656,43.41 L 182.524,29.178 z"
   id="XMLID_11_" />
				</defs>
				<clipPath
   id="XMLID_12_">
					<use
   height="230.996"
   width="468.311"
   y="0"
   x="0"
   id="use81"
   xlink:href="#XMLID_11_" />
				</clipPath>
				<path
   id="path83"
   d="M 182.524,29.178 L 182.954,5.844 L 103.018,19.147 L 103.656,43.41 L 182.524,29.178 z"
   style="fill:#43000c;stroke:#d40026;stroke-linecap:round;stroke-linejoin:round" />
			</g>
			<g
   id="g85">
				<defs
   id="defs87">
					<path
   d="M 177.631,35.054 L 178.003,11.334 L 155.238,15.187 L 155.166,39.175 L 177.631,35.054 z"
   id="XMLID_13_" />
				</defs>
				<clipPath
   id="XMLID_14_">
					<use
   height="230.996"
   width="468.311"
   y="0"
   x="0"
   id="use91"
   xlink:href="#XMLID_13_" />
				</clipPath>
				<path
   id="path93"
   d="M 177.631,35.054 L 178.003,11.334 L 155.238,15.187 L 155.166,39.175 L 177.631,35.054 z"
   style="fill:#011a2f;stroke:#095ba6;stroke-linecap:round;stroke-linejoin:round" />
			</g>
			<g
   id="g95">
				<defs
   id="defs97">
					<path
   d="M 305.43,98.565 L 307.959,70.864 L 188.092,0.5 L 187.606,23.457 L 305.43,98.565 z"
   id="XMLID_15_" />
				</defs>
				<clipPath
   id="XMLID_16_">
					<use
   height="230.996"
   width="468.311"
   y="0"
   x="0"
   id="use101"
   xlink:href="#XMLID_15_" />
				</clipPath>
				<path
   id="path103"
   d="M 305.43,98.565 L 307.959,70.864 L 188.092,0.5 L 187.606,23.457 L 305.43,98.565 z"
   style="fill:#041f45;stroke:#093a80;stroke-linecap:round;stroke-linejoin:round" />
			</g>
			<g
   id="g105">
				<defs
   id="defs107">
					<path
   d="M 228,59.061 L 229.133,33.797 L 182.954,5.843 L 182.524,29.177 L 228,59.061 z"
   id="XMLID_17_" />
				</defs>
				<clipPath
   id="XMLID_18_">
					<use
   height="230.996"
   width="468.311"
   y="0"
   x="0"
   id="use111"
   xlink:href="#XMLID_17_" />
				</clipPath>
				<path
   id="path113"
   d="M 228,59.061 L 229.133,33.797 L 182.954,5.843 L 182.524,29.177 L 228,59.061 z"
   style="fill:#710014;stroke:#d40026;stroke-linecap:round;stroke-linejoin:round" />
			</g>
			<g
   id="g115">
				<defs
   id="defs117">
					<path
   d="M 189.966,43.409 L 190.519,19.146 L 178.003,11.334 L 177.631,35.054 L 189.966,43.409 z"
   id="XMLID_19_" />
				</defs>
				<clipPath
   id="XMLID_20_">
					<use
   height="230.996"
   width="468.311"
   y="0"
   x="0"
   id="use121"
   xlink:href="#XMLID_19_" />
				</clipPath>
				<path
   id="path123"
   d="M 189.966,43.409 L 190.519,19.146 L 178.003,11.334 L 177.631,35.054 L 189.966,43.409 z"
   style="fill:#032f55;stroke:#095ba6;stroke-linecap:round;stroke-linejoin:round" />
			</g>
			<g
   id="g125">
				<defs
   id="defs127">
					<path
   d="M 143.908,41.241 L 143.827,17.119 L 120.11,21.132 L 120.518,45.532 L 143.908,41.241 z"
   id="XMLID_21_" />
				</defs>
				<clipPath
   id="XMLID_22_">
					<use
   height="230.996"
   width="468.311"
   y="0"
   x="0"
   id="use131"
   xlink:href="#XMLID_21_" />
				</clipPath>
				<path
   id="path133"
   d="M 143.908,41.241 L 143.827,17.119 L 120.11,21.132 L 120.518,45.532 L 143.908,41.241 z"
   style="fill:#011a2f;stroke:#095ba6;stroke-linecap:round;stroke-linejoin:round" />
			</g>
			<g
   id="g135">
				<defs
   id="defs137">
					<path
   d="M 155.166,39.175 L 155.238,15.187 L 167.29,23.217 L 167.05,47.76 L 155.166,39.175 z"
   id="XMLID_23_" />
				</defs>
				<clipPath
   id="XMLID_24_">
					<use
   height="230.996"
   width="468.311"
   y="0"
   x="0"
   id="use141"
   xlink:href="#XMLID_23_" />
				</clipPath>
				<path
   id="path143"
   d="M 155.166,39.175 L 155.238,15.187 L 167.29,23.217 L 167.05,47.76 L 155.166,39.175 z"
   style="fill:#032f55;stroke:#095ba6;stroke-linecap:round;stroke-linejoin:round" />
			</g>
			<g
   id="g145">
				<defs
   id="defs147">
					<path
   d="M 167.05,47.76 L 167.29,23.217 L 190.519,19.146 L 189.966,43.409 L 167.05,47.76 z"
   id="XMLID_25_" />
				</defs>
				<clipPath
   id="XMLID_26_">
					<use
   height="230.996"
   width="468.311"
   y="0"
   x="0"
   id="use151"
   xlink:href="#XMLID_25_" />
				</clipPath>
				<path
   id="path153"
   d="M 167.05,47.76 L 167.29,23.217 L 190.519,19.146 L 189.966,43.409 L 167.05,47.76 z"
   style="fill:#011a2f;stroke:#095ba6;stroke-linecap:round;stroke-linejoin:round" />
			</g>
			<g
   id="g155">
				<defs
   id="defs157">
					<path
   d="M 155.559,49.942 L 155.639,25.259 L 143.827,17.118 L 143.908,41.24 L 155.559,49.942 z"
   id="XMLID_27_" />
				</defs>
				<clipPath
   id="XMLID_28_">
					<use
   height="230.996"
   width="468.311"
   y="0"
   x="0"
   id="use161"
   xlink:href="#XMLID_27_" />
				</clipPath>
				<path
   id="path163"
   d="M 155.559,49.942 L 155.639,25.259 L 143.827,17.118 L 143.908,41.24 L 155.559,49.942 z"
   style="fill:#032f55;stroke:#095ba6;stroke-linecap:round;stroke-linejoin:round" />
			</g>
			<g
   id="g165">
				<defs
   id="defs167">
					<path
   d="M 131.671,54.478 L 131.41,29.505 L 155.639,25.259 L 155.559,49.942 L 131.671,54.478 z"
   id="XMLID_29_" />
				</defs>
				<clipPath
   id="XMLID_30_">
					<use
   height="230.996"
   width="468.311"
   y="0"
   x="0"
   id="use171"
   xlink:href="#XMLID_29_" />
				</clipPath>
				<path
   id="path173"
   d="M 131.671,54.478 L 131.41,29.505 L 155.639,25.259 L 155.559,49.942 L 131.671,54.478 z"
   style="fill:#011a2f;stroke:#095ba6;stroke-linecap:round;stroke-linejoin:round" />
			</g>
			<g
   id="g175">
				<defs
   id="defs177">
					<path
   d="M 120.519,45.532 L 120.111,21.132 L 131.411,29.505 L 131.672,54.478 L 120.519,45.532 z"
   id="XMLID_31_" />
				</defs>
				<clipPath
   id="XMLID_32_">
					<use
   height="230.996"
   width="468.311"
   y="0"
   x="0"
   id="use181"
   xlink:href="#XMLID_31_" />
				</clipPath>
				<path
   id="path183"
   d="M 120.519,45.532 L 120.111,21.132 L 131.411,29.505 L 131.672,54.478 L 120.519,45.532 z"
   style="fill:#032f55;stroke:#095ba6;stroke-linecap:round;stroke-linejoin:round" />
			</g>
			<g
   id="g185">
				<defs
   id="defs187">
					<path
   d="M 161.522,54.397 L 161.689,29.429 L 137.203,33.797 L 137.384,59.061 L 161.522,54.397 z"
   id="XMLID_33_" />
				</defs>
				<clipPath
   id="XMLID_34_">
					<use
   height="230.996"
   width="468.311"
   y="0"
   x="0"
   id="use191"
   xlink:href="#XMLID_33_" />
				</clipPath>
				<path
   id="path193"
   d="M 161.522,54.397 L 161.689,29.429 L 137.203,33.797 L 137.384,59.061 L 161.522,54.397 z"
   style="fill:#011a2f;stroke:#095ba6;stroke-linecap:round;stroke-linejoin:round" />
			</g>
			<g
   id="g195">
				<defs
   id="defs197">
					<path
   d="M 174.193,63.861 L 174.55,38.294 L 161.689,29.43 L 161.522,54.398 L 174.193,63.861 z"
   id="XMLID_35_" />
				</defs>
				<clipPath
   id="XMLID_36_">
					<use
   height="230.996"
   width="468.311"
   y="0"
   x="0"
   id="use201"
   xlink:href="#XMLID_35_" />
				</clipPath>
				<path
   id="path203"
   d="M 174.193,63.861 L 174.55,38.294 L 161.689,29.43 L 161.522,54.398 L 174.193,63.861 z"
   style="fill:#032f55;stroke:#095ba6;stroke-linecap:round;stroke-linejoin:round" />
			</g>
			<g
   id="g205">
				<defs
   id="defs207">
					<path
   d="M 161.522,54.397 L 137.383,59.061 L 149.527,68.802 L 174.193,63.861 L 161.522,54.397 z"
   id="XMLID_37_" />
				</defs>
				<clipPath
   id="XMLID_38_">
					<use
   height="230.996"
   width="468.311"
   y="0"
   x="0"
   id="use211"
   xlink:href="#XMLID_37_" />
				</clipPath>
				<path
   id="path213"
   d="M 161.522,54.397 L 137.383,59.061 L 149.527,68.802 L 174.193,63.861 L 161.522,54.397 z"
   style="fill:#043764;stroke:#095ba6;stroke-linecap:round;stroke-linejoin:round" />
			</g>
			<g
   id="g215">
				<defs
   id="defs217">
					<path
   d="M 149.527,68.802 L 149.522,42.925 L 174.55,38.293 L 174.193,63.86 L 149.527,68.802 z"
   id="XMLID_39_" />
				</defs>
				<clipPath
   id="XMLID_40_">
					<use
   height="230.996"
   width="468.311"
   y="0"
   x="0"
   id="use221"
   xlink:href="#XMLID_39_" />
				</clipPath>
				<path
   id="path223"
   d="M 149.527,68.802 L 149.522,42.925 L 174.55,38.293 L 174.193,63.86 L 149.527,68.802 z"
   style="fill:#011a2f;stroke:#095ba6;stroke-linecap:round;stroke-linejoin:round" />
			</g>
			<g
   id="g225">
				<defs
   id="defs227">
					<path
   d="M 137.384,59.061 L 137.203,33.797 L 149.522,42.925 L 149.527,68.802 L 137.384,59.061 z"
   id="XMLID_41_" />
				</defs>
				<clipPath
   id="XMLID_42_">
					<use
   height="230.996"
   width="468.311"
   y="0"
   x="0"
   id="use231"
   xlink:href="#XMLID_41_" />
				</clipPath>
				<path
   id="path233"
   d="M 137.384,59.061 L 137.203,33.797 L 149.522,42.925 L 149.527,68.802 L 137.384,59.061 z"
   style="fill:#032f55;stroke:#095ba6;stroke-linecap:round;stroke-linejoin:round" />
			</g>
			<g
   id="g235">
				<defs
   id="defs237">
					<path
   d="M 103.656,43.409 L 103.018,19.146 L 143.134,50.009 L 143.236,76.356 L 103.656,43.409 z"
   id="XMLID_43_" />
				</defs>
				<clipPath
   id="XMLID_44_">
					<use
   height="230.996"
   width="468.311"
   y="0"
   x="0"
   id="use241"
   xlink:href="#XMLID_43_" />
				</clipPath>
				<path
   id="path243"
   d="M 103.656,43.409 L 103.018,19.146 L 143.134,50.009 L 143.236,76.356 L 103.656,43.409 z"
   style="fill:#710014;stroke:#d40026;stroke-linecap:round;stroke-linejoin:round" />
			</g>
			<g
   id="g245">
				<defs
   id="defs247">
					<path
   d="M 143.236,76.357 L 143.134,50.01 L 229.132,33.797 L 228,59.061 L 143.236,76.357 z"
   id="XMLID_45_" />
				</defs>
				<clipPath
   id="XMLID_46_">
					<use
   height="230.996"
   width="468.311"
   y="0"
   x="0"
   id="use251"
   xlink:href="#XMLID_45_" />
				</clipPath>
				<path
   id="path253"
   d="M 143.236,76.357 L 143.134,50.01 L 229.132,33.797 L 228,59.061 L 143.236,76.357 z"
   style="fill:#43000c;stroke:#d40026;stroke-linecap:round;stroke-linejoin:round" />
			</g>
			<g
   id="g255">
				<defs
   id="defs257">
					<path
   d="M 94.994,118.222 L 10.924,29.505 L 188.092,0.5 L 307.959,70.864 L 94.994,118.222 z"
   id="XMLID_47_" />
				</defs>
				<clipPath
   id="XMLID_48_">
					<use
   height="230.996"
   width="468.311"
   y="0"
   x="0"
   id="use261"
   xlink:href="#XMLID_47_" />
				</clipPath>
			</g>
			<g
   id="g263">
				<defs
   id="defs265">
					<path
   d="M 182.954,5.843 L 229.133,33.797 L 143.135,50.01 L 103.019,19.147 L 182.954,5.843 z"
   id="XMLID_49_" />
				</defs>
				<clipPath
   id="XMLID_50_">
					<use
   height="230.996"
   width="468.311"
   y="0"
   x="0"
   id="use269"
   xlink:href="#XMLID_49_" />
				</clipPath>
			</g>
			<g
   id="g271">
				<defs
   id="defs273">
					<path
   d="M 95.992,148.84 L 94.994,118.222 L 307.959,70.864 L 305.43,98.565 L 95.992,148.84 z"
   id="XMLID_51_" />
				</defs>
				<clipPath
   id="XMLID_52_">
					<use
   height="230.996"
   width="468.311"
   y="0"
   x="0"
   id="use277"
   xlink:href="#XMLID_51_" />
				</clipPath>
				<path
   id="path279"
   d="M 95.992,148.84 L 94.994,118.222 L 307.959,70.864 L 305.43,98.565 L 95.992,148.84 z"
   style="fill:#021329;stroke:#093a80;stroke-linecap:round;stroke-linejoin:round" />
			</g>
			<g
   id="g281">
				<defs
   id="defs283">
					<path
   d="M 12.881,54.478 L 10.924,29.505 L 94.994,118.222 L 95.992,148.84 L 12.881,54.478 z"
   id="XMLID_53_" />
				</defs>
				<clipPath
   id="XMLID_54_">
					<use
   height="230.996"
   width="468.311"
   y="0"
   x="0"
   id="use287"
   xlink:href="#XMLID_53_" />
				</clipPath>
				<path
   id="path289"
   d="M 12.881,54.478 L 10.924,29.505 L 94.994,118.222 L 95.992,148.84 L 12.881,54.478 z"
   style="fill:#041f45;stroke:#093a80;stroke-linecap:round;stroke-linejoin:round" />
			</g>
		</g></svg>