<?xml version="1.0" encoding="UTF-8" standalone="no"?>
<!-- Generator: Adobe Illustrator 10, SVG Export Plug-In . SVG Version: 3.0.0 Build 76)  -->
<svg
   xmlns:dc="http://purl.org/dc/elements/1.1/"
   xmlns:cc="http://creativecommons.org/ns#"
   xmlns:rdf="http://www.w3.org/1999/02/22-rdf-syntax-ns#"
   xmlns:svg="http://www.w3.org/2000/svg"
   xmlns="http://www.w3.org/2000/svg"
   xmlns:sodipodi="http://sodipodi.sourceforge.net/DTD/sodipodi-0.dtd"
   xmlns:inkscape="http://www.inkscape.org/namespaces/inkscape"
   width="289"
   height="196"
   viewBox="0 0 468.311 278.192"
   style="overflow:visible"
   xml:space="preserve"
   id="svg2"
   sodipodi:version="0.32"
   inkscape:version="0.46"
   sodipodi:docname="One.svg"
   inkscape:output_extension="org.inkscape.output.svg.inkscape"
   version="1.0"><metadata
   id="metadata88"><rdf:RDF><cc:Work
       rdf:about=""><dc:format>image/svg+xml</dc:format><dc:type
         rdf:resource="http://purl.org/dc/dcmitype/StillImage" /></cc:Work></rdf:RDF></metadata><defs
   id="defs86"><inkscape:perspective
   sodipodi:type="inkscape:persp3d"
   inkscape:vp_x="0 : 139.09599 : 1"
   inkscape:vp_y="0 : 1000 : 0"
   inkscape:vp_z="468.311 : 139.09599 : 1"
   inkscape:persp3d-origin="234.1555 : 92.730662 : 1"
   id="perspective90" />
		
		
	</defs><sodipodi:namedview
   inkscape:window-height="682"
   inkscape:window-width="922"
   inkscape:pageshadow="2"
   inkscape:pageopacity="0.0"
   guidetolerance="10.0"
   gridtolerance="10.0"
   objecttolerance="10.0"
   borderopacity="1.0"
   bordercolor="#666666"
   pagecolor="#ffffff"
   id="base"
   showgrid="false"
   inkscape:zoom="1.1552152"
   inkscape:cx="234.1555"
   inkscape:cy="139.09599"
   inkscape:window-x="0"
   inkscape:window-y="25"
   inkscape:current-layer="svg2" />
	<style
   type="text/css"
   id="style4">
	
		@font-face{font-family:'Times-Roman';src:url(48EDB838.cef)}
	
	</style>
	
<g
   transform="matrix(1.6204533,0,0,1.6204533,-18.296538,-19.33572)"
   style="overflow:visible"
   id="g23">
			<path
   id="path25"
   d="M 149.916,0 L 150.381,43.742 L 296.077,72.794 L 299.564,25.935 L 149.916,0 z"
   style="fill:#4e69aa" />
			<path
   id="path27"
   d="M 195.798,195.77 L 296.077,72.794 L 150.381,43.742 L 16.334,145.059 L 195.798,195.77 z"
   style="fill:#0b3d91" />
			<path
   id="path29"
   d="M 155.291,5.574 L 155.631,49.997 L 279.235,75.026 L 282.279,27.932 L 155.291,5.574 z"
   style="fill:#7fa8cf" />
			<path
   id="path31"
   d="M 171.644,70.251 L 182.547,60.906 L 160.703,56.412 L 149.369,65.517 L 171.644,70.251 z"
   style="fill:#546969" />
			<path
   id="path33"
   d="M 258.426,82.612 L 263.035,77.463 L 251.195,75.026 L 246.452,80.107 L 258.426,82.612 z"
   style="fill:#546969" />
			<path
   id="path35"
   d="M 256.699,101.335 L 279.235,75.026 L 155.631,49.997 L 126.485,72.709 L 256.699,101.335 z"
   style="fill:#234058" />
			<path
   id="path37"
   d="M 160.489,11.297 L 160.703,56.412 L 182.547,60.906 L 182.908,15.308 L 160.489,11.297 z"
   style="fill:#537db9" />
			<path
   id="path39"
   d="M 11.291,90.943 L 16.334,145.058 L 150.381,43.742 L 149.916,0 L 11.291,90.943 z"
   style="fill:#214a98" />
			<path
   id="path41"
   d="M 125.324,25.858 L 126.485,72.709 L 155.631,49.997 L 155.291,5.574 L 125.324,25.858 z"
   style="fill:#5d93c3" />
			<path
   id="path43"
   d="M 148.846,19.428 L 149.369,65.518 L 160.703,56.413 L 160.489,11.298 L 148.846,19.428 z"
   style="fill:#7494c5" />
			<path
   id="path45"
   d="M 171.719,23.66 L 171.644,70.251 L 149.37,65.518 L 148.847,19.428 L 171.719,23.66 z"
   style="fill:#c9d4e7" />
			<path
   id="path47"
   d="M 182.908,15.309 L 182.547,60.907 L 171.644,70.252 L 171.719,23.661 L 182.908,15.309 z"
   style="fill:#a7b9d9" />
			<path
   id="path49"
   d="M 253.465,27.933 L 251.195,75.027 L 263.035,77.464 L 265.65,30.114 L 253.465,27.933 z"
   style="fill:#537db9" />
			<path
   id="path51"
   d="M 248.622,32.482 L 246.452,80.107 L 251.195,75.026 L 253.465,27.932 L 248.622,32.482 z"
   style="fill:#7494c5" />
			<path
   id="path53"
   d="M 260.949,34.726 L 258.426,82.613 L 246.452,80.108 L 248.622,32.483 L 260.949,34.726 z"
   style="fill:#c9d4e7" />
			<path
   id="path55"
   d="M 265.65,30.113 L 263.035,77.463 L 258.426,82.612 L 260.949,34.725 L 265.65,30.113 z"
   style="fill:#a7b9d9" />
			<path
   id="path57"
   d="M 259.302,51.525 L 256.699,101.335 L 126.485,72.709 L 125.324,25.858 L 259.302,51.525 z"
   style="fill:#91b4d6" />
			<path
   id="path59"
   d="M 118.923,30.191 L 120.273,77.549 L 189.686,93.071 L 190.289,44.104 L 118.923,30.191 z"
   style="fill:#7fa8cf" />
			<path
   id="path61"
   d="M 123.602,156.006 L 189.686,93.072 L 120.272,77.55 L 46.415,135.104 L 123.602,156.006 z"
   style="fill:#234058" />
			<path
   id="path63"
   d="M 123.564,37.082 L 124.814,85.242 L 147.997,90.519 L 147.396,41.814 L 123.564,37.082 z"
   style="fill:#537db9" />
			<path
   id="path65"
   d="M 282.279,27.933 L 279.235,75.027 L 256.699,101.336 L 259.302,51.526 L 282.279,27.933 z"
   style="fill:#6e9ec9" />
			<path
   id="path67"
   d="M 99.917,131.731 L 147.997,90.519 L 124.814,85.242 L 75,125.258 L 99.917,131.731 z"
   style="fill:#546969" />
			<path
   id="path69"
   d="M 42.464,81.945 L 46.415,135.103 L 120.272,77.549 L 118.922,30.191 L 42.464,81.945 z"
   style="fill:#5d93c3" />
			<path
   id="path71"
   d="M 72.043,73.06 L 75,125.258 L 124.814,85.242 L 123.564,37.082 L 72.043,73.06 z"
   style="fill:#7494c5" />
			<path
   id="path73"
   d="M 97.71,78.901 L 99.917,131.731 L 75,125.258 L 72.043,73.06 L 97.71,78.901 z"
   style="fill:#c9d4e7" />
			<path
   id="path75"
   d="M 147.396,41.814 L 147.997,90.519 L 99.917,131.731 L 97.71,78.901 L 147.396,41.814 z"
   style="fill:#a7b9d9" />
			<path
   id="path77"
   d="M 190.288,44.105 L 189.685,93.072 L 123.601,156.006 L 122.065,100.855 L 190.288,44.105 z"
   style="fill:#6e9ec9" />
			<path
   id="path79"
   d="M 122.065,100.854 L 123.601,156.005 L 46.414,135.103 L 42.463,81.945 L 122.065,100.854 z"
   style="fill:#91b4d6" />
			<path
   id="path81"
   d="M 196.795,136.992 L 195.798,195.769 L 16.334,145.059 L 11.291,90.944 L 196.795,136.992 z"
   style="fill:#657bb4" />
			<path
   id="path83"
   d="M 299.564,25.935 L 296.077,72.794 L 195.798,195.77 L 196.795,136.993 L 299.564,25.935 z"
   style="fill:#375aa1" />
		</g></svg>